<svg xmlns="http://www.w3.org/2000/svg" width="68.204" height="68.213" viewBox="0 0 68.204 68.213">
  <g id="contract" transform="translate(-16 495.988)">
    <path id="Path_83559" data-name="Path 83559" d="M29.641-495.8a4.53,4.53,0,0,0-2.1,2.174c-.128.44-.171,3.623-.171,12.76v12.163h-4.76l-3.055,1.222a19.741,19.741,0,0,0-3.3,1.506c-.242.27-.256.9-.256,8.6,0,4.959.057,8.4.128,8.554a15.98,15.98,0,0,0,2.117,1.549l1.975,1.307h7.147v7.616a74.829,74.829,0,0,0,.171,8.213,4.22,4.22,0,0,0,2.188,2.188c.853.242,37.626.242,38.479,0a4.22,4.22,0,0,0,2.188-2.188c.256-.853.256-62.634,0-63.487a4.22,4.22,0,0,0-2.188-2.188C67.409-496.046,30.394-496.046,29.641-495.8Zm38.294,2.444.355.341v62.265l-.355.341-.341.355H30.337L30-430.414l-.355-.341V-459.6l4.021-.043,4.007-.043.9-.483a4.135,4.135,0,0,0,1.989-2.06,3.373,3.373,0,0,0,.369-1.932,3.144,3.144,0,0,0-.469-2.1,4.359,4.359,0,0,0-2.146-2.046c-.611-.313-.824-.327-4.646-.369l-4.021-.043v-24.3l.355-.341.341-.355H67.594Zm-30.252,27.3a2.006,2.006,0,0,1,.98,1.9,2.006,2.006,0,0,1-.98,1.9c-.369.284-.611.3-6.224.369l-5.826.071-.27.341a1.468,1.468,0,0,0-.27.753,3.669,3.669,0,0,1-3.183,3.382c-.185,0-.227.185-.227,1.151v1.165l.753-.1a6.093,6.093,0,0,0,3.95-2.458,8.646,8.646,0,0,0,.639-1.307l.341-.8v11.438H20.916l-1.321-.867-1.321-.881V-464.53l2.316-.938,2.3-.938,7.2.014C37.129-466.363,37.3-466.363,37.683-466.065Z" transform="translate(0 0)" fill="#007889"/>
    <path id="Path_83560" data-name="Path 83560" d="M173.813-461.556A60.447,60.447,0,0,0,168.3-458.9c-.242.27-.256.611-.213,5.059.057,5.328.1,5.613,1.208,7.7.739,1.421,1.393,2.117,5.726,5.968,3.325,2.956,4.05,3.538,4.4,3.538.455,0,.384.057,5.542-4.533,3.1-2.757,3.893-3.609,4.6-4.973,1.094-2.089,1.137-2.387,1.194-7.7.043-4.447.028-4.774-.213-5.059-.3-.355-10.728-5.016-11.183-5C179.213-463.9,176.712-462.835,173.813-461.556Zm10.216,2.06,4.49,2.018v3.638c0,4.76-.213,5.741-1.662,7.716-.469.639-7.176,6.721-7.417,6.721s-7.147-6.238-7.531-6.806c-1.393-2.032-1.577-2.9-1.577-7.559v-3.723l4.447-1.989c2.43-1.094,4.5-2,4.59-2S181.557-460.59,184.03-459.5Z" transform="translate(-130.46 -27.528)" fill="#007889"/>
    <path id="Path_83561" data-name="Path 83561" d="M226.349-408.187l-2.8,2.8-1.208-1.208-1.208-1.208-.824.824-.81.81,1.79,1.776c1.577,1.577,1.833,1.776,2.259,1.776s.8-.3,3.865-3.382l3.382-3.368-.81-.81-.824-.824Z" transform="translate(-174.584 -72.912)" fill="#007889"/>
    <path id="Path_83562" data-name="Path 83562" d="M144-206.863v1.137h4.547V-208H144Z" transform="translate(-109.812 -247.067)" fill="#007889"/>
    <path id="Path_83563" data-name="Path 83563" d="M192-206.863v1.137h22.735V-208H192Z" transform="translate(-150.992 -247.067)" fill="#007889"/>
    <path id="Path_83564" data-name="Path 83564" d="M144-158.863v1.137h4.547V-160H144Z" transform="translate(-109.812 -288.246)" fill="#007889"/>
    <path id="Path_83565" data-name="Path 83565" d="M192-158.863v1.137h22.735V-160H192Z" transform="translate(-150.992 -288.246)" fill="#007889"/>
    <path id="Path_83566" data-name="Path 83566" d="M144-110.863v1.137h4.547V-112H144Z" transform="translate(-109.812 -329.426)" fill="#007889"/>
    <path id="Path_83567" data-name="Path 83567" d="M192-110.863v1.137h22.735V-112H192Z" transform="translate(-150.992 -329.426)" fill="#007889"/>
    <path id="Path_83568" data-name="Path 83568" d="M144-62.863v1.137h4.547V-64H144Z" transform="translate(-109.812 -370.605)" fill="#007889"/>
    <path id="Path_83569" data-name="Path 83569" d="M192-62.863v1.137h22.735V-64H192Z" transform="translate(-150.992 -370.605)" fill="#007889"/>
    <path id="Path_83570" data-name="Path 83570" d="M418.273-383.767a4.53,4.53,0,0,0-2.1,2.174c-.128.455-.171,5.215-.171,20.248l.014,19.666,1.194,4.76c1.279,5.087,1.35,5.257,2.2,5.257s.924-.171,2.2-5.257l1.194-4.76.014-16.6v-16.582h2.273v10.231h2.273v-11.808l-.355-.341c-.327-.341-.412-.355-2.273-.355H422.82v-1.932c0-2.316-.142-2.842-.952-3.751A3.336,3.336,0,0,0,418.273-383.767Zm1.918,2.444c.341.327.355.412.355,2.274v1.918h-2.273v-1.918c0-1.861.014-1.947.355-2.274a1.108,1.108,0,0,1,.781-.355A1.108,1.108,0,0,1,420.192-381.323Zm.355,22.38v15.914h-2.273v-31.829h2.273Zm-.682,19.68a8.819,8.819,0,0,1-.455,1.492,8.828,8.828,0,0,1-.455-1.492l-.355-1.492h1.62Z" transform="translate(-343.163 -96.123)" fill="#007889"/>
  </g>
</svg>
