<svg xmlns="http://www.w3.org/2000/svg" width="66.174" height="70.263" viewBox="0 0 66.174 70.263">
  <g id="couple" transform="translate(-14.112 512.937)">
    <path id="Path_83549" data-name="Path 83549" d="M80.073-511.647a5.552,5.552,0,0,0-2.2,9.291,5.711,5.711,0,0,0,4.719,1.506,5.616,5.616,0,0,0,4.639-6.3A5.542,5.542,0,0,0,80.073-511.647Z" transform="translate(-52.932)" fill="none" stroke="#007889" stroke-width="2"/>
    <path id="Path_83550" data-name="Path 83550" d="M331.406-497.532a6.428,6.428,0,0,0-2.6,1.626,6.852,6.852,0,0,0-.893,1.4,3.8,3.8,0,0,0-.413,2.266,3.823,3.823,0,0,0,.427,2.293,5.567,5.567,0,0,0,2.679,2.679,3.846,3.846,0,0,0,2.306.427,3.7,3.7,0,0,0,2.413-.507,5.126,5.126,0,0,0,2.559-2.626,3.8,3.8,0,0,0,.413-2.266,3.823,3.823,0,0,0-.427-2.293,5.658,5.658,0,0,0-2.653-2.666,4.33,4.33,0,0,0-2.026-.453A6.83,6.83,0,0,0,331.406-497.532Z" transform="translate(-270.753 -12.355)" fill="none" stroke="#007889" stroke-width="2"/>
    <path id="Path_83551" data-name="Path 83551" d="M20.063-414.794A6.624,6.624,0,0,0,16-411.768c-.92,1.56-.92,1.453-.88,13.183.04,10.317.04,10.477.32,11a2.529,2.529,0,0,0,2.226,1.36,2.45,2.45,0,0,0,2.279-1.066l.413-.52.067-10.477c.053-7.945.107-10.557.227-10.77a1.128,1.128,0,0,1,.573-.427l.4-.147.027,23.82.04,23.82.293.547a3.969,3.969,0,0,0,.746.946,3.21,3.21,0,0,0,5.292-1.813c.08-.453.133-5.572.133-13.756v-13.05h1.333l.027,13.556.04,13.57.293.547a3.266,3.266,0,0,0,3.186,1.746,3.222,3.222,0,0,0,2.839-2.506c.107-.453.147-7.9.147-23.98,0-22.5.013-23.327.24-23.327a.931.931,0,0,1,.533.307c.293.307.293.373.307,5.172a37.423,37.423,0,0,0,.16,5.265c.093.227.853,1.56,1.693,2.959l1.52,2.559.213-.786c.28-1.013.507-1.36,1.919-2.879l1.173-1.266-.613-1.053-.613-1.04V-404.4c0-2.266-.067-4.545-.133-5.052a6.505,6.505,0,0,0-5.185-5.4C36.139-415.047,20.943-415.007,20.063-414.794Z" transform="translate(0 -84.016)" fill="none" stroke="#007889" stroke-width="2"/>
    <path id="Path_83552" data-name="Path 83552" d="M234.343-402.691a6.115,6.115,0,0,0-4.559,3.612c-.293.613-1.146,2.813-1.879,4.892a38.984,38.984,0,0,1-1.573,4.066c-.12.147-1.506,1.613-3.079,3.266a36,36,0,0,0-3.026,3.426,2.8,2.8,0,0,0,.92,3.172,2.621,2.621,0,0,0,2.719.187,38,38,0,0,0,3.812-3.719,33.022,33.022,0,0,0,3.879-4.465c.347-.573.6-.906.56-.72-.347,1.573-2.879,16.129-2.879,16.542a1.228,1.228,0,0,0,.387.946c.387.44.413.44,1.733.48l1.346.053.027,9.744.04,9.757.293.56a3.274,3.274,0,0,0,3.452,1.653,3.345,3.345,0,0,0,2.146-1.573l.373-.64.04-9.771.04-9.757h1.306l.04,9.757.04,9.771.373.64a3.345,3.345,0,0,0,2.146,1.573,3.227,3.227,0,0,0,3.452-1.666c.293-.547.293-.547.333-10.3l.027-9.744,1.346-.053c1.32-.04,1.346-.04,1.733-.48a1.248,1.248,0,0,0,.387-.973c0-.293-.6-4.079-1.333-8.4s-1.333-7.931-1.306-8.011a11.917,11.917,0,0,1,.76,1.853c1.733,4.772,3.532,9.344,3.839,9.757a2.658,2.658,0,0,0,4.652-1.386c.067-.613-.08-1.093-1.879-6.065-1.08-2.973-2.586-7.171-3.346-9.331-1.693-4.812-2.2-5.865-3.292-6.985a5.2,5.2,0,0,0-3.292-1.68C243.914-402.851,235.53-402.851,234.343-402.691Z" transform="translate(-177.623 -94.559)" fill="none" stroke="#007889" stroke-width="2"/>
  </g>
</svg>
