<svg xmlns="http://www.w3.org/2000/svg" width="68.232" height="68.213" viewBox="0 0 68.232 68.213">
  <g id="magnifying-glass" transform="translate(-8 503.863)">
    <path id="Path_83553" data-name="Path 83553" d="M32.429-503.661a28.057,28.057,0,0,0-2.988.606A28.467,28.467,0,0,0,8.826-482.469,26.778,26.778,0,0,0,8-475.446a27.055,27.055,0,0,0,2.878,12.531,26.958,26.958,0,0,0,5.508,7.643,28.4,28.4,0,0,0,15.657,7.945,38.376,38.376,0,0,0,8.8,0A28.633,28.633,0,0,0,49.1-450a28.691,28.691,0,0,0,4.379-2.7l.537-.413,2.052,2.052c1.418,1.418,2.052,2.148,2.052,2.355a5.434,5.434,0,0,0,.289,1.1c.275.744.661,1.171,5.481,6,5.949,5.976,5.908,5.949,7.863,5.949a3.378,3.378,0,0,0,1.942-.386,5.085,5.085,0,0,0,2.231-2.272,3.8,3.8,0,0,0,.3-1.749c0-2,.124-1.831-5.563-7.56-2.768-2.782-5.315-5.247-5.646-5.467a4.589,4.589,0,0,0-1.391-.551c-.771-.151-.84-.207-2.823-2.19l-2.038-2.038.413-.537a29.331,29.331,0,0,0,4.778-9.887,23.371,23.371,0,0,0,.826-7.161,21.222,21.222,0,0,0-.317-4.82,28.43,28.43,0,0,0-24.222-23.4A38.067,38.067,0,0,0,32.429-503.661Zm7.436,2.327a26.188,26.188,0,0,1,22.473,22.1,33.048,33.048,0,0,1,0,7.56,26.78,26.78,0,0,1-4.723,11.622,37.052,37.052,0,0,1-5.784,5.784,26.78,26.78,0,0,1-11.622,4.723,33.047,33.047,0,0,1-7.56,0,26.221,26.221,0,0,1-21.468-19.265,26.152,26.152,0,0,1,11.058-28.546,27.2,27.2,0,0,1,11.14-4.035A34.04,34.04,0,0,1,39.865-501.334ZM59.777-452.78a3.261,3.261,0,0,0-.771.812l-.248.413-1.487-1.474-1.487-1.487.785-.785.8-.8,1.473,1.473,1.473,1.46Zm3.993,1.57c.193.1,2.52,2.369,5.191,5.054,5.233,5.247,5.15,5.15,4.944,6.417a2.226,2.226,0,0,1-3.195,1.57c-.3-.165-2.575-2.327-5.315-5.081-4.159-4.186-4.792-4.861-4.93-5.384A2.291,2.291,0,0,1,63.77-451.21Z" fill="#007889"/>
    <path id="Path_83554" data-name="Path 83554" d="M62.86-470.459A24.012,24.012,0,0,0,42.4-453.907a23.848,23.848,0,0,0,5.109,23.313,24.691,24.691,0,0,0,12.751,7.285,26.7,26.7,0,0,0,8.992.165,23.949,23.949,0,0,0,19.76-23.423,22.992,22.992,0,0,0-1.239-7.656,23.924,23.924,0,0,0-18.521-15.96A29.018,29.018,0,0,0,62.86-470.459Zm6.624,2.6a25.068,25.068,0,0,1,5.343,1.873,22.5,22.5,0,0,1,9.736,9.846,21.663,21.663,0,0,1-7.67,27.582,21.738,21.738,0,0,1-18.741,2.3A22.15,22.15,0,0,1,45.839-437a20.824,20.824,0,0,1-2.231-8.758A21.109,21.109,0,0,1,49.764-461.8a21.564,21.564,0,0,1,12.214-6.252A28.587,28.587,0,0,1,69.483-467.856Z" transform="translate(-28.682 -28.741)" fill="#007889"/>
    <path id="Path_83555" data-name="Path 83555" d="M114.007-420.655a4.136,4.136,0,0,0-2.176,1.721c-.606.936-11.443,20.325-11.9,21.3a3.438,3.438,0,0,0-.344,1.859,3.274,3.274,0,0,0,.4,1.9,4.606,4.606,0,0,0,2.424,2.231c.73.262,1.088.275,13.137.275h12.393l.771-.358a4.445,4.445,0,0,0,2.575-3.773,6.1,6.1,0,0,0-.1-1.515c-.22-.84-12.063-21.936-12.655-22.556A4.391,4.391,0,0,0,114.007-420.655Zm2.231,2.217a2.715,2.715,0,0,1,.716.441c.441.537,12.035,21.44,12.1,21.84a2.317,2.317,0,0,1-1.363,2.368c-.262.11-4.2.151-12.311.151-13.151,0-12.5.041-13.151-.868a2.589,2.589,0,0,1-.179-2.313C103.1-398.87,113.8-417.8,114.076-418.08A1.79,1.79,0,0,1,116.238-418.438Z" transform="translate(-78.976 -71.549)" fill="#007889"/>
    <path id="Path_83556" data-name="Path 83556" d="M206.8-371.3c-.716.3-.757.633-.7,6.431l.041,5.178.33.358a1.073,1.073,0,0,0,1.6.014l.344-.331v-11.016l-.3-.344A1,1,0,0,0,206.8-371.3Z" transform="translate(-170.801 -114.198)" fill="#007889"/>
    <path id="Path_83557" data-name="Path 83557" d="M207.107-263.624a1.1,1.1,0,0,0,.785,1.859,1.151,1.151,0,0,0,1.143-1.1A1.126,1.126,0,0,0,207.107-263.624Z" transform="translate(-171.429 -206.864)" fill="#007889"/>
    <path id="Path_83558" data-name="Path 83558" d="M79.89-400.009a19.207,19.207,0,0,0-5.247,12.435c-.028,1.294-.014,1.336.358,1.666a.943.943,0,0,0,1.46-.055c.358-.344.386-.482.468-1.887a16.717,16.717,0,0,1,4.641-10.6c1.06-1.143,1.184-1.542.675-2.19A.878.878,0,0,0,81.4-401C80.9-401,80.771-400.917,79.89-400.009Z" transform="translate(-57.458 -88.698)" fill="#007889"/>
  </g>
</svg>
