<svg xmlns="http://www.w3.org/2000/svg" width="53.832" height="53.829" viewBox="0 0 53.832 53.829">
  <g id="prisoner" transform="translate(0 512)">
    <path id="Path_83539" data-name="Path 83539" d="M.263-511.737,0-511.485v52.8l.263.252a.773.773,0,0,0,1.157,0l.263-.252v-52.8l-.263-.252A.819.819,0,0,0,.841-512,.819.819,0,0,0,.263-511.737Z" transform="translate(0 0)" fill="#007889"/>
    <path id="Path_83540" data-name="Path 83540" d="M124.263-511.737l-.263.252v52.8l.263.252a.773.773,0,0,0,1.157,0l.263-.252v-52.8l-.263-.252a.819.819,0,0,0-.578-.263A.819.819,0,0,0,124.263-511.737Z" transform="translate(-110.963 0)" fill="#007889"/>
    <path id="Path_83541" data-name="Path 83541" d="M248.263-511.737l-.263.252v52.8l.263.252a.773.773,0,0,0,1.157,0l.263-.252v-52.8l-.263-.252a.819.819,0,0,0-.578-.263A.819.819,0,0,0,248.263-511.737Z" transform="translate(-221.925 0)" fill="#007889"/>
    <path id="Path_83542" data-name="Path 83542" d="M372.263-511.737l-.263.252v52.8l.263.252a.773.773,0,0,0,1.157,0l.263-.252v-52.8l-.263-.252a.819.819,0,0,0-.578-.263A.819.819,0,0,0,372.263-511.737Z" transform="translate(-332.888 0)" fill="#007889"/>
    <path id="Path_83543" data-name="Path 83543" d="M496.263-511.737l-.263.252v52.8l.263.252a.773.773,0,0,0,1.157,0l.263-.252v-52.8l-.263-.252a.82.82,0,0,0-.578-.263A.82.82,0,0,0,496.263-511.737Z" transform="translate(-443.851 0)" fill="#007889"/>
    <path id="Path_83544" data-name="Path 83544" d="M155.579-481.194a9.988,9.988,0,0,0-3.123,1.556c-2.082,1.64-3.2,4.679-2.986,8.075a17.967,17.967,0,0,0,3.028,8.979l.5.757v2.4l-.81.736a12.548,12.548,0,0,1-2.87,1.808,18.319,18.319,0,0,0-2.176,1.251.936.936,0,0,0,.074,1.072c.347.347.789.263,2.176-.463,1.125-.589,1.283-.641,1.241-.442-.368,1.609-1,4.8-1,5.078a.735.735,0,0,0,.715.768,12.331,12.331,0,0,0,1.451-.273l1.157-.284,1.367,1.125c1.4,1.157,1.64,1.293,2.092,1.178a.865.865,0,0,0,.494-1.051,23.42,23.42,0,0,0-3.554-2.965,3.351,3.351,0,0,0-.988.116,3.459,3.459,0,0,1-.778.147c-.021-.021.2-1.188.5-2.586l.536-2.544.421-.431c.284-.294.431-.379.484-.294s.484,1.22.978,2.555.967,2.481,1.041,2.544a1.193,1.193,0,0,0,.463.2c.284.053.389.011.662-.252a1.2,1.2,0,0,0,.315-.484c0-.095-.526-1.577-1.157-3.291a16.313,16.313,0,0,1-1.135-3.512l.032-.4.631.421a2.935,2.935,0,0,0,.81.41.922.922,0,0,0,.82-.536c.21-.5.063-.778-.726-1.293a10.325,10.325,0,0,1-3.47-4.258,19,19,0,0,1-1.451-4.321,15.565,15.565,0,0,1,.063-5.2,6.231,6.231,0,0,1,1.5-2.849,5.873,5.873,0,0,1,2.723-1.682c1.041-.336,1.356-.578,1.356-1.041a.946.946,0,0,0-.631-.81A2.366,2.366,0,0,0,155.579-481.194Z" transform="translate(-131.555 -27.473)" fill="#007889"/>
    <path id="Path_83545" data-name="Path 83545" d="M269.494-480.7a.758.758,0,0,0,.01,1.093,4.469,4.469,0,0,0,1.115.494,5.873,5.873,0,0,1,2.723,1.682,6.23,6.23,0,0,1,1.5,2.849,15.573,15.573,0,0,1,.053,5.2,18.009,18.009,0,0,1-1.524,4.479,10,10,0,0,1-3.386,4.1c-.789.515-.936.789-.726,1.293a.863.863,0,0,0,.967.484,5.349,5.349,0,0,0,.8-.431l.547-.357v.421a22.881,22.881,0,0,1-1.157,3.512c-.631,1.7-1.157,3.175-1.157,3.27a1.156,1.156,0,0,0,.315.494c.273.263.378.3.662.252a1.194,1.194,0,0,0,.463-.2,26.269,26.269,0,0,0,1.062-2.628,26.565,26.565,0,0,1,1.009-2.5,2.031,2.031,0,0,1,.463.336l.379.336.547,2.586c.294,1.419.526,2.607.5,2.629a3.256,3.256,0,0,1-.715-.137,5.807,5.807,0,0,0-.915-.168,19.775,19.775,0,0,0-3.291,2.544c-.463.452-.5.526-.442.841a.82.82,0,0,0,1.325.536c.147-.095.8-.631,1.461-1.178l1.2-.988,1.167.273a11.006,11.006,0,0,0,1.451.284.782.782,0,0,0,.715-.746c0-.231-.725-3.922-1-5.11-.053-.2.095-.147,1.241.452,1.4.725,1.819.82,2.176.463a.917.917,0,0,0,.021-1.136,24.462,24.462,0,0,0-2.176-1.22,11.6,11.6,0,0,1-2.807-1.777l-.82-.736v-2.4l.5-.757c2.6-3.869,3.69-9.063,2.681-12.848a10.6,10.6,0,0,0-1.556-3.123,8.205,8.205,0,0,0-3.7-2.492C270.3-481.019,269.789-481.009,269.494-480.7Z" transform="translate(-240.875 -27.795)" fill="#007889"/>
    <path id="Path_83546" data-name="Path 83546" d="M64-215.406a4.806,4.806,0,0,0-2.25,2.113,4.98,4.98,0,0,0-.421,1.125C61.23-211.558,60-198.226,60-197.8a.87.87,0,0,0,.736.873c.368.074.368.063.168,1.808-.158,1.293-.116,1.567.273,1.84a.73.73,0,0,0,.978-.063c.242-.221.284-.368.442-1.808l.179-1.556.484.063c.263.042.883.095,1.4.137.862.063.936.053,1.178-.179a.8.8,0,0,0-.273-1.346,19.355,19.355,0,0,0-2.008-.284l-1.766-.189v-.326c0-.736,1.167-12.869,1.272-13.258a3.119,3.119,0,0,1,.831-1.283,8.2,8.2,0,0,1,.841-.515c.957-.536,1.051-.641,1.051-1.1a.646.646,0,0,0-.273-.61C65.12-215.9,64.9-215.869,64-215.406Z" transform="translate(-53.692 -265.063)" fill="#007889"/>
    <path id="Path_83547" data-name="Path 83547" d="M394.619-215.779a.646.646,0,0,0-.273.61c0,.473.116.589,1.072,1.114a3.174,3.174,0,0,1,1.588,1.64c.116.3.368,2.544.757,6.771.315,3.47.578,6.466.578,6.655,0,.252-.042.336-.179.336-.105,0-.967.095-1.9.2-1.482.179-1.756.242-1.977.442a.805.805,0,0,0,.61,1.377c.189,0,.81-.053,1.377-.126a8.125,8.125,0,0,1,1.062-.084c.021.021.105.715.2,1.556.158,1.409.189,1.546.442,1.756a.72.72,0,0,0,.978.074c.379-.263.421-.536.273-1.777-.21-1.756-.2-1.8.168-1.871a.874.874,0,0,0,.736-.852c0-.6-1.251-13.857-1.367-14.446a4.492,4.492,0,0,0-1.262-2.271A7.3,7.3,0,0,0,395.1-216,.972.972,0,0,0,394.619-215.779Z" transform="translate(-352.605 -264.879)" fill="#007889"/>
    <path id="Path_83548" data-name="Path 83548" d="M279.231-144.758c-.221.231-.231.326-.231,2.565,0,2.124.021,2.345.2,2.565l.2.252,3.7.032,3.69.032.3-.315.315-.3v-2.176c0-2.25-.074-2.671-.473-2.828-.095-.032-1.819-.063-3.827-.063h-3.659Zm6.5,2.6V-141h-5.047v-2.313h5.047Z" transform="translate(-249.666 -328.414)" fill="#007889"/>
  </g>
</svg>
