<svg xmlns="http://www.w3.org/2000/svg" width="60.5" height="60.501" viewBox="0 0 60.5 60.501">
  <g id="auction" transform="translate(-7.9 503.913)">
    <path id="Path_83643" data-name="Path 83643" d="M11.644-503.789a5.74,5.74,0,0,0-2.4,1.417,6.338,6.338,0,0,0-.878,1.356l-.39.818-.037,4.665L7.9-490.857l.3.305.3.305h7.207l.024,21.591.037,21.591.451.928a4.69,4.69,0,0,0,2.39,2.333l.817.391H56.888l.927-.452a4.69,4.69,0,0,0,2.329-2.394,4.612,4.612,0,0,0,.427-2.552c.049-1.722.049-1.734-.256-2.039s-.354-.318-1.976-.318H56.693V-461l3.939,3.945c3.634,3.627,3.963,3.932,4.354,3.932.366,0,.585-.171,1.915-1.5s1.5-1.551,1.5-1.917c0-.391-.4-.818-5.756-6.192l-5.768-5.776.39-.379.378-.391.329.269c.7.537.927.427,2.829-1.49,1.561-1.563,1.744-1.783,1.744-2.162s-.256-.672-2.927-3.358l-2.915-2.931-.037-9.77-.037-9.77-.317-.806a6.66,6.66,0,0,0-1.72-2.674,7.2,7.2,0,0,0-3.439-1.82C50.242-503.96,12.351-503.948,11.644-503.789Zm2.049,1.966a3.624,3.624,0,0,1,1.878,1.881,27.823,27.823,0,0,1,.146,4.128v3.615H9.863v-3.615a27.823,27.823,0,0,1,.146-4.128,3.891,3.891,0,0,1,1.8-1.868A3.386,3.386,0,0,1,13.693-501.823Zm38.269.366a4.69,4.69,0,0,1,2.329,2.394l.39.818.037,8.866.037,8.878-.28.061a15.035,15.035,0,0,0-1.963,1.771c-1.829,1.856-1.951,2.088-1.415,2.772l.268.33-2.7,2.687-2.683,2.7-.329-.269c-.7-.537-.927-.427-2.829,1.49-1.573,1.563-1.744,1.783-1.744,2.162s.28.708,3.7,4.115,3.72,3.7,4.11,3.7.6-.171,2.159-1.746c1.915-1.905,2.024-2.137,1.488-2.833l-.268-.33.39-.379.378-.391.854.855.854.843v11.8H24.12l-.293.305c-.293.281-.3.379-.3,1.661,0,1.759-.134,2.21-.915,2.98a2.647,2.647,0,0,1-2.89.769,3.611,3.611,0,0,1-1.756-1.526c-.22-.452-.232-1.356-.293-26.855l-.061-26.378-.439-.879-.439-.879,17.159.024,17.146.037Zm5.524,26.109,2.683,2.687-.768.757-.756.769-2.707-2.711-2.72-2.723.732-.733a7.016,7.016,0,0,1,.793-.733C54.778-478.034,56.01-476.825,57.486-475.347Zm-2.927,2.931,1.707,1.71-2.72,2.723-2.707,2.711-1.732-1.746-1.744-1.734,2.683-2.687c1.476-1.478,2.707-2.687,2.744-2.687S53.62-473.357,54.559-472.416Zm-6.829,6.839,2.683,2.687-.768.757-.756.769-2.707-2.711-2.72-2.723.732-.733a7.022,7.022,0,0,1,.793-.733C45.022-468.264,46.254-467.055,47.73-465.577Zm13.049,3.786,5.244,5.251-.524.513-.512.525-5.268-5.276-5.281-5.288.488-.488a2.9,2.9,0,0,1,.549-.488C55.51-467.043,57.9-464.686,60.778-461.792Zm-2.134,13.262a5.02,5.02,0,0,1-.146,1.2,3.625,3.625,0,0,1-1.878,1.881c-.39.11-4.256.147-16.293.147H24.546l.415-.843a4.062,4.062,0,0,0,.488-1.954l.061-1.111H58.644Z" transform="translate(0 0)" fill="#fff"/>
    <path id="Path_83644" data-name="Path 83644" d="M112-455.024v.976h32.21V-456H112Z" transform="translate(-91.411 -42.067)" fill="#fff"/>
    <path id="Path_83645" data-name="Path 83645" d="M112-423.024v.976h32.21V-424H112Z" transform="translate(-91.411 -70.163)" fill="#fff"/>
    <path id="Path_83646" data-name="Path 83646" d="M112-391.024v.976h32.21V-392H112Z" transform="translate(-91.411 -98.246)" fill="#fff"/>
    <path id="Path_83647" data-name="Path 83647" d="M112-359.024v.976h32.21V-360H112Z" transform="translate(-91.411 -126.337)" fill="#fff"/>
    <path id="Path_83648" data-name="Path 83648" d="M112-327.024v.976h32.21V-328H112Z" transform="translate(-91.411 -154.43)" fill="#fff"/>
    <path id="Path_83649" data-name="Path 83649" d="M112-295.024v.976h28.305V-296H112Z" transform="translate(-91.41 -182.521)" fill="#fff"/>
    <path id="Path_83650" data-name="Path 83650" d="M112-263.024v.976h26.353V-264H112Z" transform="translate(-91.409 -210.613)" fill="#fff"/>
    <path id="Path_83651" data-name="Path 83651" d="M111.874-231.506a8.554,8.554,0,0,0-4.636,2.489,8.543,8.543,0,0,0-2.22,3.55,6.578,6.578,0,0,0-.317,2.623,6.578,6.578,0,0,0,.317,2.623,8.4,8.4,0,0,0,2.22,3.538,8.4,8.4,0,0,0,3.538,2.221,6.577,6.577,0,0,0,2.623.317,6.577,6.577,0,0,0,2.623-.317,8.4,8.4,0,0,0,3.538-2.221,8.4,8.4,0,0,0,2.22-3.538,6.578,6.578,0,0,0,.317-2.623,6.578,6.578,0,0,0-.317-2.623,8.4,8.4,0,0,0-2.22-3.538,8.015,8.015,0,0,0-5.8-2.562A12.053,12.053,0,0,0,111.874-231.506Zm2.818,1.964a7.036,7.036,0,0,1,5.246,4.746,8.128,8.128,0,0,1,0,3.9,7.06,7.06,0,0,1-4.587,4.587,8.128,8.128,0,0,1-3.9,0,6.858,6.858,0,0,1-4.783-7.528,6.8,6.8,0,0,1,3.721-5.1A6.521,6.521,0,0,1,114.692-229.542Z" transform="translate(-84.997 -239.065)" fill="#fff"/>
    <path id="Path_83652" data-name="Path 83652" d="M140.172-199.582a5.956,5.956,0,0,0-2.4,1.427,6.328,6.328,0,0,0-.878,1.354,3.4,3.4,0,0,0-.39,1.989,3.356,3.356,0,0,0,.451,2.086,4.689,4.689,0,0,0,2.391,2.33,3.383,3.383,0,0,0,1.976.39,3.383,3.383,0,0,0,1.977-.39,4.689,4.689,0,0,0,2.391-2.33,3.374,3.374,0,0,0,.451-2.1,3.375,3.375,0,0,0-.451-2.1,4.718,4.718,0,0,0-4.1-2.733A6.747,6.747,0,0,0,140.172-199.582Zm2.05,1.976a3.233,3.233,0,0,1,2.025,2.782,3.073,3.073,0,0,1-2.928,2.928,3.073,3.073,0,0,1-2.928-2.928,2.669,2.669,0,0,1,.915-2.013A2.693,2.693,0,0,1,142.222-197.605Z" transform="translate(-112.918 -267.088)" fill="#fff"/>
    <path id="Path_83653" data-name="Path 83653" d="M268.429-127.813a3.284,3.284,0,0,0-.671.781,5.983,5.983,0,0,1-1.1,1.171,5.568,5.568,0,0,1-2.367.891c-.281,0-.293.024-.293.976v.976h.342a7.213,7.213,0,0,0,3.66-1.4l.439-.39.512.525a6.241,6.241,0,0,0,1.159.866c.647.329.7.342,3.136.378l2.464.049v-1.964l-2.306-.037c-2.111-.037-2.342-.061-2.648-.293a2.026,2.026,0,0,1-.891-1.513,1.374,1.374,0,0,0-.378-.878A1.166,1.166,0,0,0,268.429-127.813Z" transform="translate(-224.871 -330.103)" fill="#fff"/>
  </g>
</svg>
