<svg xmlns="http://www.w3.org/2000/svg" width="19.684" height="22.411" viewBox="0 0 19.684 22.411">
  <path id="Icon_awesome-calendar-alt" data-name="Icon awesome-calendar-alt" d="M0,19.766a2.045,2.045,0,0,0,2.045,2.045H17.039a2.045,2.045,0,0,0,2.045-2.045V8.179H0Zm13.632-8.349a.513.513,0,0,1,.511-.511h1.7a.513.513,0,0,1,.511.511v1.7a.513.513,0,0,1-.511.511h-1.7a.513.513,0,0,1-.511-.511Zm0,5.453a.513.513,0,0,1,.511-.511h1.7a.513.513,0,0,1,.511.511v1.7a.513.513,0,0,1-.511.511h-1.7a.513.513,0,0,1-.511-.511ZM8.179,11.416a.513.513,0,0,1,.511-.511h1.7a.513.513,0,0,1,.511.511v1.7a.513.513,0,0,1-.511.511H8.69a.513.513,0,0,1-.511-.511Zm0,5.453a.513.513,0,0,1,.511-.511h1.7a.513.513,0,0,1,.511.511v1.7a.513.513,0,0,1-.511.511H8.69a.513.513,0,0,1-.511-.511ZM2.726,11.416a.513.513,0,0,1,.511-.511h1.7a.513.513,0,0,1,.511.511v1.7a.513.513,0,0,1-.511.511h-1.7a.513.513,0,0,1-.511-.511Zm0,5.453a.513.513,0,0,1,.511-.511h1.7a.513.513,0,0,1,.511.511v1.7a.513.513,0,0,1-.511.511h-1.7a.513.513,0,0,1-.511-.511ZM17.039,2.726H14.995V.682A.684.684,0,0,0,14.313,0H12.95a.684.684,0,0,0-.682.682V2.726H6.816V.682A.684.684,0,0,0,6.134,0H4.771a.684.684,0,0,0-.682.682V2.726H2.045A2.045,2.045,0,0,0,0,4.771V6.816H19.084V4.771A2.045,2.045,0,0,0,17.039,2.726Z" transform="translate(0.3 0.3)" fill="none" stroke="#505050" stroke-width="0.6"/>
</svg>
