<svg xmlns="http://www.w3.org/2000/svg" width="66" height="66.001" viewBox="0 0 66 66.001">
  <g id="contract" transform="translate(-16 495.988)">
    <path id="Path_83559" data-name="Path 83559" d="M29.2-495.811a4.383,4.383,0,0,0-2.035,2.1c-.124.426-.165,3.506-.165,12.346v11.768H22.393l-2.956,1.182a19.1,19.1,0,0,0-3.19,1.457c-.234.261-.247.866-.247,8.318,0,4.8.055,8.125.124,8.276a15.453,15.453,0,0,0,2.048,1.5l1.911,1.265H27v7.369a72.4,72.4,0,0,0,.165,7.947,4.083,4.083,0,0,0,2.117,2.117c.825.234,36.405.234,37.23,0a4.083,4.083,0,0,0,2.117-2.117c.247-.825.247-60.6,0-61.427a4.083,4.083,0,0,0-2.117-2.117C65.741-496.044,29.927-496.044,29.2-495.811Zm37.051,2.365.344.33v60.245l-.344.33-.33.344H29.872l-.33-.344-.344-.33V-460.78l3.891-.041,3.877-.041.866-.467a4,4,0,0,0,1.925-1.993,3.264,3.264,0,0,0,.357-1.87,3.042,3.042,0,0,0-.454-2.035,4.217,4.217,0,0,0-2.076-1.98c-.591-.3-.8-.316-4.5-.357l-3.891-.041v-23.51l.344-.33.33-.344H65.92Zm-29.27,26.41a1.941,1.941,0,0,1,.949,1.842,1.941,1.941,0,0,1-.949,1.842c-.357.275-.591.289-6.022.357l-5.637.069-.261.33a1.42,1.42,0,0,0-.261.729,3.55,3.55,0,0,1-3.08,3.272c-.179,0-.22.179-.22,1.114v1.127l.729-.1a5.9,5.9,0,0,0,3.822-2.378,8.367,8.367,0,0,0,.619-1.265l.33-.77V-449.8H20.757l-1.279-.839-1.279-.852v-14.065l2.241-.907,2.227-.907,6.97.014C36.444-467.324,36.608-467.324,36.98-467.036Z" transform="translate(0 0)" fill="#6e5924"/>
    <path id="Path_83560" data-name="Path 83560" d="M173.631-461.63a58.538,58.538,0,0,0-5.338,2.573c-.234.261-.248.592-.206,4.9.055,5.159.1,5.434,1.169,7.457.715,1.376,1.348,2.05,5.544,5.778,3.219,2.862,3.921,3.426,4.265,3.426.44,0,.371.055,5.366-4.389,3-2.669,3.77-3.495,4.458-4.815,1.059-2.022,1.1-2.311,1.156-7.457.041-4.306.028-4.623-.206-4.9-.289-.344-10.387-4.857-10.827-4.843C178.859-463.9,176.437-462.868,173.631-461.63Zm9.892,1.995,4.348,1.954v3.522c0,4.609-.206,5.558-1.61,7.471-.454.619-6.948,6.507-7.182,6.507s-6.92-6.04-7.292-6.59c-1.348-1.967-1.527-2.807-1.527-7.319v-3.6l4.306-1.926c2.353-1.059,4.361-1.94,4.444-1.94S181.129-460.695,183.523-459.635Z" transform="translate(-131.165 -27.673)" fill="#6e5924"/>
    <path id="Path_83561" data-name="Path 83561" d="M226.131-408.276l-2.71,2.71-1.169-1.169-1.169-1.169-.8.8-.784.784,1.734,1.72c1.527,1.527,1.775,1.72,2.187,1.72s.77-.289,3.742-3.274l3.274-3.261-.784-.784-.8-.8Z" transform="translate(-175.522 -73.305)" fill="#6e5924"/>
    <path id="Path_83562" data-name="Path 83562" d="M144-206.9v1.1h4.4V-208H144Z" transform="translate(-110.401 -248.395)" fill="#6e5924"/>
    <path id="Path_83563" data-name="Path 83563" d="M192-206.9v1.1h22.013V-208H192Z" transform="translate(-151.807 -248.395)" fill="#6e5924"/>
    <path id="Path_83564" data-name="Path 83564" d="M144-158.9v1.1h4.4V-160H144Z" transform="translate(-110.401 -289.796)" fill="#6e5924"/>
    <path id="Path_83565" data-name="Path 83565" d="M192-158.9v1.1h22.013V-160H192Z" transform="translate(-151.807 -289.796)" fill="#6e5924"/>
    <path id="Path_83566" data-name="Path 83566" d="M144-110.9v1.1h4.4V-112H144Z" transform="translate(-110.401 -331.197)" fill="#6e5924"/>
    <path id="Path_83567" data-name="Path 83567" d="M192-110.9v1.1h22.013V-112H192Z" transform="translate(-151.807 -331.197)" fill="#6e5924"/>
    <path id="Path_83568" data-name="Path 83568" d="M144-62.9v1.1h4.4V-64H144Z" transform="translate(-110.401 -372.601)" fill="#6e5924"/>
    <path id="Path_83569" data-name="Path 83569" d="M192-62.9v1.1h22.013V-64H192Z" transform="translate(-151.807 -372.601)" fill="#6e5924"/>
    <path id="Path_83570" data-name="Path 83570" d="M418.2-383.773a4.386,4.386,0,0,0-2.036,2.1c-.124.44-.165,5.049-.165,19.605l.014,19.041,1.156,4.609c1.238,4.925,1.307,5.09,2.132,5.09s.894-.165,2.133-5.09l1.156-4.609.014-16.069v-16.056h2.2v9.906h2.2v-11.433l-.344-.33c-.316-.33-.4-.344-2.2-.344H422.6v-1.871c0-2.243-.138-2.752-.922-3.632A3.23,3.23,0,0,0,418.2-383.773Zm1.857,2.366c.33.316.344.4.344,2.2v1.857h-2.2v-1.857c0-1.8.014-1.885.344-2.2a1.072,1.072,0,0,1,.757-.344A1.073,1.073,0,0,1,420.059-381.407Zm.344,21.669v15.409h-2.2v-30.818h2.2Zm-.66,19.055a8.54,8.54,0,0,1-.44,1.445,8.559,8.559,0,0,1-.44-1.445l-.344-1.445h1.568Z" transform="translate(-345.006 -96.675)" fill="#6e5924"/>
  </g>
</svg>
