<svg xmlns="http://www.w3.org/2000/svg" width="59.285" height="78.547" viewBox="0 0 59.285 78.547">
  <path id="Icon_awesome-file-invoice" data-name="Icon awesome-file-invoice" d="M43.339,38.523H14.446v9.631H43.339ZM56.732,15.8,42,1.053A3.609,3.609,0,0,0,39.441,0h-.918V19.262H57.785v-.918A3.6,3.6,0,0,0,56.732,15.8ZM33.708,20.466V0H3.612A3.6,3.6,0,0,0,0,3.612V73.435a3.6,3.6,0,0,0,3.612,3.612H54.174a3.6,3.6,0,0,0,3.612-3.612V24.077H37.32A3.622,3.622,0,0,1,33.708,20.466ZM9.631,10.835a1.2,1.2,0,0,1,1.2-1.2H22.873a1.2,1.2,0,0,1,1.2,1.2v2.408a1.2,1.2,0,0,1-1.2,1.2H10.835a1.2,1.2,0,0,1-1.2-1.2Zm0,9.631a1.2,1.2,0,0,1,1.2-1.2H22.873a1.2,1.2,0,0,1,1.2,1.2v2.408a1.2,1.2,0,0,1-1.2,1.2H10.835a1.2,1.2,0,0,1-1.2-1.2ZM48.154,66.212a1.2,1.2,0,0,1-1.2,1.2H34.912a1.2,1.2,0,0,1-1.2-1.2V63.8a1.2,1.2,0,0,1,1.2-1.2H46.95a1.2,1.2,0,0,1,1.2,1.2Zm0-30.1V50.562a2.407,2.407,0,0,1-2.408,2.408H12.039a2.407,2.407,0,0,1-2.408-2.408V36.116a2.407,2.407,0,0,1,2.408-2.408H45.747A2.407,2.407,0,0,1,48.154,36.116Z" transform="translate(0.75 0.75)" fill="none" stroke="#fff" stroke-width="1.5"/>
</svg>
