<svg xmlns="http://www.w3.org/2000/svg" xmlns:xlink="http://www.w3.org/1999/xlink" width="175" height="117" viewBox="0 0 175 117">
  <defs>
    <linearGradient id="linear-gradient" x1="1" y1="0.582" x2="0" y2="0.57" gradientUnits="objectBoundingBox">
      <stop offset="0" stop-color="#0e8a8a"/>
      <stop offset="1" stop-color="#153536"/>
    </linearGradient>
  </defs>
  <g id="Group_17931" data-name="Group 17931" transform="translate(-611.781 -796)">
    <rect id="Rectangle_2494" data-name="Rectangle 2494" width="175" height="117" rx="6" transform="translate(611.781 796)" fill="url(#linear-gradient)"/>
    <g id="logo_header" transform="translate(621.898 827.979)">
      <g id="lYg6nJ_3_" transform="translate(59.747 9.261)">
        <g id="XMLID_498_" transform="translate(0 0)">
          <path id="XMLID_508_" d="M292.022,53.346c.066-.437.131-.875.219-1.291a5.621,5.621,0,0,1,4.979-4.269,8.787,8.787,0,0,1,4.521.437,5.3,5.3,0,0,1,3.319,3.915.493.493,0,0,1,.022.187c-.065,0-.109.021-.153.021h-3.276a.267.267,0,0,1-.284-.146,2.885,2.885,0,0,0-3.189-1.666,2.591,2.591,0,0,0-2.337,1.936,4.756,4.756,0,0,0,.109,3.207,2.337,2.337,0,0,0,1.966,1.541,3.716,3.716,0,0,0,2.664-.458,2.075,2.075,0,0,0,.764-.833h-2.774v-2.27h6.574v6.268h-2.774V58.448a.712.712,0,0,0-.153.083,4.666,4.666,0,0,1-3.669,1.562,7.262,7.262,0,0,1-3.953-.958,5.371,5.371,0,0,1-2.446-3.665c-.065-.333-.109-.666-.153-1C292.022,54.116,292.022,53.721,292.022,53.346Z" transform="translate(-292 -47.628)" fill="#fff"/>
          <path id="XMLID_505_" d="M376.105,53.718a6.965,6.965,0,0,1-.743,3.165,5.447,5.447,0,0,1-3.494,2.707,8.822,8.822,0,0,1-5.089-.042,5.441,5.441,0,0,1-4-4.56,7.154,7.154,0,0,1,.2-3.394,5.439,5.439,0,0,1,3.844-3.769,8.751,8.751,0,0,1,5.22.021,5.463,5.463,0,0,1,3.975,4.623C376.061,52.906,376.061,53.3,376.105,53.718Zm-9.784,0v.354a3.7,3.7,0,0,0,.568,1.832,2.9,2.9,0,0,0,2.8,1.187,2.714,2.714,0,0,0,2.4-1.562,4.359,4.359,0,0,0,.218-3.019,2.735,2.735,0,0,0-2.468-2.145,2.942,2.942,0,0,0-3.123,1.478A3.636,3.636,0,0,0,366.321,53.718Z" transform="translate(-347.234 -47.437)" fill="#fff"/>
          <path id="XMLID_504_" d="M509.765,55.682h3.6v.479a1.072,1.072,0,0,0,.874,1.124,4.791,4.791,0,0,0,2.031.167,4.476,4.476,0,0,0,1.048-.229,1.681,1.681,0,0,0,.633-.458.71.71,0,0,0-.284-1.145,9.549,9.549,0,0,0-1.681-.458,18.646,18.646,0,0,1-3.56-.77,4.649,4.649,0,0,1-1.266-.708,3.21,3.21,0,0,1,.218-5.018,5.621,5.621,0,0,1,2.446-.937,10.534,10.534,0,0,1,4.63.229,6.345,6.345,0,0,1,1.332.6,3.057,3.057,0,0,1,1.376,3.04h-3.582c0-.083-.022-.167-.022-.229a.979.979,0,0,0-.742-1.02,3.655,3.655,0,0,0-2.4,0,1.487,1.487,0,0,0-.59.437.622.622,0,0,0,.24,1.02,8.444,8.444,0,0,0,1.572.458,23.987,23.987,0,0,1,3.407.666,4.134,4.134,0,0,1,1.988,1.208,3.367,3.367,0,0,1-1.07,5.06,6.149,6.149,0,0,1-2.512.75,12.387,12.387,0,0,1-4.63-.229,5.973,5.973,0,0,1-1.551-.666,3.022,3.022,0,0,1-1.507-2.582C509.743,56.223,509.765,55.974,509.765,55.682Z" transform="translate(-462.2 -47.548)" fill="#fff"/>
          <path id="XMLID_501_" d="M582.7,60.677h-3.6c-.218-.541-.458-1.062-.677-1.6a.315.315,0,0,0-.349-.229h-5.285a.289.289,0,0,0-.328.208c-.2.5-.393.979-.612,1.478a.306.306,0,0,1-.2.167h-3.385c-.022,0-.022-.021-.065-.021a.993.993,0,0,1,.087-.229c1.616-3.873,3.254-7.725,4.87-11.6a.322.322,0,0,1,.371-.25c1.289.021,2.577,0,3.887,0a.29.29,0,0,1,.328.208c1.638,3.915,3.276,7.808,4.914,11.723A.287.287,0,0,0,582.7,60.677Zm-5.372-4.352c-.022-.083-.044-.167-.065-.229l-1.638-4.123c-.022-.083-.131-.125-.175-.208a1.628,1.628,0,0,0-.2.187c-.546,1.374-1.092,2.769-1.638,4.144-.022.062-.044.125-.065.208C574.817,56.325,576.062,56.325,577.329,56.325Z" transform="translate(-507.88 -48.358)" fill="#fff"/>
          <path id="XMLID_500_" d="M440.956,48.362c-.044.125-.066.208-.087.292-1.354,3.831-2.73,7.683-4.084,11.515a.342.342,0,0,1-.393.271c-1.4-.021-2.8,0-4.193,0-.175,0-.24-.042-.284-.208q-2.064-5.841-4.149-11.681a1.934,1.934,0,0,1-.066-.187h3.6l.721,2.249c.677,2.124,1.354,4.248,2.053,6.372.044.125.044.25.24.25.218,0,.2-.146.24-.271.9-2.811,1.813-5.6,2.708-8.412.065-.187.131-.25.328-.25h3.079A.629.629,0,0,0,440.956,48.362Z" transform="translate(-398.064 -48.12)" fill="#fff"/>
          <path id="XMLID_499_" d="M488.586,95.207a1.622,1.622,0,0,1-1.769-1.083A1.573,1.573,0,0,1,488.455,92a2.84,2.84,0,0,1,.721.083,1.466,1.466,0,0,1,1.136,1.707,1.529,1.529,0,0,1-1.419,1.4A1.74,1.74,0,0,1,488.586,95.207Z" transform="translate(-444.209 -82.721)" fill="#fff"/>
        </g>
      </g>
      <g id="Group_17844" data-name="Group 17844" transform="translate(58.29 28.743)">
        <path id="Path_83415" data-name="Path 83415" d="M294.664,148.951c-1.922,0-2.664-.854-2.664-2.186a2.353,2.353,0,0,1,2.6-2.395,1.981,1.981,0,0,1,2.249,2.186v2.395Zm-.983-6.351a.625.625,0,1,1-.655.625A.672.672,0,0,1,293.682,142.6Zm1.9,4.1c0-.958-.393-1.353-1.07-1.353a1.164,1.164,0,0,0-1.179,1.291c0,.9.459,1.333,1.485,1.333h.764Zm-.306-4.1a.625.625,0,1,1-.655.625A.672.672,0,0,1,295.276,142.6Z" transform="translate(-292 -142.267)" fill="#fff"/>
        <path id="Path_83416" data-name="Path 83416" d="M318.6,154.306h2.948a2.688,2.688,0,0,0-2.359-2.665l.328-1.041c2.053.521,3.188,1.582,3.32,3.706h.568v.979h-4.783v-.979Z" transform="translate(-312.791 -148.601)" fill="#fff"/>
        <path id="Path_83417" data-name="Path 83417" d="M337.69,155.839c-.2,0-.59-.187-.59-.5,0-.292.393-.5.59-.5h3.472c.022-.229.044-.479.044-.729,0-1.208-.524-1.832-1.944-1.832a6.307,6.307,0,0,0-1.114.1V151.4a7.683,7.683,0,0,1,1.245-.1c2.249,0,3.123.937,3.123,2.769a9.181,9.181,0,0,1-.175,1.749H337.69Z" transform="translate(-327.25 -149.155)" fill="#fff"/>
        <path id="Path_83418" data-name="Path 83418" d="M368.387,157.951l.087-1.02a8.624,8.624,0,0,0,1.551.167c1.026,0,1.725-.375,1.725-1.27v-.146h-.786c-1.922,0-2.664-.854-2.664-2.207a2.332,2.332,0,0,1,2.621-2.374,6.792,6.792,0,0,1,2.1.333V154.7h1.026v.979h-1.026v.021c0,1.312-.9,2.374-3.123,2.374A10.767,10.767,0,0,1,368.387,157.951Zm3.341-5.705a2.5,2.5,0,0,0-.939-.167,1.164,1.164,0,0,0-1.179,1.291c0,.854.459,1.333,1.485,1.333h.633Z" transform="translate(-351.637 -148.997)" fill="#fff"/>
        <path id="Path_83419" data-name="Path 83419" d="M393.328,154.873c-.175.437-.568.729-1.419.729h-.218c-.2,0-.59-.187-.59-.5,0-.292.393-.5.59-.5h.065c.59,0,.983-.312.983-1.291a2.337,2.337,0,0,1,2.6-2.311,1.991,1.991,0,0,1,2.249,2.186V154.6h.786v.979h-2.839C394.136,155.6,393.677,155.31,393.328,154.873Zm2.992-1.52c0-.958-.393-1.353-1.07-1.353a1.164,1.164,0,0,0-1.179,1.291c0,.9.458,1.333,1.485,1.333h.764Z" transform="translate(-369.457 -148.918)" fill="#fff"/>
        <path id="Path_83420" data-name="Path 83420" d="M421.69,147.684c-.2,0-.59-.187-.59-.5,0-.292.393-.5.59-.5h1.179V141h1.31v6.684Z" transform="translate(-392.906 -141)" fill="#fff"/>
        <path id="Path_83421" data-name="Path 83421" d="M442.5,141h1.31v6.684H442.5Z" transform="translate(-409.632 -141)" fill="#fff"/>
        <path id="Path_83422" data-name="Path 83422" d="M467.064,148.951c-1.922,0-2.664-.854-2.664-2.207a2.332,2.332,0,0,1,2.621-2.374,6.791,6.791,0,0,1,2.1.333v3.269h1.026v.979Zm-.939-6.351a.625.625,0,1,1-.655.625A.672.672,0,0,1,466.125,142.6Zm1.747,2.915a2.494,2.494,0,0,0-.939-.167,1.165,1.165,0,0,0-1.179,1.291c0,.854.459,1.333,1.485,1.333h.633Zm-.153-2.915a.625.625,0,1,1-.655.625A.657.657,0,0,1,467.719,142.6Z" transform="translate(-426.749 -142.267)" fill="#fff"/>
        <path id="Path_83423" data-name="Path 83423" d="M487.4,155.577c0-.292.393-.5.59-.5h1.179V151.6h1.31v3.477h1.027v.979H487.99C487.793,156.077,487.4,155.889,487.4,155.577Zm1.616,1.187a.625.625,0,1,1-.655.625A.629.629,0,0,1,489.016,156.764Zm1.594,0a.625.625,0,1,1-.655.625A.629.629,0,0,1,490.61,156.764Z" transform="translate(-444.726 -149.393)" fill="#fff"/>
        <path id="Path_83424" data-name="Path 83424" d="M502.8,148.451c0-.292.393-.5.59-.5h1.179v-3.477h1.31v3.477h1.026v.979H503.39C503.193,148.951,502.8,148.763,502.8,148.451Zm2.424-5.851a.665.665,0,0,1,.677.645.678.678,0,0,1-1.354,0A.665.665,0,0,1,505.224,142.6Z" transform="translate(-456.763 -142.267)" fill="#fff"/>
        <path id="Path_83425" data-name="Path 83425" d="M518.79,147.684c-.2,0-.59-.187-.59-.5,0-.292.393-.5.59-.5h1.179V141h1.31v2.478a7.637,7.637,0,0,1-.109,1.4h.022a2.681,2.681,0,0,1,2.512-1.77,1.924,1.924,0,0,1,2.1,2.145c0,1.374-.83,2.436-3.036,2.436Zm4.084-.979c1.245,0,1.572-.6,1.572-1.374s-.327-1.229-1.026-1.229c-1.07,0-1.965,1.27-2.162,2.6Z" transform="translate(-468.8 -141)" fill="#fff"/>
        <path id="Path_83426" data-name="Path 83426" d="M557.587,157.951l.088-1.02a8.625,8.625,0,0,0,1.551.167c1.026,0,1.725-.375,1.725-1.27v-.146h-.786c-1.922,0-2.664-.854-2.664-2.207a2.332,2.332,0,0,1,2.621-2.374,6.79,6.79,0,0,1,2.1.333V154.7h1.026v.979h-1.026v.021c0,1.312-.9,2.374-3.123,2.374A10.77,10.77,0,0,1,557.587,157.951Zm3.342-5.705a2.5,2.5,0,0,0-.939-.167,1.164,1.164,0,0,0-1.179,1.291c0,.854.459,1.333,1.485,1.333h.633Z" transform="translate(-499.517 -148.997)" fill="#fff"/>
        <path id="Path_83427" data-name="Path 83427" d="M580.99,147.684c-.2,0-.59-.187-.59-.5,0-.292.393-.5.59-.5h1.179V141h1.31v6.684Z" transform="translate(-517.416 -141)" fill="#fff"/>
        <path id="Path_83428" data-name="Path 83428" d="M601.8,141h1.31v6.684H601.8Z" transform="translate(-534.142 -141)" fill="#fff"/>
        <path id="Path_83429" data-name="Path 83429" d="M626.364,148.951c-1.922,0-2.664-.854-2.664-2.207a2.332,2.332,0,0,1,2.621-2.374,6.793,6.793,0,0,1,2.1.333v3.269h1.026v.979Zm-.939-6.351a.625.625,0,1,1-.655.625A.642.642,0,0,1,625.425,142.6Zm1.725,2.915a2.493,2.493,0,0,0-.939-.167,1.164,1.164,0,0,0-1.18,1.291c0,.854.459,1.333,1.485,1.333h.633Zm-.131-2.915a.625.625,0,1,1-.655.625A.642.642,0,0,1,627.02,142.6Z" transform="translate(-551.26 -142.267)" fill="#fff"/>
        <path id="Path_83430" data-name="Path 83430" d="M647.29,155.523c-.2,0-.59-.187-.59-.5,0-.291.393-.5.59-.5h1.179v-3.477h1.311v.229a7.653,7.653,0,0,1-.109,1.4h.022a2.68,2.68,0,0,1,2.511-1.77,1.924,1.924,0,0,1,2.1,2.145,2.3,2.3,0,0,1-.437,1.437h1.07v.979H647.29Zm4.062-.979c1.245,0,1.572-.6,1.572-1.374s-.328-1.229-1.026-1.229c-1.07,0-1.965,1.27-2.162,2.6Z" transform="translate(-569.237 -148.839)" fill="#fff"/>
        <path id="Path_83431" data-name="Path 83431" d="M681,148.451c0-.292.393-.5.59-.5h1.179v-3.477h1.31v3.477h1.026v.979H681.59C681.393,148.951,681,148.763,681,148.451Zm2.424-5.851a.665.665,0,0,1,.677.645.678.678,0,1,1-.677-.645Z" transform="translate(-596.046 -142.267)" fill="#fff"/>
        <path id="Path_83432" data-name="Path 83432" d="M698.627,154.873c-.175.437-.568.729-1.419.729h-.218c-.2,0-.59-.187-.59-.5,0-.292.393-.5.59-.5h.066c.589,0,.983-.312.983-1.291a2.337,2.337,0,0,1,2.6-2.311,1.991,1.991,0,0,1,2.249,2.186V154.6h.786v.979h-2.839C699.414,155.6,698.977,155.31,698.627,154.873Zm2.97-1.52c0-.958-.393-1.353-1.07-1.353a1.164,1.164,0,0,0-1.179,1.291c0,.9.458,1.333,1.485,1.333h.764Z" transform="translate(-608.083 -148.918)" fill="#fff"/>
        <path id="Path_83433" data-name="Path 83433" d="M726.99,147.684c-.2,0-.59-.187-.59-.5,0-.292.393-.5.59-.5h1.179V141h1.31v6.684Z" transform="translate(-631.531 -141)" fill="#fff"/>
        <path id="Path_83434" data-name="Path 83434" d="M747.8,141h1.31v6.684H747.8Z" transform="translate(-648.257 -141)" fill="#fff"/>
      </g>
      <g id="Group_17845" data-name="Group 17845" transform="translate(58.29 40.924)">
        <path id="Path_83435" data-name="Path 83435" d="M294.38,207.955c-1.944,0-2.38-1-2.38-2.124V202h1.179v3.748c0,.729.262,1.249,1.267,1.249.917,0,1.289-.354,1.289-1.353V202h1.179v3.581C296.936,207.206,296,207.955,294.38,207.955Z" transform="translate(-292 -201.479)" fill="#fff"/>
        <path id="Path_83436" data-name="Path 83436" d="M322.874,213.573v-2.749c0-.437-.131-.708-.568-.708-.59,0-1.048.625-1.048,1.4v2.082H320.1v-4.31h1.092a4.8,4.8,0,0,1-.065.77h0a1.666,1.666,0,0,1,1.529-.854,1.219,1.219,0,0,1,1.354,1.374v3.019h-1.136Z" transform="translate(-313.963 -207.18)" fill="#fff"/>
        <path id="Path_83437" data-name="Path 83437" d="M344.621,201.333a.668.668,0,1,1,.721-.666A.708.708,0,0,1,344.621,201.333Zm-.59,4.956v-4.31h1.157v4.31Z" transform="translate(-332.566 -199.896)" fill="#fff"/>
        <path id="Path_83438" data-name="Path 83438" d="M356.332,200.479a1.786,1.786,0,0,0-.568-.083c-.5,0-.742.25-.742.833v.354h1.048v.854h-1.026v3.456h-1.157v-3.456H353.1v-.854h.786v-.354c0-1.166.568-1.728,1.791-1.728a4.467,4.467,0,0,1,.743.062Z" transform="translate(-339.756 -199.5)" fill="#fff"/>
        <path id="Path_83439" data-name="Path 83439" d="M370.421,201.333a.668.668,0,1,1,.721-.666A.708.708,0,0,1,370.421,201.333Zm-.59,4.956v-4.31h1.157v4.31Z" transform="translate(-352.731 -199.896)" fill="#fff"/>
        <path id="Path_83440" data-name="Path 83440" d="M383.975,211.457h-2.8c0,.77.371,1.166,1.245,1.166a3.656,3.656,0,0,0,1.31-.25l.131.833a5.28,5.28,0,0,1-1.638.271A1.966,1.966,0,0,1,380,211.27a2.1,2.1,0,0,1,2.14-2.27,1.7,1.7,0,0,1,1.878,1.832C384.018,211,384,211.27,383.975,211.457Zm-1.9-1.624a.9.9,0,0,0-.9.9h1.682A.762.762,0,0,0,382.075,209.833Z" transform="translate(-360.782 -207.022)" fill="#fff"/>
        <path id="Path_83441" data-name="Path 83441" d="M404.436,206.13c0-.208.022-.479.044-.729h-.022a1.523,1.523,0,0,1-1.419.812c-1.092,0-1.638-.791-1.638-2.02a2.265,2.265,0,0,1,2.38-2.457,2.611,2.611,0,0,1,.568.042V199.8h1.158v6.33h-1.07Zm-.066-3.457a3.21,3.21,0,0,0-.612-.062c-.655,0-1.135.4-1.135,1.458,0,.812.24,1.229.764,1.229.612,0,.983-.666.983-1.416Z" transform="translate(-377.508 -199.737)" fill="#fff"/>
        <path id="Path_83442" data-name="Path 83442" d="M438.716,207.872l-1.9-3.227a8.774,8.774,0,0,1-.546-1.145c.044.521.065,1.936.065,2.79v1.582H435.2v-5.851h1.572l1.856,3.144a8.4,8.4,0,0,1,.59,1.166c-.044-.583-.066-2.02-.066-2.853V202h1.136v5.851h-1.573Z" transform="translate(-403.927 -201.479)" fill="#fff"/>
        <path id="Path_83443" data-name="Path 83443" d="M465.686,213.573a3.976,3.976,0,0,1,.044-.729h0a1.549,1.549,0,0,1-1.441.833A1.187,1.187,0,0,1,463,212.448c0-1.02,1.027-1.5,2.6-1.5V210.8c0-.52-.218-.75-.808-.75a3.849,3.849,0,0,0-1.354.292l-.2-.854a5.262,5.262,0,0,1,1.7-.291c1.4,0,1.813.562,1.813,1.52v1.77a9.32,9.32,0,0,0,.044,1.1h-1.114Zm-.087-1.916c-1.179,0-1.485.271-1.485.645a.512.512,0,0,0,.546.5,1,1,0,0,0,.939-1.041Z" transform="translate(-425.655 -207.18)" fill="#fff"/>
        <path id="Path_83444" data-name="Path 83444" d="M485.1,207.718c-1,0-1.31-.354-1.31-1.353v-2.186H483v-.854h.786v-1.333l1.157-.292v1.624h1.092v.854h-1.092v1.895c0,.562.131.708.546.708a2,2,0,0,0,.524-.063l.087.875A5.766,5.766,0,0,1,485.1,207.718Z" transform="translate(-441.287 -201.242)" fill="#fff"/>
        <path id="Path_83445" data-name="Path 83445" d="M501.321,201.333a.668.668,0,1,1,.721-.666A.708.708,0,0,1,501.321,201.333Zm-.59,4.956v-4.31h1.158v4.31Z" transform="translate(-455.044 -199.896)" fill="#fff"/>
        <path id="Path_83446" data-name="Path 83446" d="M512.918,213.577a1.9,1.9,0,0,1-2.118-2.166,2.21,2.21,0,0,1,2.315-2.311,1.921,1.921,0,0,1,2.118,2.166A2.234,2.234,0,0,1,512.918,213.577Zm.109-3.54c-.524,0-1.026.375-1.026,1.27,0,.875.349,1.333,1,1.333.568,0,1.026-.437,1.026-1.312C514.032,210.474,513.7,210.037,513.028,210.037Z" transform="translate(-463.016 -207.101)" fill="#fff"/>
        <path id="Path_83447" data-name="Path 83447" d="M538.074,213.573v-2.749c0-.437-.131-.708-.568-.708-.59,0-1.048.625-1.048,1.4v2.082H535.3v-4.31h1.092a4.79,4.79,0,0,1-.065.77h0a1.666,1.666,0,0,1,1.529-.854,1.219,1.219,0,0,1,1.354,1.374v3.019h-1.135Z" transform="translate(-482.166 -207.18)" fill="#fff"/>
        <path id="Path_83448" data-name="Path 83448" d="M560.586,213.573a3.978,3.978,0,0,1,.044-.729h0a1.549,1.549,0,0,1-1.441.833,1.187,1.187,0,0,1-1.289-1.228c0-1.02,1.027-1.5,2.6-1.5V210.8c0-.52-.219-.75-.808-.75a3.848,3.848,0,0,0-1.354.292l-.2-.854a5.262,5.262,0,0,1,1.7-.291c1.4,0,1.813.562,1.813,1.52v1.77a9.294,9.294,0,0,0,.044,1.1h-1.114Zm-.109-1.916c-1.18,0-1.485.271-1.485.645a.512.512,0,0,0,.546.5,1,1,0,0,0,.939-1.041Z" transform="translate(-499.83 -207.18)" fill="#fff"/>
        <path id="Path_83449" data-name="Path 83449" d="M580.9,206.13V199.8h1.158v6.33Z" transform="translate(-517.807 -199.738)" fill="#fff"/>
        <path id="Path_83450" data-name="Path 83450" d="M602.716,205.794c-.218,0-.437-.021-.437-.021v2.02H601.1v-5.851s.852-.042,1.725-.042c1.507,0,2.337.645,2.337,1.812A2.16,2.16,0,0,1,602.716,205.794Zm.022-2.957h-.459v1.957a2.975,2.975,0,0,0,.5.042c.764,0,1.136-.4,1.136-1.041C603.917,203.191,603.568,202.837,602.738,202.837Z" transform="translate(-533.595 -201.4)" fill="#fff"/>
        <path id="Path_83451" data-name="Path 83451" d="M623.4,206.13V199.8h1.157v6.33Z" transform="translate(-551.025 -199.738)" fill="#fff"/>
        <path id="Path_83452" data-name="Path 83452" d="M635.986,213.573a3.951,3.951,0,0,1,.044-.729h0a1.549,1.549,0,0,1-1.441.833,1.187,1.187,0,0,1-1.288-1.228c0-1.02,1.026-1.5,2.6-1.5V210.8c0-.52-.219-.75-.809-.75a3.849,3.849,0,0,0-1.354.292l-.2-.854a5.263,5.263,0,0,1,1.7-.291c1.4,0,1.813.562,1.813,1.52v1.77a9.32,9.32,0,0,0,.044,1.1h-1.114Zm-.087-1.916c-1.18,0-1.485.271-1.485.645a.512.512,0,0,0,.546.5,1,1,0,0,0,.939-1.041Z" transform="translate(-558.763 -207.18)" fill="#fff"/>
        <path id="Path_83453" data-name="Path 83453" d="M655.4,207.718c-1,0-1.31-.354-1.31-1.353v-2.186H653.3v-.854h.786v-1.333l1.158-.292v1.624h1.092v.854h-1.092v1.895c0,.562.131.708.546.708a2,2,0,0,0,.524-.063l.088.875A5.53,5.53,0,0,1,655.4,207.718Z" transform="translate(-574.396 -201.242)" fill="#fff"/>
        <path id="Path_83454" data-name="Path 83454" d="M672.254,200.479a1.788,1.788,0,0,0-.568-.083c-.5,0-.742.25-.742.833v.354h1.048v.854h-1.048v3.456h-1.158v-3.456H669v-.854h.786v-.354c0-1.166.568-1.728,1.791-1.728a4.471,4.471,0,0,1,.743.062Z" transform="translate(-586.667 -199.5)" fill="#fff"/>
        <path id="Path_83455" data-name="Path 83455" d="M686.319,213.577a1.9,1.9,0,0,1-2.118-2.166,2.21,2.21,0,0,1,2.315-2.311,1.921,1.921,0,0,1,2.118,2.166A2.259,2.259,0,0,1,686.319,213.577Zm.109-3.54c-.524,0-1.027.375-1.027,1.27,0,.875.349,1.333,1,1.333.568,0,1.026-.437,1.026-1.312C687.41,210.474,687.1,210.037,686.428,210.037Z" transform="translate(-598.547 -207.101)" fill="#fff"/>
        <path id="Path_83456" data-name="Path 83456" d="M711.1,210.162c-.83-.146-1.245.354-1.245,1.562v1.749H708.7v-4.31h1.092a4.679,4.679,0,0,1-.087.875h.022a1.371,1.371,0,0,1,1.441-.958Z" transform="translate(-617.696 -207.08)" fill="#fff"/>
        <path id="Path_83457" data-name="Path 83457" d="M728.938,213.335v-2.728c0-.458-.109-.75-.546-.75-.5,0-1.027.562-1.027,1.4v2.061H726.23v-2.728c0-.416-.087-.729-.546-.729-.546,0-1.026.6-1.026,1.4v2.061H723.5V209h1.092c0,.208-.022.521-.044.77h0a1.624,1.624,0,0,1,1.485-.875,1.144,1.144,0,0,1,1.245.854,1.609,1.609,0,0,1,1.464-.854c.873,0,1.354.458,1.354,1.437v2.957h-1.158Z" transform="translate(-629.264 -206.943)" fill="#fff"/>
      </g>
      <g id="XMLID_509_" transform="translate(0 0)">
        <g id="XMLID_510_" transform="translate(0 0)">
          <path id="XMLID_579_" d="M108.612,208.832h0a1.157,1.157,0,0,1-1.048-1.27h0a1.189,1.189,0,0,1,1.332-1h0a1.157,1.157,0,0,1,1.048,1.27h0a1.187,1.187,0,0,1-1.2,1.02h0A.807.807,0,0,0,108.612,208.832Z" transform="translate(-84.544 -164.16)" fill="#fff"/>
          <path id="XMLID_578_" d="M129.017,207.069a1.161,1.161,0,0,1,.961-1.353h0a1.212,1.212,0,0,1,1.42.916h0a1.161,1.161,0,0,1-.961,1.353h0a.938.938,0,0,1-.24.021h0A1.178,1.178,0,0,1,129.017,207.069Z" transform="translate(-101.302 -163.48)" fill="#fff"/>
          <path id="XMLID_577_" d="M87.58,202.867a1.118,1.118,0,0,1-.59-1.52h0a1.22,1.22,0,0,1,1.594-.562h0a1.118,1.118,0,0,1,.59,1.52h0a1.2,1.2,0,0,1-1.092.666h0A1.553,1.553,0,0,1,87.58,202.867Z" transform="translate(-68.383 -159.507)" fill="#fff"/>
          <path id="XMLID_576_" d="M149.352,200.106a1.124,1.124,0,0,1,.459-1.562h0a1.241,1.241,0,0,1,1.638.437h0a1.124,1.124,0,0,1-.459,1.562h0a1.234,1.234,0,0,1-.59.146h0A1.187,1.187,0,0,1,149.352,200.106Z" transform="translate(-117.095 -157.704)" fill="#fff"/>
          <path id="XMLID_575_" d="M69.518,190.724h0a1.114,1.114,0,0,1-.065-1.624h0a1.249,1.249,0,0,1,1.7-.062h0a1.114,1.114,0,0,1,.066,1.624h0a1.226,1.226,0,0,1-.874.375h0A1.439,1.439,0,0,1,69.518,190.724Z" transform="translate(-54.514 -150.05)" fill="#fff"/>
          <path id="XMLID_574_" d="M166.449,187.124a1.132,1.132,0,0,1-.065-1.624h0a1.249,1.249,0,0,1,1.7-.063h0a1.114,1.114,0,0,1,.066,1.624h0a1.226,1.226,0,0,1-.874.375h0A1.358,1.358,0,0,1,166.449,187.124Z" transform="translate(-130.283 -147.199)" fill="#fff"/>
          <path id="XMLID_573_" d="M211.049,205.824a1.132,1.132,0,0,1-.066-1.624h0a1.249,1.249,0,0,1,1.7-.062h0a1.114,1.114,0,0,1,.065,1.624h0a1.226,1.226,0,0,1-.874.375h0A1.2,1.2,0,0,1,211.049,205.824Z" transform="translate(-165.142 -162.006)" fill="#fff"/>
          <path id="XMLID_572_" d="M55.952,173.506a1.124,1.124,0,0,1,.459-1.562h0a1.241,1.241,0,0,1,1.638.437h0a1.124,1.124,0,0,1-.459,1.562h0a1.177,1.177,0,0,1-.59.146h0A1.194,1.194,0,0,1,55.952,173.506Z" transform="translate(-44.092 -136.642)" fill="#fff"/>
          <path id="XMLID_571_" d="M178.68,169.467a1.118,1.118,0,0,1-.59-1.52h0a1.221,1.221,0,0,1,1.594-.562h0a1.118,1.118,0,0,1,.59,1.52h0a1.2,1.2,0,0,1-1.092.666h0A1.147,1.147,0,0,1,178.68,169.467Z" transform="translate(-139.587 -133.061)" fill="#fff"/>
          <path id="XMLID_570_" d="M48.417,153.069a1.161,1.161,0,0,1,.961-1.353h0a1.212,1.212,0,0,1,1.42.916h0a1.161,1.161,0,0,1-.961,1.353h0a.937.937,0,0,1-.24.021h0A1.261,1.261,0,0,1,48.417,153.069Z" transform="translate(-38.305 -120.724)" fill="#fff"/>
          <path id="XMLID_569_" d="M185.012,148.795a1.165,1.165,0,0,1-1.048-1.291h0v-.021h0v-.021h0a1.189,1.189,0,0,1,1.332-1h0a1.157,1.157,0,0,1,1.048,1.27h0v.021h0v.042h0a1.17,1.17,0,0,1-1.2,1h-.131Z" transform="translate(-144.259 -116.574)" fill="#fff"/>
          <path id="XMLID_568_" d="M48.712,132.532a1.157,1.157,0,0,1-1.048-1.27h0a1.189,1.189,0,0,1,1.332-1h0a1.157,1.157,0,0,1,1.048,1.27h0a1.187,1.187,0,0,1-1.2,1.02h0A.339.339,0,0,1,48.712,132.532Z" transform="translate(-37.726 -103.747)" fill="#fff"/>
          <path id="XMLID_567_" d="M183.117,126.369a1.162,1.162,0,0,1,.939-1.353h0a1.215,1.215,0,0,1,1.42.9h0a1.161,1.161,0,0,1-.961,1.353h0a.939.939,0,0,1-.24.021h0A1.175,1.175,0,0,1,183.117,126.369Z" transform="translate(-143.587 -99.583)" fill="#fff"/>
          <path id="XMLID_566_" d="M54.18,111.767a1.118,1.118,0,0,1-.59-1.52h0a1.22,1.22,0,0,1,1.594-.562h0a1.118,1.118,0,0,1,.59,1.52h0a1.2,1.2,0,0,1-1.092.666h0A1.036,1.036,0,0,1,54.18,111.767Z" transform="translate(-42.277 -87.376)" fill="#fff"/>
          <path id="XMLID_565_" d="M175.835,106.59h0a1.107,1.107,0,0,1,.459-1.562h0a1.221,1.221,0,0,1,1.638.437h0a1.124,1.124,0,0,1-.459,1.562h0a1.177,1.177,0,0,1-.59.146h0A1.213,1.213,0,0,1,175.835,106.59Z" transform="translate(-137.791 -83.656)" fill="#fff"/>
          <path id="XMLID_564_" d="M65.818,93.724a1.114,1.114,0,0,1-.066-1.624h0a1.249,1.249,0,0,1,1.7-.062h0a1.114,1.114,0,0,1,.065,1.624h0a1.226,1.226,0,0,1-.874.375h0A1.243,1.243,0,0,1,65.818,93.724Z" transform="translate(-51.622 -73.247)" fill="#fff"/>
          <path id="XMLID_563_" d="M162.718,90h0a1.114,1.114,0,0,1-.066-1.624h0a1.229,1.229,0,0,1,1.7-.062h0a1.114,1.114,0,0,1,.066,1.624h0a1.226,1.226,0,0,1-.874.375h0A1.358,1.358,0,0,1,162.718,90Z" transform="translate(-127.36 -70.29)" fill="#fff"/>
          <path id="XMLID_562_" d="M82.452,80.206a1.124,1.124,0,0,1,.459-1.562h0a1.241,1.241,0,0,1,1.638.437h0a1.124,1.124,0,0,1-.459,1.562h0a1.177,1.177,0,0,1-.59.146h0A1.213,1.213,0,0,1,82.452,80.206Z" transform="translate(-64.805 -62.769)" fill="#fff"/>
          <path id="XMLID_561_" d="M145.18,78.267a1.118,1.118,0,0,1-.59-1.52h0a1.221,1.221,0,0,1,1.594-.562h0a1.118,1.118,0,0,1,.59,1.52h0a1.2,1.2,0,0,1-1.092.666h0A1.553,1.553,0,0,1,145.18,78.267Z" transform="translate(-113.403 -60.851)" fill="#fff"/>
          <path id="XMLID_560_" d="M102.417,72.369a1.161,1.161,0,0,1,.961-1.353h0a1.212,1.212,0,0,1,1.42.916h0a1.161,1.161,0,0,1-.961,1.353h0a.938.938,0,0,1-.24.021h0A1.214,1.214,0,0,1,102.417,72.369Z" transform="translate(-80.512 -56.827)" fill="#fff"/>
          <path id="XMLID_559_" d="M124.912,72.532a1.157,1.157,0,0,1-1.048-1.27h0a1.189,1.189,0,0,1,1.332-1h0a1.157,1.157,0,0,1,1.048,1.27h0a1.187,1.187,0,0,1-1.2,1.02h0A.4.4,0,0,1,124.912,72.532Z" transform="translate(-97.284 -56.241)" fill="#fff"/>
          <path id="XMLID_558_" d="M112.755,231.709A1.185,1.185,0,0,1,111.6,230.5h0a1.183,1.183,0,0,1,1.267-1.1h0a1.185,1.185,0,0,1,1.157,1.208h0a1.179,1.179,0,0,1-1.2,1.1h-.066Z" transform="translate(-87.705 -182.247)" fill="#fff"/>
          <path id="XMLID_557_" d="M133.517,229.169a1.161,1.161,0,0,1,.961-1.353h0a1.212,1.212,0,0,1,1.42.916h0a1.161,1.161,0,0,1-.961,1.353h0a.938.938,0,0,1-.24.021h0A1.261,1.261,0,0,1,133.517,229.169Z" transform="translate(-104.82 -180.978)" fill="#fff"/>
          <path id="XMLID_556_" d="M90.819,228.016h0a1.142,1.142,0,0,1-.808-1.437h0a1.216,1.216,0,0,1,1.507-.77h0a1.142,1.142,0,0,1,.808,1.437h0a1.206,1.206,0,0,1-1.157.833h0A1.03,1.03,0,0,1,90.819,228.016Z" transform="translate(-70.792 -179.367)" fill="#fff"/>
          <path id="XMLID_555_" d="M154.49,222.605a1.112,1.112,0,0,1,.59-1.52h0a1.214,1.214,0,0,1,1.594.562h0a1.112,1.112,0,0,1-.59,1.52h0a1.148,1.148,0,0,1-.5.1h0A1.25,1.25,0,0,1,154.49,222.605Z" transform="translate(-121.141 -175.58)" fill="#fff"/>
          <path id="XMLID_554_" d="M70.369,219.224h0a1.141,1.141,0,0,1-.437-1.583h0a1.261,1.261,0,0,1,1.66-.416h0a1.141,1.141,0,0,1,.437,1.583h0a1.194,1.194,0,0,1-1.048.562h0A1.319,1.319,0,0,1,70.369,219.224Z" transform="translate(-55.016 -172.49)" fill="#fff"/>
          <path id="XMLID_553_" d="M173.357,211.168a1.137,1.137,0,0,1,.175-1.624h0a1.276,1.276,0,0,1,1.7.167h0a1.119,1.119,0,0,1-.175,1.624h0a1.286,1.286,0,0,1-.764.25h0A1.078,1.078,0,0,1,173.357,211.168Z" transform="translate(-135.771 -166.33)" fill="#fff"/>
          <path id="XMLID_552_" d="M52.671,205.777h0a1.1,1.1,0,0,1-.022-1.624h0a1.227,1.227,0,0,1,1.7-.021h0a1.112,1.112,0,0,1,.022,1.624h0a1.254,1.254,0,0,1-.874.354h0A1.381,1.381,0,0,1,52.671,205.777Z" transform="translate(-41.357 -161.98)" fill="#fff"/>
          <path id="XMLID_551_" d="M188.811,195.692a1.1,1.1,0,0,1-.218-1.6h0a1.23,1.23,0,0,1,1.682-.208h0a1.1,1.1,0,0,1,.218,1.6h0a1.242,1.242,0,0,1-.961.458h0A1.572,1.572,0,0,1,188.811,195.692Z" transform="translate(-147.687 -153.935)" fill="#fff"/>
          <path id="XMLID_550_" d="M38.653,188.53a1.13,1.13,0,0,1,.371-1.583h0a1.24,1.24,0,0,1,1.66.375h0a1.119,1.119,0,0,1-.393,1.583h0a1.154,1.154,0,0,1-.633.167h0A1.23,1.23,0,0,1,38.653,188.53Z" transform="translate(-30.55 -148.501)" fill="#fff"/>
          <path id="XMLID_549_" d="M200.184,176.77a1.142,1.142,0,0,1-.633-1.52h0a1.242,1.242,0,0,1,1.594-.6h0a1.142,1.142,0,0,1,.633,1.52h0a1.193,1.193,0,0,1-1.114.687h0A1.226,1.226,0,0,1,200.184,176.77Z" transform="translate(-156.374 -138.823)" fill="#fff"/>
          <path id="XMLID_548_" d="M29.167,168.321a1.138,1.138,0,0,1,.764-1.458h0a1.22,1.22,0,0,1,1.529.729h0a1.138,1.138,0,0,1-.764,1.458h0a1.156,1.156,0,0,1-.371.063h0A1.238,1.238,0,0,1,29.167,168.321Z" transform="translate(-23.226 -132.686)" fill="#fff"/>
          <path id="XMLID_547_" d="M206.723,155.809a1.162,1.162,0,0,1-.983-1.333h0a1.208,1.208,0,0,1,1.4-.937h0a1.162,1.162,0,0,1,.983,1.333h0a1.2,1.2,0,0,1-1.179.958h0A.7.7,0,0,1,206.723,155.809Z" transform="translate(-161.275 -122.172)" fill="#fff"/>
          <path id="XMLID_546_" d="M24.89,146.519h0A1.163,1.163,0,0,1,26,145.29h0a1.171,1.171,0,0,1,1.289,1.062h0a1.164,1.164,0,0,1-1.114,1.229h-.087A1.189,1.189,0,0,1,24.89,146.519Z" transform="translate(-19.932 -115.651)" fill="#fff"/>
          <path id="XMLID_545_" d="M206.69,132.66v-.021h0v-.021h0a1.152,1.152,0,0,1,1.114-1.229h0a1.183,1.183,0,0,1,1.289,1.062h0v.021h0v.021h0a1.178,1.178,0,0,1-1.114,1.229h-.087A1.174,1.174,0,0,1,206.69,132.66Z" transform="translate(-162.029 -104.646)" fill="#fff"/>
          <path id="XMLID_544_" d="M26.923,125.609a1.151,1.151,0,0,1-.983-1.333h0a1.2,1.2,0,0,1,1.4-.937h0a1.162,1.162,0,0,1,.983,1.333h0a1.2,1.2,0,0,1-1.179.958h0A.706.706,0,0,1,26.923,125.609Z" transform="translate(-20.742 -98.261)" fill="#fff"/>
          <path id="XMLID_543_" d="M202.367,111.321a1.138,1.138,0,0,1,.764-1.458h0a1.22,1.22,0,0,1,1.529.729h0a1.138,1.138,0,0,1-.764,1.458h0a1.265,1.265,0,0,1-.371.062h0A1.217,1.217,0,0,1,202.367,111.321Z" transform="translate(-158.601 -87.554)" fill="#fff"/>
          <path id="XMLID_542_" d="M32.784,104.47a1.142,1.142,0,0,1-.633-1.52h0a1.242,1.242,0,0,1,1.594-.6h0a1.142,1.142,0,0,1,.633,1.52h0a1.193,1.193,0,0,1-1.114.687h0A1.3,1.3,0,0,1,32.784,104.47Z" transform="translate(-25.533 -81.578)" fill="#fff"/>
          <path id="XMLID_541_" d="M193.153,91.727h0a1.131,1.131,0,0,1,.371-1.582h0a1.255,1.255,0,0,1,1.66.354h0a1.113,1.113,0,0,1-.371,1.582h0a1.155,1.155,0,0,1-.633.167h0A1.17,1.17,0,0,1,193.153,91.727Z" transform="translate(-151.309 -71.854)" fill="#fff"/>
          <path id="XMLID_540_" d="M234.753,66.527h0a1.13,1.13,0,0,1,.371-1.582h0a1.255,1.255,0,0,1,1.66.354h0a1.113,1.113,0,0,1-.371,1.582h0a1.155,1.155,0,0,1-.633.167h0A1.169,1.169,0,0,1,234.753,66.527Z" transform="translate(-183.823 -51.901)" fill="#fff"/>
          <path id="XMLID_539_" d="M43.595,85.376a1.12,1.12,0,0,1-.24-1.6h0a1.255,1.255,0,0,1,1.682-.229h0a1.1,1.1,0,0,1,.218,1.6h0a1.242,1.242,0,0,1-.961.458h0A1.042,1.042,0,0,1,43.595,85.376Z" transform="translate(-34.181 -66.586)" fill="#fff"/>
          <path id="XMLID_538_" d="M179.57,74.877a1.1,1.1,0,0,1-.022-1.624h0a1.227,1.227,0,0,1,1.7-.021h0a1.1,1.1,0,0,1,.022,1.624h0a1.254,1.254,0,0,1-.874.354h0A1.33,1.33,0,0,1,179.57,74.877Z" transform="translate(-140.543 -58.336)" fill="#fff"/>
          <path id="XMLID_537_" d="M11.157,37.068a1.137,1.137,0,0,1,.175-1.624h0a1.273,1.273,0,0,1,1.7.167h0a1.119,1.119,0,0,1-.175,1.624h0a1.286,1.286,0,0,1-.764.25h0A1.26,1.26,0,0,1,11.157,37.068Z" transform="translate(-8.994 -28.481)" fill="#fff"/>
          <path id="XMLID_536_" d="M162.269,61.724a1.141,1.141,0,0,1-.437-1.582h0a1.261,1.261,0,0,1,1.66-.416h0a1.141,1.141,0,0,1,.437,1.582h0a1.194,1.194,0,0,1-1.048.562h0A1.064,1.064,0,0,1,162.269,61.724Z" transform="translate(-126.846 -47.785)" fill="#fff"/>
          <path id="XMLID_535_" d="M77.19,57.505a1.112,1.112,0,0,1,.59-1.52h0a1.213,1.213,0,0,1,1.594.562h0a1.112,1.112,0,0,1-.59,1.52h0a1.148,1.148,0,0,1-.5.1h0A1.2,1.2,0,0,1,77.19,57.505Z" transform="translate(-60.723 -44.857)" fill="#fff"/>
          <path id="XMLID_534_" d="M142.319,53.116a1.142,1.142,0,0,1-.808-1.437h0a1.216,1.216,0,0,1,1.507-.77h0a1.142,1.142,0,0,1,.808,1.437h0a1.206,1.206,0,0,1-1.157.833h0A1.133,1.133,0,0,1,142.319,53.116Z" transform="translate(-111.045 -40.885)" fill="#fff"/>
          <path id="XMLID_533_" d="M147.919,5.216a1.142,1.142,0,0,1-.808-1.437h0a1.216,1.216,0,0,1,1.507-.77h0a1.142,1.142,0,0,1,.808,1.437h0a1.206,1.206,0,0,1-1.157.833h0C148.138,5.258,148.029,5.237,147.919,5.216Z" transform="translate(-115.422 -2.959)" fill="#fff"/>
          <path id="XMLID_532_" d="M120.955,49.609A1.185,1.185,0,0,1,119.8,48.4h0a1.183,1.183,0,0,1,1.267-1.1h0a1.171,1.171,0,0,1,1.157,1.208h0a1.179,1.179,0,0,1-1.2,1.1h-.066Z" transform="translate(-94.114 -38.065)" fill="#fff"/>
          <path id="XMLID_531_" d="M155.018,246.624a1.127,1.127,0,0,1,.721-1.478h0a1.232,1.232,0,0,1,1.551.687h0a1.144,1.144,0,0,1-.721,1.478h0a1.435,1.435,0,0,1-.415.062h0A1.2,1.2,0,0,1,155.018,246.624Z" transform="translate(-121.581 -194.664)" fill="#fff"/>
          <path id="XMLID_530_" d="M49.322,232.3h0a1.106,1.106,0,0,1-.262-1.6h0a1.234,1.234,0,0,1,1.682-.25h0a1.1,1.1,0,0,1,.262,1.6h0a1.241,1.241,0,0,1-.983.479h0A1.267,1.267,0,0,1,49.322,232.3Z" transform="translate(-38.642 -182.903)" fill="#fff"/>
          <path id="XMLID_529_" d="M32.553,217.262h0a1.114,1.114,0,0,1,.066-1.624h0a1.249,1.249,0,0,1,1.7.062h0a1.113,1.113,0,0,1-.066,1.624h0a1.23,1.23,0,0,1-.808.312h0A1.238,1.238,0,0,1,32.553,217.262Z" transform="translate(-25.673 -171.111)" fill="#fff"/>
          <path id="XMLID_528_" d="M9.118,179.124a1.127,1.127,0,0,1,.721-1.478h0a1.232,1.232,0,0,1,1.551.687h0a1.144,1.144,0,0,1-.721,1.478h0a1.434,1.434,0,0,1-.415.062h0A1.247,1.247,0,0,1,9.118,179.124Z" transform="translate(-7.545 -141.219)" fill="#fff"/>
          <path id="XMLID_527_" d="M3.542,157.353a1.158,1.158,0,0,1,1-1.312h0A1.2,1.2,0,0,1,5.923,157h0a1.158,1.158,0,0,1-1,1.312h0a.63.63,0,0,1-.2.021h0A1.2,1.2,0,0,1,3.542,157.353Z" transform="translate(-3.236 -124.154)" fill="#fff"/>
          <path id="XMLID_526_" d="M230.455,145.15a1.166,1.166,0,0,1-1.157-1.187h0v-.021h0V143.9h0a1.19,1.19,0,0,1,1.245-1.1h0a1.166,1.166,0,0,1,1.157,1.187h0v.021h0v.021h0a1.179,1.179,0,0,1-1.2,1.1h0C230.477,145.15,230.477,145.15,230.455,145.15Z" transform="translate(-179.7 -113.68)" fill="#fff"/>
          <path id="XMLID_525_" d="M3.355,136.009A1.185,1.185,0,0,1,2.2,134.8h0a1.183,1.183,0,0,1,1.267-1.1h0a1.181,1.181,0,0,1,1.157,1.187h0a1.179,1.179,0,0,1-1.2,1.1h0A.083.083,0,0,1,3.355,136.009Z" transform="translate(-2.197 -106.474)" fill="#fff"/>
          <path id="XMLID_524_" d="M228.042,121.953a1.158,1.158,0,0,1,1-1.312h0a1.2,1.2,0,0,1,1.376.958h0a1.158,1.158,0,0,1-1,1.312h0c-.066,0-.131.021-.2.021h0A1.2,1.2,0,0,1,228.042,121.953Z" transform="translate(-178.707 -96.125)" fill="#fff"/>
          <path id="XMLID_523_" d="M6.178,113.929a1.152,1.152,0,0,1-.9-1.4h0a1.213,1.213,0,0,1,1.463-.854h0a1.152,1.152,0,0,1,.9,1.4h0a1.2,1.2,0,0,1-1.179.875h0A.681.681,0,0,1,6.178,113.929Z" transform="translate(-4.583 -89.017)" fill="#fff"/>
          <path id="XMLID_522_" d="M222.518,100.592a1.127,1.127,0,0,1,.721-1.478h0a1.214,1.214,0,0,1,1.551.687h0a1.127,1.127,0,0,1-.721,1.478h0a1.434,1.434,0,0,1-.415.062h0A1.2,1.2,0,0,1,222.518,100.592Z" transform="translate(-174.34 -79.033)" fill="#fff"/>
          <path id="XMLID_521_" d="M13.28,92.867a1.118,1.118,0,0,1-.59-1.52h0a1.22,1.22,0,0,1,1.594-.562h0a1.118,1.118,0,0,1,.59,1.52h0a1.2,1.2,0,0,1-1.092.666h0A1.148,1.148,0,0,1,13.28,92.867Z" transform="translate(-10.309 -72.411)" fill="#fff"/>
          <path id="XMLID_520_" d="M212.856,80.73a1.119,1.119,0,0,1,.393-1.582h0a1.24,1.24,0,0,1,1.66.375h0a1.119,1.119,0,0,1-.393,1.582h0a1.155,1.155,0,0,1-.633.167h0A1.14,1.14,0,0,1,212.856,80.73Z" transform="translate(-166.71 -63.148)" fill="#fff"/>
          <path id="XMLID_519_" d="M199.553,63.262h0a1.114,1.114,0,0,1,.066-1.624h0a1.249,1.249,0,0,1,1.7.062h0a1.114,1.114,0,0,1-.065,1.624h0a1.23,1.23,0,0,1-.808.312h0A1.433,1.433,0,0,1,199.553,63.262Z" transform="translate(-156.201 -49.177)" fill="#fff"/>
          <path id="XMLID_518_" d="M39.053,56.862a1.114,1.114,0,0,1,.066-1.624h0a1.249,1.249,0,0,1,1.7.062h0a1.113,1.113,0,0,1-.066,1.624h0a1.243,1.243,0,0,1-.83.312h0A1.427,1.427,0,0,1,39.053,56.862Z" transform="translate(-30.753 -44.11)" fill="#fff"/>
          <path id="XMLID_517_" d="M183.122,48.6a1.107,1.107,0,0,1-.262-1.6h0a1.234,1.234,0,0,1,1.682-.25h0a1.1,1.1,0,0,1,.262,1.6h0a1.241,1.241,0,0,1-.983.479h0A1.46,1.46,0,0,1,183.122,48.6Z" transform="translate(-143.221 -37.453)" fill="#fff"/>
          <path id="XMLID_516_" d="M164.08,37.367h0a1.118,1.118,0,0,1-.59-1.52h0a1.221,1.221,0,0,1,1.594-.562h0a1.118,1.118,0,0,1,.59,1.52h0a1.2,1.2,0,0,1-1.092.666h0A1.09,1.09,0,0,1,164.08,37.367Z" transform="translate(-128.176 -28.468)" fill="#fff"/>
          <path id="XMLID_515_" d="M68.949,34.992a1.144,1.144,0,0,1,.721-1.478h0a1.214,1.214,0,0,1,1.551.687h0a1.144,1.144,0,0,1-.721,1.478h0a1.433,1.433,0,0,1-.415.062h0A1.2,1.2,0,0,1,68.949,34.992Z" transform="translate(-54.316 -27.092)" fill="#fff"/>
          <path id="XMLID_514_" d="M98.042,27.453a1.158,1.158,0,0,1,1-1.312h0a1.2,1.2,0,0,1,1.376.958h0a1.158,1.158,0,0,1-1,1.312h0c-.066,0-.131.021-.2.021h0A1.215,1.215,0,0,1,98.042,27.453Z" transform="translate(-77.098 -21.302)" fill="#fff"/>
          <g id="XMLID_512_" transform="translate(18.411 21.476)">
            <path id="XMLID_513_" d="M99.145,120.155l-.066.021a1.348,1.348,0,0,1-.306.042,1.954,1.954,0,0,1-.59-.1c-.349-.125-1.507-.812-2.577-1.437l-.2-.125.2-.125a17.492,17.492,0,0,1,6.552-2.769,2.974,2.974,0,0,0-1.376-.25,10.806,10.806,0,0,0-5.416,1.957l-.2.125-.044-.229c-.218-1.5-.328-4.373-.371-6.476a4.641,4.641,0,0,1,2.271,3.5,4.34,4.34,0,0,0,.262-1.5,4.572,4.572,0,0,0-1.616-3.477l-.131-.125h.328a3.84,3.84,0,0,1,3.669,2.707,1.924,1.924,0,0,0,.022-.354,3.669,3.669,0,0,0-3.429-3.644l-.153-.021.109-.1a2.962,2.962,0,0,1,1.813-.875,2.868,2.868,0,0,0-1.179-.271,2.812,2.812,0,0,0-1.66.541l-.087.062-.022-.083a2.88,2.88,0,0,0-.633-1.041,2.714,2.714,0,0,0-.633,1.041l-.022.083-.087-.062a2.764,2.764,0,0,0-1.66-.541,2.572,2.572,0,0,0-1.179.271,2.854,2.854,0,0,1,1.813.875l.109.1-.153.021a3.7,3.7,0,0,0-3.429,3.644,1.927,1.927,0,0,0,.022.354,3.84,3.84,0,0,1,3.669-2.707H93.1l-.131.125a4.572,4.572,0,0,0-1.616,3.477,4.341,4.341,0,0,0,.262,1.5,4.641,4.641,0,0,1,2.271-3.5c-.022,2.124-.153,4.976-.349,6.476l-.044.229-.2-.125a11.005,11.005,0,0,0-5.416-1.957,2.9,2.9,0,0,0-1.376.25,17.492,17.492,0,0,1,6.552,2.769l.2.125-.2.125a28.769,28.769,0,0,1-2.577,1.437,1.842,1.842,0,0,1-.59.1,1.348,1.348,0,0,1-.306-.042l-.066-.021a.468.468,0,0,0-.131-.042v.1c0,.333.5.708,1.223.708a2.268,2.268,0,0,0,1.07-.271c1.136-.562,2.577-1.416,2.6-1.416l.087-.042.087.042c.022,0,1.463.854,2.6,1.416a2.544,2.544,0,0,0,1.07.271c.721,0,1.223-.375,1.223-.708v-.1a.454.454,0,0,0-.2.042" transform="translate(-86.5 -106.1)" fill="#fff"/>
          </g>
          <path id="XMLID_511_" d="M145.478,30.129a1.152,1.152,0,0,1-.9-1.4h0a1.213,1.213,0,0,1,1.463-.854h0a1.152,1.152,0,0,1,.9,1.4h0a1.2,1.2,0,0,1-1.179.875h0A1.209,1.209,0,0,1,145.478,30.129Z" transform="translate(-113.461 -22.666)" fill="#fff"/>
        </g>
      </g>
    </g>
  </g>
</svg>
