<svg xmlns="http://www.w3.org/2000/svg" width="60.278" height="60.278" viewBox="0 0 60.278 60.278">
  <g id="investigate" transform="translate(-19 496)">
    <path id="Path_83582" data-name="Path 83582" d="M160.316-495.686l-.316.3v7.422h2.021v-6.028h38.4v56.26h-38.4v-4.019H160v2.7c0,2.713,0,2.713.316,3.014l.3.314h41.207l.3-.314.316-.3v-59.048l-.316-.3-.3-.314H160.619Z" transform="translate(-123.166 0)" fill="#004e59"/>
    <path id="Path_83583" data-name="Path 83583" d="M272-454.992v1.008h16.19V-456H272Z" transform="translate(-221.039 -34.959)" fill="#004e59"/>
    <path id="Path_83584" data-name="Path 83584" d="M43.727-423.741a23.23,23.23,0,0,0-9.4,3.239,21.978,21.978,0,0,0-10.371,17.291,22.43,22.43,0,0,0,1.455,9.6l.3.769-1.632,1.651c-2.188,2.206-2.226,2.281-1.417,3.138l.493.542-2.074,2.067A29.9,29.9,0,0,0,19-383.249a6.523,6.523,0,0,0,1.366,1.336c.051,0,1.024-.933,2.175-2.079l2.087-2.079,2.871,2.861,2.884,2.873-2.15,2.142-2.15,2.142.734.731.721.718,2.15-2.142,2.138-2.13.544.492c.86.807.949.769,3-1.26L37.15-381.4l1.164.429a20.621,20.621,0,0,0,7.943,1.374,19.558,19.558,0,0,0,6.779-1.059,22.138,22.138,0,0,0,14.6-26.617,22.192,22.192,0,0,0-8.917-12.691A22.484,22.484,0,0,0,43.727-423.741Zm5.818,2.193a19.743,19.743,0,0,1,10.941,5.722,19.643,19.643,0,0,1,4.806,7.8,17.272,17.272,0,0,1,.949,6.327,17.272,17.272,0,0,1-.949,6.327,19.643,19.643,0,0,1-4.806,7.8,19.859,19.859,0,0,1-11,5.747A19.992,19.992,0,0,1,46-381.61a14.81,14.81,0,0,1-3.883-.34,20.855,20.855,0,0,1-7.5-3.163,24.831,24.831,0,0,1-5.236-5.243,20.173,20.173,0,0,1,0-22.685A25.2,25.2,0,0,1,34.62-418.3a21.266,21.266,0,0,1,9.246-3.441A27.956,27.956,0,0,1,49.545-421.548ZM27.158-390.092a21.532,21.532,0,0,0,6.767,6.906c.658.441,1.227.819,1.252.844a10.888,10.888,0,0,1-1.948,1.941c-.063,0-2.036-1.9-4.364-4.222l-4.237-4.222,1.012-1.008c.557-.555,1.012-1.008,1.037-1.008S26.905-390.52,27.158-390.092Z" transform="translate(0 -63.261)" fill="#004e59"/>
    <path id="Path_83585" data-name="Path 83585" d="M112.588-383.626a17.5,17.5,0,0,0-12.7,8.393,17.387,17.387,0,0,0-1.467,13.926,17.266,17.266,0,0,0,11.067,10.99,14.223,14.223,0,0,0,5.363.769,12.894,12.894,0,0,0,3.63-.328,16.751,16.751,0,0,0,8.462-4.688,16.813,16.813,0,0,0,4.983-12.048,16.813,16.813,0,0,0-4.983-12.048,16.688,16.688,0,0,0-8.4-4.663A21.664,21.664,0,0,0,112.588-383.626ZM117-381.559a14.825,14.825,0,0,1,8.322,4.159,14.827,14.827,0,0,1,4.579,10.788,14.828,14.828,0,0,1-4.579,10.788,15.084,15.084,0,0,1-20.136.92,15.067,15.067,0,0,1-1.923-21.563A15.186,15.186,0,0,1,117-381.559Z" transform="translate(-68.679 -98.248)" fill="#004e59"/>
    <path id="Path_83586" data-name="Path 83586" d="M153.462-335.634c-.342.34-.367.441-.367,1.26,0,.87-.013.895-.392,1.084l-.392.2-.67-.63c-.772-.731-1.151-.87-1.657-.6a21.531,21.531,0,0,0-3.326,3.39c-.177.479-.076.681.645,1.437.632.655.632.655.468,1.109l-.164.454h-.936c-.86,0-.961.025-1.3.366L145-327.2v4.587l.367.365c.341.34.443.366,1.3.366h.936l.164.454c.164.454.164.454-.468,1.109-.721.756-.822.958-.645,1.437a21.528,21.528,0,0,0,3.326,3.39c.506.265.885.126,1.657-.6l.67-.63.392.2c.379.189.392.214.392,1.084,0,.819.025.92.367,1.26l.367.366h2.365c2.327,0,2.353,0,2.656-.315.278-.265.316-.416.316-1.248v-.958l.455-.189.468-.189.734.693c1.088,1.033,1.1,1.033,3.175-1.046,2.112-2.1,2.125-2.155,1.062-3.277l-.683-.718.2-.416c.2-.4.2-.4,1.126-.4.822,0,.974-.038,1.24-.315.316-.3.316-.328.316-2.71s0-2.407-.316-2.71c-.266-.277-.417-.315-1.24-.315-.923,0-.923,0-1.126-.416l-.2-.4.683-.718c1.062-1.122,1.05-1.172-1.062-3.277-2.074-2.079-2.087-2.079-3.175-1.046l-.734.693-.468-.189-.455-.189v-.958c0-.832-.038-.983-.316-1.248-.3-.315-.329-.315-2.656-.315h-2.365Zm3.681,2.357c0,.92.354,1.55.885,1.563a6.07,6.07,0,0,1,1.151.454c1.075.5,1.366.5,1.91.025.164-.164.443-.4.594-.529l.278-.252.683.681.683.681-.544.58c-.759.807-.784.97-.354,1.916.2.441.443,1.008.531,1.273.24.769.557.97,1.48.97h.8v2.016h-.8c-.923,0-1.24.2-1.48.97-.089.265-.329.844-.531,1.285-.443.945-.392,1.2.417,1.979l.493.479-.658.668a3.858,3.858,0,0,1-.784.668,3.016,3.016,0,0,1-.721-.567,2.134,2.134,0,0,0-.86-.567,5.152,5.152,0,0,0-1.164.441,5.954,5.954,0,0,1-1.126.441c-.531.013-.885.63-.885,1.563v.706h-2.024v-.857c0-1.021-.114-1.159-1.151-1.525a10.282,10.282,0,0,1-1.227-.5c-.746-.378-.974-.34-1.682.328l-.632.592-.721-.718-.721-.718.607-.6c.7-.706.746-1.008.291-1.89a8.291,8.291,0,0,1-.468-1.134c-.228-.794-.607-1.033-1.581-1.033h-.809v-2.016h.809c.974,0,1.353-.239,1.581-1.033a8.291,8.291,0,0,1,.468-1.134,1.372,1.372,0,0,0-.253-1.941l-.569-.643.683-.668.683-.681.632.592c.708.668.936.706,1.682.328a10.287,10.287,0,0,1,1.227-.5c1.037-.365,1.151-.5,1.151-1.525v-.857h2.024Z" transform="translate(-110.086 -139.949)" fill="#004e59"/>
    <path id="Path_83587" data-name="Path 83587" d="M197.172-287.577a5.392,5.392,0,0,0-3.288,2.647,4.917,4.917,0,0,0,.468,5.268,5.055,5.055,0,0,0,8.575-.832,3.466,3.466,0,0,0,.417-2.168,3.466,3.466,0,0,0-.417-2.168,5.379,5.379,0,0,0-2.643-2.5A6.8,6.8,0,0,0,197.172-287.577Zm2.8,2.357a3.01,3.01,0,0,1,1.1,3.894,3.01,3.01,0,0,1-5.565-.479,5.207,5.207,0,0,1-.19-.857,4.183,4.183,0,0,1,.8-1.979A3.043,3.043,0,0,1,199.967-285.22Z" transform="translate(-152.304 -182.195)" fill="#004e59"/>
    <path id="Path_83588" data-name="Path 83588" d="M376-398.992v1.008h11.13V-400H376Z" transform="translate(-311.899 -83.946)" fill="#004e59"/>
    <path id="Path_83589" data-name="Path 83589" d="M416-334.992v1.008h6.071V-336H416Z" transform="translate(-346.84 -139.91)" fill="#004e59"/>
    <path id="Path_83590" data-name="Path 83590" d="M432-270.992v1.008h4.047V-272H432Z" transform="translate(-360.816 -195.874)" fill="#004e59"/>
    <path id="Path_83591" data-name="Path 83591" d="M424-206.992v1.008h5.059V-208H424Z" transform="translate(-353.828 -251.838)" fill="#004e59"/>
    <path id="Path_83592" data-name="Path 83592" d="M392-142.992v1.008h9.107V-144H392Z" transform="translate(-325.876 -307.801)" fill="#004e59"/>
    <path id="Path_83593" data-name="Path 83593" d="M320-78.992v1.008h18.213V-80H320Z" transform="translate(-262.982 -363.787)" fill="#004e59"/>
  </g>
</svg>
