<svg xmlns="http://www.w3.org/2000/svg" width="21.684" height="21.684" viewBox="0 0 21.684 21.684">
  <path id="Icon_material-language" data-name="Icon material-language" d="M13.831,3A10.842,10.842,0,1,0,24.684,13.842,10.836,10.836,0,0,0,13.831,3Zm7.513,6.505h-3.2a16.966,16.966,0,0,0-1.5-3.86A8.706,8.706,0,0,1,21.344,9.505Zm-7.5-4.293a15.272,15.272,0,0,1,2.071,4.293H11.771A15.273,15.273,0,0,1,13.842,5.212ZM5.45,16.01a8.481,8.481,0,0,1,0-4.337H9.115a17.905,17.905,0,0,0-.152,2.168,17.905,17.905,0,0,0,.152,2.168Zm.889,2.168h3.2a16.966,16.966,0,0,0,1.5,3.86A8.659,8.659,0,0,1,6.339,18.179Zm3.2-8.673h-3.2a8.659,8.659,0,0,1,4.694-3.86A16.966,16.966,0,0,0,9.538,9.505Zm4.3,12.967a15.273,15.273,0,0,1-2.071-4.293h4.142A15.273,15.273,0,0,1,13.842,22.472Zm2.537-6.462H11.3a15.951,15.951,0,0,1-.173-2.168,15.813,15.813,0,0,1,.173-2.168h5.074a15.812,15.812,0,0,1,.173,2.168A15.951,15.951,0,0,1,16.379,16.01Zm.271,6.028a16.966,16.966,0,0,0,1.5-3.86h3.2a8.706,8.706,0,0,1-4.694,3.86Zm1.919-6.028a17.905,17.905,0,0,0,.152-2.168,17.905,17.905,0,0,0-.152-2.168h3.665a8.481,8.481,0,0,1,0,4.337Z" transform="translate(-3 -3)" fill="#136e35"/>
</svg>
