<svg xmlns="http://www.w3.org/2000/svg" width="17.478" height="17.479" viewBox="0 0 17.478 17.479">
  <path id="Icon_awesome-envelope-open" data-name="Icon awesome-envelope-open" d="M0,15.206a1.573,1.573,0,0,0,1.573,1.573H15.205a1.573,1.573,0,0,0,1.573-1.573V6.578a1.573,1.573,0,0,0-.6-1.238c-.816-.64-1.491-1.159-5.381-3.982C10.244.956,9.15-.011,8.389,0c-.76-.012-1.855.956-2.406,1.358C2.094,4.181,1.418,4.7.6,5.34A1.573,1.573,0,0,0,0,6.578ZM2.152,8.763A.262.262,0,0,1,2.523,8.7c.749.553,1.817,1.334,3.46,2.526.551.4,1.645,1.369,2.406,1.358.761.011,1.853-.955,2.406-1.358,1.642-1.192,2.711-1.973,3.46-2.526a.262.262,0,0,1,.372.062l.3.432a.262.262,0,0,1-.06.359c-.75.554-1.817,1.333-3.451,2.519-.664.484-1.852,1.567-3.024,1.559-1.171.008-2.358-1.074-3.023-1.559-1.634-1.186-2.7-1.965-3.451-2.519a.262.262,0,0,1-.06-.359l.3-.432Z" transform="translate(0.35 0.35)" fill="none" stroke="#fff" stroke-width="0.7"/>
</svg>
