<svg xmlns="http://www.w3.org/2000/svg" width="175" height="117" viewBox="0 0 175 117">
  <g id="Group_17933" data-name="Group 17933" transform="translate(-443.999 -796.387)">
    <g id="Rectangle_2499" data-name="Rectangle 2499" transform="translate(443.999 796.387)" fill="#fff" stroke="#bababa" stroke-width="0.4">
      <rect width="175" height="117" rx="6" stroke="none"/>
      <rect x="0.2" y="0.2" width="174.6" height="116.6" rx="5.8" fill="none"/>
    </g>
    <g id="logo.b2f59122" transform="translate(450.906 812.387)">
      <g id="Group_17927" data-name="Group 17927" transform="translate(0)">
        <g id="Group_17852" data-name="Group 17852" transform="translate(45.008)">
          <g id="Group_17849" data-name="Group 17849" transform="translate(31.328)">
            <path id="Path_83458" data-name="Path 83458" d="M94.083,0,44.325,83.909H79.768L129.6,0Z" transform="translate(-44.325)" fill="#007166"/>
          </g>
          <g id="Group_17850" data-name="Group 17850" transform="translate(10.338 41.798)">
            <path id="Path_83459" data-name="Path 83459" d="M52.75,64.527H81.934L61.321,22.416H32.137Z" transform="translate(-32.137 -22.416)" fill="#00ad68"/>
          </g>
          <g id="Group_17851" data-name="Group 17851" transform="translate(0 21.481)">
            <path id="Path_83460" data-name="Path 83460" d="M55.382,11.52H26.134l7.817,16.04H63.2Z" transform="translate(-26.134 -11.52)" fill="#f6b221"/>
          </g>
        </g>
        <g id="Group_17926" data-name="Group 17926" transform="translate(0 20.642)">
          <g id="Group_17873" data-name="Group 17873" transform="translate(0.317)">
            <g id="Group_17859" data-name="Group 17859" transform="translate(0.062)">
              <g id="Group_17855" data-name="Group 17855" transform="translate(0 2.661)">
                <g id="Group_17853" data-name="Group 17853" transform="translate(4.033)">
                  <path id="Path_83461" data-name="Path 83461" d="M3.192,15.432h1.2a.547.547,0,0,0,.441-.205.644.644,0,0,0,.189-.477V13.18a.644.644,0,0,0-.189-.477.552.552,0,0,0-.441-.205h-1.2a.552.552,0,0,0-.441.205.644.644,0,0,0-.189.477v1.57a.644.644,0,0,0,.189.477A.473.473,0,0,0,3.192,15.432Z" transform="translate(-2.562 -12.497)" fill="#435363"/>
                </g>
                <g id="Group_17854" data-name="Group 17854" transform="translate(0 5.324)">
                  <path id="Path_83462" data-name="Path 83462" d="M29.4,26.409a1.018,1.018,0,0,0-.126-.41l-1.135-3.138-.251-.751a14.87,14.87,0,0,0-1.7-3.412,8.135,8.135,0,0,0-1.955-2.047,6.927,6.927,0,0,0-2.27-1.026,10.38,10.38,0,0,0-2.583-.272,8.956,8.956,0,0,0-1.261.069c-.5.067-.947.136-1.324.205a1,1,0,0,0-.379.205.546.546,0,0,0-.126.339V17.4c0,.339.189.477.63.408a1.443,1.443,0,0,0,.5-.069A1.65,1.65,0,0,0,18,17.673a1.123,1.123,0,0,0,.5-.069h.315A6.427,6.427,0,0,1,22.85,18.7a7.663,7.663,0,0,1,2.394,3.343l.632,1.57,1.007,2.525H6.523V17.4a1.055,1.055,0,0,0-.126-.41c-.064-.134-.189-.134-.315-.134H4.758a.85.85,0,0,0-.379.136,1.025,1.025,0,0,0-.126.41V30.5a9.561,9.561,0,0,1-.126,1.57,1.355,1.355,0,0,1-.5.888,2.047,2.047,0,0,1-.945.41,9.194,9.194,0,0,1-1.45.067H.659c-.313,0-.439.136-.439.41v1.3a.556.556,0,0,0,.062.341.516.516,0,0,0,.379.136,1.138,1.138,0,0,1,.692,0h.568a6.354,6.354,0,0,0,2.521-.41A3.148,3.148,0,0,0,5.955,33.78a4.833,4.833,0,0,0,.379-1.365A14.4,14.4,0,0,0,6.46,30.64V28.729H28.586a.793.793,0,0,0,.63-.205.7.7,0,0,0,.189-.544V26.887a.628.628,0,0,0,0-.477Z" transform="translate(-0.22 -15.352)" fill="#435363"/>
                </g>
              </g>
              <g id="Group_17858" data-name="Group 17858" transform="translate(32.023)">
                <g id="Group_17856" data-name="Group 17856" transform="translate(5.988 2.661)">
                  <path id="Path_83463" data-name="Path 83463" d="M22.921,15.432h1.2a.547.547,0,0,0,.441-.205.644.644,0,0,0,.189-.477V13.18a.644.644,0,0,0-.189-.477.552.552,0,0,0-.441-.205h-1.2a.552.552,0,0,0-.441.205.644.644,0,0,0-.189.477v1.57a.638.638,0,0,0,.189.477A.547.547,0,0,0,22.921,15.432Z" transform="translate(-22.291 -12.497)" fill="#435363"/>
                </g>
                <g id="Group_17857" data-name="Group 17857">
                  <path id="Path_83464" data-name="Path 83464" d="M27.26,22.741c0-.477,0-1.026-.062-1.706a1.021,1.021,0,0,0-.127-.41c-.062-.136-.189-.136-.379-.136H25.369a.463.463,0,0,0-.315.136,1.025,1.025,0,0,0-.126.41c0,.75.064,1.5.064,2.115v5.734c0,.477-.064.82-.189.888a2.768,2.768,0,0,1-1.009.136h-.818a2.374,2.374,0,0,1-.756-.069,2.777,2.777,0,0,1-.568-.205,1.871,1.871,0,0,1-.377-.544,3.408,3.408,0,0,1-.126-.957V11.685a1.025,1.025,0,0,0-.126-.41c-.127-.138-.189-.205-.379-.205H19.319a.567.567,0,0,0-.5.615V28.678a5.116,5.116,0,0,0,.253,1.842,2.659,2.659,0,0,0,.694,1.162,3.146,3.146,0,0,0,1.133.615,1.163,1.163,0,0,0,.5.067,1.479,1.479,0,0,0,.568.067h2.2a5.086,5.086,0,0,0,1.007-.067c.315,0,.63-.069.883-.069a1.179,1.179,0,0,0,.568-.136.812.812,0,0,0,.439-.341c.064-.136.127-.341.189-.477.064-.479.064-1.093.126-1.911V24.037c-.062-.41-.062-.888-.126-1.3Z" transform="translate(-18.814 -11.07)" fill="#435363"/>
                </g>
              </g>
            </g>
            <g id="Group_17865" data-name="Group 17865" transform="translate(0 29.756)">
              <g id="Group_17860" data-name="Group 17860">
                <path id="Path_83465" data-name="Path 83465" d="M11.718,42.932a.609.609,0,0,1-.189.41.537.537,0,0,1-.379.205H9.827a.543.543,0,0,1-.379-.205.617.617,0,0,1-.189-.41v-9.76a7.349,7.349,0,0,0-.189-1.844,2.719,2.719,0,0,0-.567-1.16,2.346,2.346,0,0,0-.945-.615,3.894,3.894,0,0,0-1.323-.205,6.1,6.1,0,0,0-1.829.343,11.348,11.348,0,0,0-1.891.819V43a.606.606,0,0,1-.189.41.53.53,0,0,1-.379.205H.751a.536.536,0,0,1-.379-.205.966.966,0,0,1-.188-.477V27.847a1.025,1.025,0,0,1,.126-.41c.126-.134.189-.2.379-.2H2.075a.536.536,0,0,1,.379.205.529.529,0,0,1,.126.41v.544a8.658,8.658,0,0,1,2.142-1.024,7.2,7.2,0,0,1,2.206-.341,4.191,4.191,0,0,1,3.594,1.57,7.9,7.9,0,0,1,1.135,4.574v9.76h.062Z" transform="translate(-0.184 -27.028)" fill="#435363"/>
              </g>
              <g id="Group_17861" data-name="Group 17861" transform="translate(14.497 0)">
                <path id="Path_83466" data-name="Path 83466" d="M17.365,40.338a8.837,8.837,0,0,1-1.829.888,5.415,5.415,0,0,1-1.829.272,2.966,2.966,0,0,1-1.827-.546c-.441-.341-.63-1.024-.63-2.115V38.5a4.1,4.1,0,0,1,.189-1.367,1.725,1.725,0,0,1,.63-.886,3.944,3.944,0,0,1,1.261-.479,15.064,15.064,0,0,1,2.015-.136h2.018Zm2.394,2.592-.064-10.3a6.112,6.112,0,0,0-1.261-4.095c-.818-1.026-2.2-1.5-4.1-1.5a21.808,21.808,0,0,0-2.394.138c-.632.067-1.262.205-1.829.272-.379.069-.568.205-.568.546v1.024c0,.205,0,.341.127.41.062.067.189.067.315.067h.126c.568,0,1.135-.069,1.827-.136.63-.069,1.45-.069,2.334-.069a2.991,2.991,0,0,1,2.268.751,3.907,3.907,0,0,1,.63,2.592v1.162H15.158a13.536,13.536,0,0,0-3.09.272,5.213,5.213,0,0,0-2.018.888,3.709,3.709,0,0,0-1.133,1.5A7.04,7.04,0,0,0,8.6,38.563V38.9a6.055,6.055,0,0,0,.379,2.321,4.261,4.261,0,0,0,1.007,1.5,3.71,3.71,0,0,0,1.45.75,7.162,7.162,0,0,0,1.7.205,5.775,5.775,0,0,0,2.2-.41,11.326,11.326,0,0,0,2.018-1.022v.682a.617.617,0,0,0,.189.41.537.537,0,0,0,.379.205h1.261a.543.543,0,0,0,.379-.205.625.625,0,0,0,.189-.41Z" transform="translate(-8.602 -27.028)" fill="#435363"/>
              </g>
              <g id="Group_17862" data-name="Group 17862" transform="translate(26.41 0.205)">
                <path id="Path_83467" data-name="Path 83467" d="M20.94,43.245a5.574,5.574,0,0,1-.251,1.911,3.673,3.673,0,0,1-.63,1.229A1.919,1.919,0,0,1,18.986,47a4.989,4.989,0,0,1-1.448.205H16.78c-.189,0-.441-.069-.756-.069-.315-.069-.5-.205-.5-.479V45.566c0-.274.189-.41.568-.41h1.135a1.21,1.21,0,0,0,1.007-.341,2.671,2.671,0,0,0,.253-1.5V27.753a1.009,1.009,0,0,1,.126-.41.375.375,0,0,1,.379-.205h1.448a.533.533,0,0,1,.379.205,1.025,1.025,0,0,1,.126.41Z" transform="translate(-15.519 -27.138)" fill="#435363"/>
              </g>
              <g id="Group_17863" data-name="Group 17863" transform="translate(36.054 0.205)">
                <path id="Path_83468" data-name="Path 83468" d="M23.578,42.836a.617.617,0,0,1-.189.41.537.537,0,0,1-.379.205H21.687a.54.54,0,0,1-.379-.205.617.617,0,0,1-.189-.41V27.751a.617.617,0,0,1,.189-.41.537.537,0,0,1,.379-.2H23.01a.53.53,0,0,1,.379.205.61.61,0,0,1,.189.41Z" transform="translate(-21.119 -27.138)" fill="#435363"/>
              </g>
              <g id="Group_17864" data-name="Group 17864" transform="translate(42.357 0.272)">
                <path id="Path_83469" data-name="Path 83469" d="M35.181,42.805a.617.617,0,0,1-.189.41.537.537,0,0,1-.379.205H26.419a1.476,1.476,0,0,1-1.261-.479,1.755,1.755,0,0,1-.379-1.093V41.3a4.409,4.409,0,0,1,.127-1.024,2.616,2.616,0,0,1,.5-.886l7.061-9.487c.062-.136.124-.205.124-.274,0-.136-.062-.205-.251-.205H25.6a.53.53,0,0,1-.379-.205.611.611,0,0,1-.188-.408V27.789a.617.617,0,0,1,.189-.41.53.53,0,0,1,.379-.205h8a1.528,1.528,0,0,1,1.2.41,1.486,1.486,0,0,1,.315,1.093v.682a2.728,2.728,0,0,1-.126.82,2.612,2.612,0,0,1-.5.75L27.364,40.62a.546.546,0,0,0-.126.341c0,.138.064.205.189.205h7.187a.536.536,0,0,1,.379.205.615.615,0,0,1,.188.41v1.024Z" transform="translate(-24.779 -27.174)" fill="#435363"/>
              </g>
            </g>
            <g id="Group_17871" data-name="Group 17871" transform="translate(22.692 24.091)">
              <g id="Group_17868" data-name="Group 17868" transform="translate(6.68 0)">
                <g id="Group_17866" data-name="Group 17866">
                  <path id="Path_83470" data-name="Path 83470" d="M17.241,24.673a.638.638,0,0,1,.189-.477.552.552,0,0,1,.441-.205h1.2a.553.553,0,0,1,.441.205.647.647,0,0,1,.189.477v1.57a.613.613,0,0,1-.189.41.552.552,0,0,1-.441.205h-1.2a.552.552,0,0,1-.443-.205.613.613,0,0,1-.189-.41Z" transform="translate(-17.239 -23.99)" fill="#00ad68"/>
                </g>
                <g id="Group_17867" data-name="Group 17867" transform="translate(6.746)">
                  <path id="Path_83471" data-name="Path 83471" d="M21.156,24.673a.644.644,0,0,1,.189-.477.552.552,0,0,1,.441-.205h1.2a.553.553,0,0,1,.441.205.647.647,0,0,1,.189.477v1.57a.613.613,0,0,1-.189.41.552.552,0,0,1-.441.205h-1.2a.552.552,0,0,1-.441-.205.613.613,0,0,1-.189-.41Z" transform="translate(-21.156 -23.99)" fill="#f6b221"/>
                </g>
              </g>
              <g id="Group_17870" data-name="Group 17870" transform="translate(0 0)">
                <g id="Group_17869" data-name="Group 17869">
                  <path id="Path_83472" data-name="Path 83472" d="M13.36,24.673a.638.638,0,0,1,.189-.477.552.552,0,0,1,.441-.205h1.2a.553.553,0,0,1,.441.205.64.64,0,0,1,.189.477v1.57a.606.606,0,0,1-.189.41.552.552,0,0,1-.441.205h-1.2a.552.552,0,0,1-.441-.205.606.606,0,0,1-.189-.41Z" transform="translate(-13.36 -23.99)" fill="#007166"/>
                </g>
              </g>
            </g>
            <g id="Group_17872" data-name="Group 17872" transform="translate(36.054 29.961)">
              <path id="Path_83473" data-name="Path 83473" d="M23.578,42.836a.617.617,0,0,1-.189.41.537.537,0,0,1-.379.205H21.687a.54.54,0,0,1-.379-.205.617.617,0,0,1-.189-.41V27.751a.617.617,0,0,1,.189-.41.537.537,0,0,1,.379-.2H23.01a.53.53,0,0,1,.379.205.61.61,0,0,1,.189.41Z" transform="translate(-21.119 -27.138)" fill="#435363"/>
            </g>
          </g>
          <g id="Group_17898" data-name="Group 17898" transform="translate(0 51.666)">
            <g id="Group_17874" data-name="Group 17874" transform="translate(0 0.272)">
              <path id="Path_83474" data-name="Path 83474" d="M1.325,39.334l.315.067c.062,0,.062,0,.062-.067v-.341c0-.069,0-.069-.062-.069H1.387c-.062,0-.062,0-.062.069v.341Zm-.758,0,.379.067c.064,0,.064,0,.064-.067v-.341c0-.069,0-.069-.064-.069H.63c-.064,0-.064,0-.064.069v.341ZM.441,41.788v-.477a.851.851,0,0,1,.758-.82.8.8,0,0,1,.756.82v1.3H1.2a.849.849,0,0,1-.756-.82Zm2.836.82H2.4v-1.3a1.58,1.58,0,0,0-.379-.888.987.987,0,0,0-.82-.41,1.356,1.356,0,0,0-.818.41A1.139,1.139,0,0,0,0,41.311v.477a1.58,1.58,0,0,0,.379.888.987.987,0,0,0,.818.41H3.341Z" transform="translate(0 -38.924)" fill="#8e9090"/>
            </g>
            <g id="Group_17875" data-name="Group 17875" transform="translate(3.026 1.499)">
              <path id="Path_83475" data-name="Path 83475" d="M3.4,43.065H3.143c-.062,0-.062,0-.062.067v.341c0,.069,0,.069.062.069H3.4c.062,0,.062,0,.062-.069v-.341S3.459,43.065,3.4,43.065Zm-.758,0H2.324c-.062,0-.062,0-.062.067v.341c0,.069,0,.069.062.069h.315c.064,0,.064,0,.064-.069v-.341A.065.065,0,0,0,2.639,43.065ZM2.892,41.7c0,.205-.064.341-.253.341H1.757v.477h.82a.687.687,0,0,0,.5-.205.9.9,0,0,0,.63.205H3.9V42.04H3.648c-.126,0-.251,0-.315-.069-.064,0-.064-.069-.064-.136V39.649c0-.067,0-.067-.062-.067H2.954c-.062,0-.062,0-.062.067V41.7Z" transform="translate(-1.757 -39.582)" fill="#8e9090"/>
            </g>
            <g id="Group_17876" data-name="Group 17876" transform="translate(5.043 0.244)">
              <path id="Path_83476" data-name="Path 83476" d="M4.5,38.937H4.252c-.064,0-.064,0-.064.069v.341c0,.067,0,.067.064.067H4.5c.064,0,.064,0,.064-.067v-.341C4.568,38.937,4.568,38.868,4.5,38.937Zm-.379,3.345c0,.272-.062.341-.251.272H2.928v.477h.883a.7.7,0,0,0,.756-.75V40.233c0-.067,0-.067-.064-.067H4.189c-.062,0-.062,0-.062.067v2.049Z" transform="translate(-2.928 -38.909)" fill="#8e9090"/>
            </g>
            <g id="Group_17877" data-name="Group 17877" transform="translate(7.438 1.363)">
              <path id="Path_83477" data-name="Path 83477" d="M4.7,41.284v-.477a.851.851,0,0,1,.756-.82.8.8,0,0,1,.758.82v1.3H5.454a.851.851,0,0,1-.758-.82Zm1.576,1.365a.73.73,0,0,1-.694.751H5.011c-.062,0-.062,0-.062.069v.272c0,.069,0,.069.064.069h.568A1,1,0,0,0,6.4,43.47a1.179,1.179,0,0,0,.315-.82V40.807a1.58,1.58,0,0,0-.379-.888.987.987,0,0,0-.82-.41,1.356,1.356,0,0,0-.818.41,1.139,1.139,0,0,0-.379.888v.477a1.58,1.58,0,0,0,.379.888.987.987,0,0,0,.818.41Z" transform="translate(-4.319 -39.509)" fill="#8e9090"/>
            </g>
            <g id="Group_17878" data-name="Group 17878" transform="translate(10.086 1.501)">
              <path id="Path_83478" data-name="Path 83478" d="M6.739,42.723V39.65c0-.067,0-.067.062-.067h.253c.062,0,.062,0,.062.067v2.39h.947v.477H7.18v.205a.9.9,0,0,1-.945,1.024H5.92c-.064,0-.064,0-.064-.069v-.272c0-.069,0-.069.064-.069h.251q.568,0,.568-.615Z" transform="translate(-5.856 -39.583)" fill="#8e9090"/>
            </g>
            <g id="Group_17879" data-name="Group 17879" transform="translate(11.977 0.272)">
              <path id="Path_83479" data-name="Path 83479" d="M8.657,39.4h.251c.064,0,.064,0,.064-.067v-.341c0-.069,0-.069-.064-.069H8.657c-.064,0-.064,0-.064.069v.341A.064.064,0,0,0,8.657,39.4Zm-.758,0h.315c.064,0,.064,0,.064-.067v-.341c0-.069,0-.069-.064-.069H7.9c-.062,0-.062,0-.062.069v.341A.062.062,0,0,0,7.9,39.4Zm.315,2.868c0,.205-.062.341-.251.341H6.954v.477H7.9a.68.68,0,0,0,.5-.205.9.9,0,0,0,.63.205h.189v-.479H8.972c-.127,0-.253,0-.315-.069-.064,0-.064-.069-.064-.136V40.218c0-.067,0-.067-.064-.067H8.278c-.064,0-.064,0-.064.067v2.049Z" transform="translate(-6.954 -38.924)" fill="#8e9090"/>
            </g>
            <g id="Group_17880" data-name="Group 17880" transform="translate(14.184 0.203)">
              <path id="Path_83480" data-name="Path 83480" d="M10.442,38.887h.441c.062,0,.062,0,.062.069v.272c0,.069,0,.069-.062.069h-.441c-.568,0-.947.341-1.009,1.026H10.5a1.022,1.022,0,0,1,.883.408,1.8,1.8,0,0,1,.379,1.024v.682c0,.067,0,.136.062.136.062.069.189.069.315.069h.315v.477h-.253a.9.9,0,0,1-.63-.205.773.773,0,0,1-.567.272H8.236V42.71h2.773a.31.31,0,0,0,.315-.341v-.546a.853.853,0,0,0-.82-.955H9.243a.212.212,0,0,1-.189-.205c-.062-1.093.443-1.775,1.388-1.775Z" transform="translate(-8.236 -38.887)" fill="#8e9090"/>
            </g>
            <g id="Group_17881" data-name="Group 17881" transform="translate(18.218)">
              <path id="Path_83481" data-name="Path 83481" d="M11.523,42.4v-3.55c0-.067,0-.067.064-.067h.251c.064,0,.064,0,.064.067V42.4a.689.689,0,0,1-.694.75h-.63v-.477h.63c.251.069.315-.069.315-.272Z" transform="translate(-10.578 -38.778)" fill="#8e9090"/>
            </g>
            <g id="Group_17882" data-name="Group 17882" transform="translate(20.298)">
              <path id="Path_83482" data-name="Path 83482" d="M12.668,42.121l.315.069c.064,0,.064,0,.064-.069v-2.8c0-.069,0-.069-.064-.069h-.251c-.064,0-.064,0-.064.067v2.8ZM12.8,44.1a.284.284,0,0,1,.189-.274c.062,0,.126.069.189.136v.069a.063.063,0,0,0,.062.069l.126-.069c.064,0,.064-.069.064-.069V43.9a.349.349,0,0,0-.379-.274.414.414,0,0,0-.316.137.487.487,0,0,0-.125.342v.341h-.189c-.064,0-.064,0-.064.067v.136c0,.069,0,.069.064.069h.945c.064,0,.064,0,.064-.069V44.51c0-.067,0-.067-.064-.067h-.568V44.1Zm1.323-1.98q0,.615-.568.615h-1.7c-.062,0-.062,0-.062.067v.274c0,.067,0,.067.062.067h1.7a.9.9,0,0,0,.945-1.024V38.845c0-.067,0-.067-.064-.067h-.251c-.064,0-.064,0-.064.067Z" transform="translate(-11.786 -38.778)" fill="#8e9090"/>
            </g>
            <g id="Group_17883" data-name="Group 17883" transform="translate(23.954 0)">
              <path id="Path_83483" data-name="Path 83483" d="M14.224,43.214h-.253c-.062,0-.062,0-.062-.069v-4.3c0-.067,0-.067.062-.067h.253c.062,0,.062,0,.062.067l-.062,4.369C14.286,43.145,14.286,43.214,14.224,43.214Z" transform="translate(-13.909 -38.778)" fill="#8e9090"/>
            </g>
            <g id="Group_17884" data-name="Group 17884" transform="translate(26.475 0.272)">
              <path id="Path_83484" data-name="Path 83484" d="M16.634,39.334c0,.067.064.067,0,0l.315.067c.064,0,.064,0,.064-.067v-.341c0-.069,0-.069-.064-.069H16.7c-.064,0-.064,0-.064.069Zm-.758,0,.379.067c.064,0,.064,0,.064-.067v-.341c0-.069,0-.069-.064-.069H15.94c-.062,0-.062,0-.062.069v.341c0,.067.062.067,0,0Zm-.062,2.456v-.477a.759.759,0,1,1,1.514,0v1.3H16.57a.8.8,0,0,1-.756-.82Zm2.836.82h-.882v-1.3a1.242,1.242,0,0,0-.379-.888.987.987,0,0,0-.82-.41,1.351,1.351,0,0,0-.818.41,1.139,1.139,0,0,0-.379.888v.477a1.58,1.58,0,0,0,.379.888.987.987,0,0,0,.818.41h2.08Z" transform="translate(-15.373 -38.924)" fill="#8e9090"/>
            </g>
            <g id="Group_17885" data-name="Group 17885" transform="translate(29.438 1.499)">
              <path id="Path_83485" data-name="Path 83485" d="M18.543,43.065c-.064,0-.064,0-.064.067v.341c0,.069,0,.069.064.069h.251c.064,0,.064,0,.064-.069v-.341Zm-.82,0c-.062,0-.062,0-.062.067v.341c0,.069,0,.069.062.069h.315c.064,0,.064,0,.064-.069v-.341Zm.568-1.365c0,.205-.064.341-.315.341h-.883v.477h.883a.68.68,0,0,0,.5-.205.9.9,0,0,0,.63.205H19.3V42.04h-.251c-.126,0-.253,0-.315-.069-.064,0-.064-.069-.064-.136V39.649c0-.067,0-.067-.062-.067h-.253c-.062,0-.062,0-.062.067V41.7Z" transform="translate(-17.093 -39.582)" fill="#8e9090"/>
            </g>
            <g id="Group_17886" data-name="Group 17886" transform="translate(31.582)">
              <path id="Path_83486" data-name="Path 83486" d="M19.283,42.4v-3.55c0-.067,0-.067.062-.067H19.6c.062,0,.062,0,.062.067V42.4a.688.688,0,0,1-.692.75h-.63v-.477h.63c.251.069.315-.069.315-.272Z" transform="translate(-18.338 -38.778)" fill="#8e9090"/>
            </g>
            <g id="Group_17887" data-name="Group 17887" transform="translate(33.724 1.43)">
              <path id="Path_83487" data-name="Path 83487" d="M22.167,42.072h.251v.479h-.189a.6.6,0,0,1-.567-.274L21.6,42.21a1,1,0,0,1-.756.341h-1.2c-.064,0-.064,0-.064-.069V42.21c0-.069,0-.069.064-.069h1.2c.379,0,.568-.136.568-.546V40.64a.708.708,0,0,0-.63-.682,1.179,1.179,0,0,0-.568.136l-.126.069h-.126l-.126-.205v-.069s0-.067.062-.067l.126-.069a1.2,1.2,0,0,1,1.514.136,1.141,1.141,0,0,1,.315.751V41.8c-.064.136.126.274.315.274Z" transform="translate(-19.582 -39.545)" fill="#8e9090"/>
            </g>
            <g id="Group_17888" data-name="Group 17888" transform="translate(36.435 1.365)">
              <path id="Path_83488" data-name="Path 83488" d="M22.67,40.192a.773.773,0,0,1,.567-.274.971.971,0,0,1,.568.205c.189.205.313.341.313.546l-.63,1.434h-.5l-.632-1.436A2.1,2.1,0,0,1,22.67,40.192Zm2.521,2.387v-.544h-1.2l.568-1.3V40.67a1.751,1.751,0,0,0-.443-.82,1.435,1.435,0,0,0-.882-.339,1.2,1.2,0,0,0-.883.41,1.475,1.475,0,0,0-.441.819v.067l.568,1.3H21.156v.477h3.909Z" transform="translate(-21.156 -39.51)" fill="#8e9090"/>
            </g>
            <g id="Group_17889" data-name="Group 17889" transform="translate(40.217)">
              <path id="Path_83489" data-name="Path 83489" d="M24.3,42.4v-3.55c0-.067,0-.067.064-.067h.251c.064,0,.064,0,.064.067V42.4a.689.689,0,0,1-.694.75h-.63v-.477h.63C24.172,42.737,24.3,42.6,24.3,42.4Z" transform="translate(-23.352 -38.778)" fill="#8e9090"/>
            </g>
            <g id="Group_17890" data-name="Group 17890" transform="translate(42.487 0)">
              <path id="Path_83490" data-name="Path 83490" d="M24.985,43.214h-.253c-.062,0-.062,0-.062-.069v-4.3c0-.067,0-.067.062-.067h.253c.062,0,.062,0,.062.067l-.062,4.369C25.047,43.145,25.047,43.214,24.985,43.214Z" transform="translate(-24.67 -38.778)" fill="#8e9090"/>
            </g>
            <g id="Group_17891" data-name="Group 17891" transform="translate(44.944 0.819)">
              <path id="Path_83491" data-name="Path 83491" d="M28.556,39.625l.379.069c.062,0,.062,0,.062-.069v-.341c0-.067,0-.067-.064-.067h-.315c-.062,0-.062,0-.062.067v.341Zm-.758,0h0l.317.069c.062,0,.062,0,.062-.069v-.341c0-.067,0-.067-.062-.067h-.253c-.062,0-.062,0-.062.067v.341Zm1.893,2.39c0,.272-.127.341-.315.341H27.358a.87.87,0,0,1-.818-.888.884.884,0,0,1,.441-.82l.126-.067c.064,0,.064,0,.064-.069l-.127-.272c0-.069,0-.069-.062-.069h-.064l-.126.069a1.141,1.141,0,0,0-.5.477,1.221,1.221,0,0,0-.189.682,1.3,1.3,0,0,0,.379.957,1.2,1.2,0,0,0,.882.41h2.018a.689.689,0,0,0,.692-.751V39.967c0-.067,0-.067-.062-.067h-.253c-.062,0-.062,0-.062.067Z" transform="translate(-26.097 -39.217)" fill="#8e9090"/>
            </g>
            <g id="Group_17892" data-name="Group 17892" transform="translate(49.861 0.067)">
              <path id="Path_83492" data-name="Path 83492" d="M29.646,42.7H29.9v.479h-.251a.659.659,0,0,1-.694-.751V38.883c0-.069,0-.069.064-.069h.251c.064,0,.064,0,.064.069v3.548c0,.205.126.274.315.274Z" transform="translate(-28.952 -38.814)" fill="#8e9090"/>
            </g>
            <g id="Group_17893" data-name="Group 17893" transform="translate(50.619 1.365)">
              <path id="Path_83493" data-name="Path 83493" d="M31.6,42.1H30.84v-1.3a.759.759,0,1,1,1.514,0v.477a.8.8,0,0,1-.758.82Zm.818-2.182a1.1,1.1,0,0,0-.882-.41,1.36,1.36,0,0,0-.82.41,1.139,1.139,0,0,0-.379.886v1.3h-.944v.477h2.142a1.359,1.359,0,0,0,.882-.41,1.139,1.139,0,0,0,.379-.888v-.477a1.242,1.242,0,0,0-.379-.888Z" transform="translate(-29.392 -39.51)" fill="#8e9090"/>
            </g>
            <g id="Group_17894" data-name="Group 17894" transform="translate(54.842 1.43)">
              <path id="Path_83494" data-name="Path 83494" d="M34.429,42.072h.251v.479h-.189a.6.6,0,0,1-.568-.274l-.062-.067a1,1,0,0,1-.758.341h-1.2c-.062,0-.062,0-.062-.069V42.21c0-.069,0-.069.062-.069h1.2c.379,0,.568-.136.568-.546V40.64a.708.708,0,0,0-.632-.682,1.179,1.179,0,0,0-.568.136l-.124.069h-.127l-.126-.205v-.069a.065.065,0,0,1,.064-.067l.126-.069a1.2,1.2,0,0,1,1.514.136,1.14,1.14,0,0,1,.315.751V41.8c-.064.136.062.274.315.274Z" transform="translate(-31.844 -39.545)" fill="#8e9090"/>
            </g>
            <g id="Group_17895" data-name="Group 17895" transform="translate(57.491 0.272)">
              <path id="Path_83495" data-name="Path 83495" d="M35.209,39.334l.379.067c.062,0,.062,0,.062-.067v-.341c0-.069,0-.069-.064-.069h-.315c-.062,0-.062,0-.062.069v.341ZM36.342,42c0,.41-.126.615-.567.682H33.382v.477h2.394a1.009,1.009,0,0,0,.758-.341c.124.274.377.341.692.341h.189v-.477h-.253a.45.45,0,0,1-.315-.067c-.062,0-.062-.069-.062-.138v-.955a1.452,1.452,0,0,0-.379-1.026,1.233,1.233,0,0,0-.945-.408A1.457,1.457,0,0,0,34.2,40.7l-.064.136V40.9l.064.067.189.136h.062l.064-.067.064-.136a.93.93,0,0,1,.882-.479.779.779,0,0,1,.63.274.915.915,0,0,1,.251.682V42Z" transform="translate(-33.382 -38.924)" fill="#8e9090"/>
            </g>
            <g id="Group_17896" data-name="Group 17896" transform="translate(61.398)">
              <path id="Path_83496" data-name="Path 83496" d="M36.6,42.4v-3.55c0-.067,0-.067.062-.067h.253c.062,0,.062,0,.062.067V42.4a.688.688,0,0,1-.692.75h-.63v-.477h.63C36.533,42.737,36.6,42.6,36.6,42.4Z" transform="translate(-35.651 -38.778)" fill="#8e9090"/>
            </g>
            <g id="Group_17897" data-name="Group 17897" transform="translate(63.73 0)">
              <path id="Path_83497" data-name="Path 83497" d="M37.32,43.214h-.253c-.062,0-.062,0-.062-.069v-4.3c0-.067,0-.067.062-.067h.253c.062,0,.062,0,.062.067l-.062,4.369C37.382,43.145,37.382,43.214,37.32,43.214Z" transform="translate(-37.005 -38.778)" fill="#8e9090"/>
            </g>
          </g>
          <g id="Group_17925" data-name="Group 17925" transform="translate(0.126 58.49)">
            <g id="Group_17899" data-name="Group 17899" transform="translate(0 0.134)">
              <path id="Path_83498" data-name="Path 83498" d="M.956,42.512H1.4v3.345a1.3,1.3,0,0,1-.189.75.642.642,0,0,1-.63.274H.2c-.062,0-.062,0-.126-.069l.064-.41a.641.641,0,0,0,.315.069.292.292,0,0,0,.315-.205,1.1,1.1,0,0,0,.062-.477V42.51Z" transform="translate(-0.073 -42.51)" fill="#8e9090"/>
            </g>
            <g id="Group_17900" data-name="Group 17900" transform="translate(2.206 1.365)">
              <path id="Path_83499" data-name="Path 83499" d="M1.922,43.17v2.185c0,.134.062.2.062.272l.189.205a.364.364,0,0,0,.253.067c.126,0,.189,0,.251-.069s.126-.067.189-.136l.189-.205c.062-.067.062-.136.126-.272V43.17h.441v2.661a.92.92,0,0,0,.064.41H3.372l-.127-.477a1.118,1.118,0,0,1-.379.41.8.8,0,0,1-.567.136c-.126,0-.315,0-.379-.069-.124-.069-.189-.136-.313-.205a1.149,1.149,0,0,1-.189-.41,2.018,2.018,0,0,1-.064-.613V43.17h.568Z" transform="translate(-1.354 -43.17)" fill="#8e9090"/>
            </g>
            <g id="Group_17901" data-name="Group 17901" transform="translate(5.296)">
              <path id="Path_83500" data-name="Path 83500" d="M4.283,46.533a.524.524,0,0,1-.315-.069c-.127-.067-.189-.205-.253-.272s-.062-.205-.126-.341a1.236,1.236,0,0,1-.064-.477,1.609,1.609,0,0,1,.253-.888.779.779,0,0,1,.63-.274,2.568,2.568,0,0,1,.315.069c.126.069.189.069.251.136v1.5a1.126,1.126,0,0,1-.251.477A.86.86,0,0,1,4.283,46.533Zm1.133-4.095H4.977v1.3c-.062,0-.189-.067-.251-.067H4.409a1.233,1.233,0,0,0-.947.41A2.153,2.153,0,0,0,3.148,45.3,2.185,2.185,0,0,0,3.4,46.533a.914.914,0,0,0,.82.41,1.116,1.116,0,0,0,.5-.138.794.794,0,0,0,.315-.341l.126.41H5.48a1.236,1.236,0,0,1-.064-.477V42.438Z" transform="translate(-3.148 -42.438)" fill="#8e9090"/>
            </g>
            <g id="Group_17902" data-name="Group 17902" transform="translate(8.447 0.136)">
              <path id="Path_83501" data-name="Path 83501" d="M5.1,43.74h.441v3.071H5.1Zm-.126-.888a.438.438,0,0,1,.062-.272c.064-.069.127-.069.253-.069s.189,0,.251.069a.36.36,0,0,1,.127.272c0,.069-.064.205-.127.205-.062.067-.126.067-.251.067s-.189,0-.253-.067C5.04,42.988,4.978,42.921,4.978,42.852Z" transform="translate(-4.978 -42.511)" fill="#8e9090"/>
            </g>
            <g id="Group_17903" data-name="Group 17903" transform="translate(9.834 1.227)">
              <path id="Path_83502" data-name="Path 83502" d="M7.863,46.1l-.379.205a1.127,1.127,0,0,1-.5.069,1.712,1.712,0,0,1-.568-.138,1.709,1.709,0,0,1-.379-.341.767.767,0,0,1-.189-.477c0-.136-.062-.41-.062-.682A2.314,2.314,0,0,1,6.1,43.506a1.028,1.028,0,0,1,.883-.41.859.859,0,0,1,.441.069.463.463,0,0,1,.315.138l-.126.41c-.064-.069-.189-.069-.315-.138a.529.529,0,0,0-.315-.069c-.568,0-.82.41-.82,1.162a1.458,1.458,0,0,0,.062.477c.064.205.064.272.127.341a.506.506,0,0,0,.251.272.745.745,0,0,0,.379.069.744.744,0,0,0,.379-.069c.124-.067.188-.067.251-.136Z" transform="translate(-5.783 -43.096)" fill="#8e9090"/>
            </g>
            <g id="Group_17904" data-name="Group 17904" transform="translate(12.544 0.136)">
              <path id="Path_83503" data-name="Path 83503" d="M7.421,43.74h.441v3.071H7.421Zm-.064-.888a.428.428,0,0,1,.064-.272c.062-.069.126-.069.251-.069s.189,0,.251.069a.36.36,0,0,1,.127.272c0,.069-.064.205-.127.205-.062.067-.126.067-.251.067s-.189,0-.251-.067A.263.263,0,0,1,7.357,42.852Z" transform="translate(-7.357 -42.511)" fill="#8e9090"/>
            </g>
            <g id="Group_17905" data-name="Group 17905" transform="translate(13.869 1.365)">
              <path id="Path_83504" data-name="Path 83504" d="M9.071,45.9a1.539,1.539,0,0,1-.443-.136.546.546,0,0,1-.126-.341c0-.136,0-.205.064-.274s.126-.067.189-.136c.126,0,.189-.067.315-.067h.694v.477a.239.239,0,0,0-.064.136c0,.069-.064.069-.126.136s-.127.136-.189.136a.527.527,0,0,1-.315.069Zm-.694-2.184c.064,0,.126-.069.189-.069.126,0,.189-.069.251-.069a.457.457,0,0,1,.253-.067h.189a.687.687,0,0,1,.441.136.856.856,0,0,1,.126.477v.341H9.576c-.189,0-.379.069-.568.069a.86.86,0,0,0-.441.136.644.644,0,0,0-.315.274,1.048,1.048,0,0,0-.126.477.668.668,0,0,0,.062.341c.064.136.126.136.189.272s.126.136.253.205c.062.069.189.069.315.069a.527.527,0,0,0,.315-.069c.126-.069.189-.069.251-.136.064,0,.126-.136.189-.136s.062-.069.126-.138l.126.41h.315a3.276,3.276,0,0,1-.062-.341V43.716a.535.535,0,0,0-.127-.274.88.88,0,0,0-.251-.205,1.159,1.159,0,0,0-.5-.067,1.65,1.65,0,0,0-.568.067,4.375,4.375,0,0,0-.5.205Z" transform="translate(-8.126 -43.17)" fill="#8e9090"/>
            </g>
            <g id="Group_17906" data-name="Group 17906" transform="translate(16.957 0.134)">
              <path id="Path_83505" data-name="Path 83505" d="M10.36,46.06a.537.537,0,0,0,.064.341.22.22,0,0,0,.189.069H10.8a.221.221,0,0,0,.189-.069l.062.41c-.064,0-.126.069-.251.069h-.253a.862.862,0,0,1-.441-.138.7.7,0,0,1-.189-.544V42.51h.441Z" transform="translate(-9.919 -42.51)" fill="#8e9090"/>
            </g>
            <g id="Group_17907" data-name="Group 17907" transform="translate(20.046 0.136)">
              <path id="Path_83506" data-name="Path 83506" d="M11.777,42.511h2.142v.477h-1.7v1.434h1.576V44.9H12.218v1.5h1.7v.479H11.713l.062-4.369Z" transform="translate(-11.713 -42.511)" fill="#8e9090"/>
            </g>
            <g id="Group_17908" data-name="Group 17908" transform="translate(23.134 0.134)">
              <path id="Path_83507" data-name="Path 83507" d="M13.947,46.06a.537.537,0,0,0,.064.341.22.22,0,0,0,.189.069h.189a.221.221,0,0,0,.189-.069l.062.41c-.064,0-.126.069-.251.069h-.253a.851.851,0,0,1-.441-.138.7.7,0,0,1-.189-.544V42.51h.441v3.548Z" transform="translate(-13.506 -42.51)" fill="#8e9090"/>
            </g>
            <g id="Group_17909" data-name="Group 17909" transform="translate(24.521 1.229)">
              <path id="Path_83508" data-name="Path 83508" d="M16.014,43.848a.951.951,0,0,1,.189.681H14.816a1.339,1.339,0,0,1,.253-.682.836.836,0,0,1,.568-.205c.188,0,.313,0,.377.205Zm.379,1.773a1.361,1.361,0,0,1-.317.205.756.756,0,0,1-.379.067.884.884,0,0,1-.441-.067c-.062-.069-.189-.136-.251-.205-.126-.069-.126-.205-.189-.341a1.1,1.1,0,0,1-.062-.477h1.827a1.421,1.421,0,0,0,.064-.477,1.456,1.456,0,0,0-.126-.615c-.064-.136-.189-.205-.253-.341a.344.344,0,0,0-.315-.205.755.755,0,0,0-.379-.067,1.066,1.066,0,0,0-.945.41,2.139,2.139,0,0,0-.315,1.227,2.026,2.026,0,0,0,.064.682c.064.136.189.341.251.477a.657.657,0,0,0,.379.341,1.713,1.713,0,0,0,.568.138,1.594,1.594,0,0,0,.567-.069c.189,0,.315-.136.441-.205Z" transform="translate(-14.311 -43.097)" fill="#8e9090"/>
            </g>
            <g id="Group_17910" data-name="Group 17910" transform="translate(27.421 1.227)">
              <path id="Path_83509" data-name="Path 83509" d="M18.075,46.1l-.379.205a1.127,1.127,0,0,1-.5.069,1.712,1.712,0,0,1-.568-.138c-.189-.067-.251-.205-.379-.341a.767.767,0,0,1-.189-.477,2.877,2.877,0,0,1,.253-1.911,1.028,1.028,0,0,1,.883-.41.859.859,0,0,1,.441.069.463.463,0,0,1,.315.138l-.126.41c-.064-.069-.189-.069-.315-.138a.529.529,0,0,0-.315-.069c-.568,0-.82.41-.82,1.162a1.458,1.458,0,0,0,.062.477c.064.205.064.272.127.341a.506.506,0,0,0,.251.272,1.075,1.075,0,0,0,.758,0c.124-.067.188-.067.251-.136Z" transform="translate(-15.995 -43.096)" fill="#8e9090"/>
            </g>
            <g id="Group_17911" data-name="Group 17911" transform="translate(29.754 0.613)">
              <path id="Path_83510" data-name="Path 83510" d="M17.35,43.518h.441V42.9l.441-.136v.751h.758v.41h-.758v1.706a1.1,1.1,0,0,0,.062.477.327.327,0,0,0,.253.136H18.8c.064,0,.126-.069.253-.069l.126.341c-.126.069-.189.069-.315.138a.759.759,0,0,1-.379.067.593.593,0,0,1-.5-.205,1.1,1.1,0,0,1-.126-.682V44h-.441v-.477Z" transform="translate(-17.35 -42.767)" fill="#8e9090"/>
            </g>
            <g id="Group_17912" data-name="Group 17912" transform="translate(32.023 1.224)">
              <path id="Path_83511" data-name="Path 83511" d="M19.991,43.713a.635.635,0,0,0-.315-.069.508.508,0,0,0-.379.138c-.126.067-.126.205-.189.341v2.184h-.441V43.236h.315l.064.341a.666.666,0,0,1,.251-.341.747.747,0,0,1,.758-.069Z" transform="translate(-18.667 -43.094)" fill="#8e9090"/>
            </g>
            <g id="Group_17913" data-name="Group 17913" transform="translate(33.787 1.296)">
              <path id="Path_83512" data-name="Path 83512" d="M20.2,44.772c0-.82.251-1.231.756-1.162a.635.635,0,0,1,.379.069.513.513,0,0,1,.251.272c.064.069.064.205.126.343a1.25,1.25,0,0,1,.064.477c0,.75-.253,1.16-.758,1.16a.627.627,0,0,1-.377-.069c-.126-.067-.189-.205-.251-.272s-.064-.136-.127-.341A1.458,1.458,0,0,1,20.2,44.772Zm-.5,0a2.244,2.244,0,0,0,.064.682c.062.136.189.341.251.477a.669.669,0,0,0,.379.341,1.709,1.709,0,0,0,.567.136A1.064,1.064,0,0,0,21.9,46a2.318,2.318,0,0,0,.315-1.227,2.026,2.026,0,0,0-.064-.682c-.062-.136-.189-.341-.251-.477a.661.661,0,0,0-.379-.343,1.756,1.756,0,0,0-.567-.136,1.064,1.064,0,0,0-.945.41A2.318,2.318,0,0,0,19.692,44.772Z" transform="translate(-19.692 -43.133)" fill="#8e9090"/>
            </g>
            <g id="Group_17914" data-name="Group 17914" transform="translate(37.065 1.16)">
              <path id="Path_83513" data-name="Path 83513" d="M23.36,46.336V44.561a2.23,2.23,0,0,0-.126-.75.524.524,0,0,0-.441-.274.687.687,0,0,0-.5.205c-.126.136-.253.272-.253.41v2.115H21.6V43.2h.315l.064.341c.062-.136.189-.205.379-.341a.8.8,0,0,1,.567-.136c.126,0,.315,0,.379.069.126.067.189.136.315.205a1.168,1.168,0,0,1,.189.41,1.844,1.844,0,0,1,.062.613V46.2h-.5v.136Z" transform="translate(-21.595 -43.06)" fill="#8e9090"/>
            </g>
            <g id="Group_17915" data-name="Group 17915" transform="translate(40.091 0.136)">
              <path id="Path_83514" data-name="Path 83514" d="M23.478,43.74h.443v3.071h-.443Zm-.126-.888a.428.428,0,0,1,.064-.272c.062-.069.126-.069.251-.069a.356.356,0,0,1,.253.069.365.365,0,0,1,.126.272c0,.069-.064.205-.126.205-.064.067-.127.067-.253.067a.359.359,0,0,1-.251-.067C23.416,42.988,23.352,42.921,23.352,42.852Z" transform="translate(-23.352 -42.511)" fill="#8e9090"/>
            </g>
            <g id="Group_17916" data-name="Group 17916" transform="translate(41.477 1.227)">
              <path id="Path_83515" data-name="Path 83515" d="M26.237,46.1l-.379.205a1.123,1.123,0,0,1-.5.069,1.712,1.712,0,0,1-.568-.138c-.189-.067-.251-.205-.379-.341a.768.768,0,0,1-.188-.477,2.251,2.251,0,0,1-.064-.682,2.33,2.33,0,0,1,.315-1.229,1.028,1.028,0,0,1,.883-.41.859.859,0,0,1,.441.069.463.463,0,0,1,.315.138l-.126.41c-.064-.069-.189-.069-.315-.138a.527.527,0,0,0-.315-.069c-.568,0-.82.41-.82,1.162a1.421,1.421,0,0,0,.064.477c.062.205.062.272.126.341a.506.506,0,0,0,.251.272,1.075,1.075,0,0,0,.758,0c.126-.067.189-.067.251-.136Z" transform="translate(-24.157 -43.096)" fill="#8e9090"/>
            </g>
            <g id="Group_17917" data-name="Group 17917" transform="translate(45.449 0.067)">
              <path id="Path_83516" data-name="Path 83516" d="M28.418,45.75a.615.615,0,0,0-.126-.41.586.586,0,0,0-.379-.272c-.126-.067-.315-.136-.441-.205a1,1,0,0,1-.441-.272,2.22,2.22,0,0,1-.379-.41.883.883,0,0,1-.126-.613,1.181,1.181,0,0,1,.315-.82,1.245,1.245,0,0,1,.945-.272,1.786,1.786,0,0,1,.63.069,4.126,4.126,0,0,1,.441.136l-.126.477c-.064-.067-.189-.067-.379-.136a1.645,1.645,0,0,0-.567-.067.735.735,0,0,0-.568.205.61.61,0,0,0-.189.41,1.024,1.024,0,0,0,.127.408.58.58,0,0,0,.379.272,1,1,0,0,1,.441.274,2.663,2.663,0,0,1,.441.272,2.28,2.28,0,0,1,.379.41.781.781,0,0,1,.126.544,1.087,1.087,0,0,1-.064.479,1.452,1.452,0,0,1-.251.41,1,1,0,0,1-.441.272,1.65,1.65,0,0,1-.568.067,2.02,2.02,0,0,1-.692-.067,3.847,3.847,0,0,1-.443-.138l.189-.477a.508.508,0,0,0,.379.136,1.608,1.608,0,0,0,.568.069.737.737,0,0,0,.377-.069c.126-.067.189-.067.315-.136s.126-.136.189-.205a.54.54,0,0,1-.064-.341Z" transform="translate(-26.463 -42.474)" fill="#8e9090"/>
            </g>
            <g id="Group_17918" data-name="Group 17918" transform="translate(48.349 1.229)">
              <path id="Path_83517" data-name="Path 83517" d="M29.849,43.848a.943.943,0,0,1,.189.681H28.652a1.341,1.341,0,0,1,.251-.682.835.835,0,0,1,.568-.205c.189,0,.379,0,.379.205Zm.379,1.773a1.361,1.361,0,0,1-.315.205.759.759,0,0,1-.379.067.88.88,0,0,1-.441-.067c-.064-.069-.189-.136-.251-.205-.127-.069-.127-.205-.189-.341a1.074,1.074,0,0,1-.064-.477h1.829a1.685,1.685,0,0,0-.064-1.093c-.062-.136-.189-.205-.251-.341a.344.344,0,0,0-.315-.205.759.759,0,0,0-.379-.067,1.064,1.064,0,0,0-.945.41,2.139,2.139,0,0,0-.315,1.227,2.026,2.026,0,0,0,.064.682c.062.136.189.341.251.477a.657.657,0,0,0,.379.341,1.713,1.713,0,0,0,.568.138,1.6,1.6,0,0,0,.567-.069c.189,0,.315-.136.441-.205Z" transform="translate(-28.147 -43.097)" fill="#8e9090"/>
            </g>
            <g id="Group_17919" data-name="Group 17919" transform="translate(51.501 1.224)">
              <path id="Path_83518" data-name="Path 83518" d="M31.3,43.713a.635.635,0,0,0-.315-.069.508.508,0,0,0-.379.138c-.126.067-.126.205-.189.341v2.184h-.441V43.236h.315l.064.341a.666.666,0,0,1,.251-.341.747.747,0,0,1,.758-.069Z" transform="translate(-29.977 -43.094)" fill="#8e9090"/>
            </g>
            <g id="Group_17920" data-name="Group 17920" transform="translate(53.014 1.432)">
              <path id="Path_83519" data-name="Path 83519" d="M32.053,44.981l.189.615.126-.615L33,43.206h.5l-1.2,3.14h-.189l-1.259-3.14h.5Z" transform="translate(-30.856 -43.206)" fill="#8e9090"/>
            </g>
            <g id="Group_17921" data-name="Group 17921" transform="translate(56.102 0.136)">
              <path id="Path_83520" data-name="Path 83520" d="M32.775,43.74h.443v3.071h-.443Zm-.126-.888a.428.428,0,0,1,.064-.272c.062-.069.126-.069.251-.069a.356.356,0,0,1,.253.069.365.365,0,0,1,.126.272c0,.069-.064.205-.126.205-.064.067-.127.067-.253.067a.359.359,0,0,1-.251-.067C32.713,42.988,32.649,42.921,32.649,42.852Z" transform="translate(-32.649 -42.511)" fill="#8e9090"/>
            </g>
            <g id="Group_17922" data-name="Group 17922" transform="translate(57.489 1.227)">
              <path id="Path_83521" data-name="Path 83521" d="M35.534,46.1l-.379.205a1.123,1.123,0,0,1-.5.069,1.712,1.712,0,0,1-.568-.138c-.189-.067-.251-.205-.379-.341a.768.768,0,0,1-.188-.477,2.25,2.25,0,0,1-.064-.682,2.33,2.33,0,0,1,.315-1.229,1.028,1.028,0,0,1,.883-.41.859.859,0,0,1,.441.069.463.463,0,0,1,.315.138l-.126.41c-.064-.069-.189-.069-.315-.138a.527.527,0,0,0-.315-.069c-.568,0-.82.41-.82,1.162a1.421,1.421,0,0,0,.064.477c.062.205.062.272.126.341a.506.506,0,0,0,.251.272,1.075,1.075,0,0,0,.758,0c.126-.067.189-.067.251-.136Z" transform="translate(-33.454 -43.096)" fill="#8e9090"/>
            </g>
            <g id="Group_17923" data-name="Group 17923" transform="translate(59.884 1.229)">
              <path id="Path_83522" data-name="Path 83522" d="M36.485,43.848a.951.951,0,0,1,.189.681h-1.39a1.355,1.355,0,0,1,.253-.682.837.837,0,0,1,.568-.205c.189,0,.377,0,.377.205Zm.441,1.773a1.361,1.361,0,0,1-.315.205.756.756,0,0,1-.379.067.88.88,0,0,1-.441-.067c-.062-.069-.189-.136-.251-.205-.126-.069-.126-.205-.189-.341a1.074,1.074,0,0,1-.064-.477h1.829a1.421,1.421,0,0,0,.064-.477,1.456,1.456,0,0,0-.127-.615c-.062-.136-.189-.205-.251-.341a.344.344,0,0,0-.315-.205.759.759,0,0,0-.379-.067,1.066,1.066,0,0,0-.945.41,2.139,2.139,0,0,0-.315,1.227,2.026,2.026,0,0,0,.064.682c.062.136.189.341.251.477a.656.656,0,0,0,.379.341,1.712,1.712,0,0,0,.568.138,1.6,1.6,0,0,0,.567-.069c.189,0,.315-.136.441-.205Z" transform="translate(-34.845 -43.097)" fill="#8e9090"/>
            </g>
            <g id="Group_17924" data-name="Group 17924" transform="translate(62.657 1.363)">
              <path id="Path_83523" data-name="Path 83523" d="M37.969,45.423a.367.367,0,0,0-.126-.274.882.882,0,0,0-.251-.205c-.127-.067-.189-.067-.315-.136s-.253-.067-.315-.136a.514.514,0,0,1-.253-.272,1.025,1.025,0,0,1-.126-.41.7.7,0,0,1,.251-.615,1.013,1.013,0,0,1,.63-.205,1.131,1.131,0,0,1,.5.069c.126.069.253.069.379.138l-.126.41c-.064-.069-.189-.069-.315-.138a.744.744,0,0,0-.379-.069c-.189,0-.315,0-.379.069a.42.42,0,0,0-.126.341.373.373,0,0,0,.126.274.327.327,0,0,0,.253.136c.126.067.189.067.315.136a1.385,1.385,0,0,1,.315.205.506.506,0,0,1,.251.272,1.041,1.041,0,0,1,.126.477.55.55,0,0,1-.062.341.94.94,0,0,1-.189.274,1.361,1.361,0,0,1-.315.205.88.88,0,0,1-.441.067,1.65,1.65,0,0,1-.568-.067c-.126-.069-.251-.069-.379-.138l.127-.41a.463.463,0,0,0,.315.138.859.859,0,0,0,.441.069.508.508,0,0,0,.379-.138c.251-.067.251-.205.251-.41Z" transform="translate(-36.455 -43.169)" fill="#8e9090"/>
            </g>
          </g>
        </g>
      </g>
    </g>
  </g>
</svg>
