<svg xmlns="http://www.w3.org/2000/svg" width="35.25" height="23.5" viewBox="0 0 35.25 23.5">
  <path id="Icon_awesome-folder-open" data-name="Icon awesome-folder-open" d="M35.048,18.459l-4.432,7.6A3.916,3.916,0,0,1,27.232,28H2.755a1.469,1.469,0,0,1-1.269-2.209l4.432-7.6A3.917,3.917,0,0,1,9.3,16.25H33.779a1.469,1.469,0,0,1,1.269,2.209ZM9.3,14.292H29.375V11.354a2.937,2.937,0,0,0-2.937-2.938H16.646L12.729,4.5H2.938A2.937,2.937,0,0,0,0,7.438V24.453l4.227-7.247A5.9,5.9,0,0,1,9.3,14.292Z" transform="translate(0 -4.5)"/>
</svg>
