<svg xmlns="http://www.w3.org/2000/svg" width="18.158" height="18.19" viewBox="0 0 18.158 18.19">
  <path id="Icon_feather-phone-call" data-name="Icon feather-phone-call" d="M9.678,4.775A4.094,4.094,0,0,0,6.443,8.01M9.678,1.5A7.37,7.37,0,0,0,3.168,8m.819,6.534v2.457A1.638,1.638,0,0,0,5.772,18.63a16.206,16.206,0,0,0,7.067-2.514A15.968,15.968,0,0,0,17.752,11.2a16.2,16.2,0,0,0,2.514-7.1,1.638,1.638,0,0,0-1.63-1.785H16.18a1.638,1.638,0,0,0-1.638,1.408,10.514,10.514,0,0,1-.573,2.3,1.638,1.638,0,0,0,.368,1.728l1.04,1.04a13.1,13.1,0,0,1-4.913,4.913l-1.04-1.04A1.638,1.638,0,0,0,7.7,12.3a10.514,10.514,0,0,1-2.3.573A1.638,1.638,0,0,0,3.987,14.536Z" transform="translate(-2.615 -0.948)" fill="none" stroke="#fff" stroke-linecap="round" stroke-linejoin="round" stroke-width="1"/>
</svg>
