<svg xmlns="http://www.w3.org/2000/svg" width="26.966" height="25.111" viewBox="0 0 26.966 25.111">
  <path id="Icon_ionic-ios-star-outline" data-name="Icon ionic-ios-star-outline" d="M27.231,11.721H18.7L16.114,3.989a.939.939,0,0,0-1.762,0l-2.591,7.732H3.177a.93.93,0,0,0-.927.927.682.682,0,0,0,.017.156.891.891,0,0,0,.388.655L9.663,18.4,6.974,26.217a.93.93,0,0,0,.319,1.043.9.9,0,0,0,.522.226,1.136,1.136,0,0,0,.58-.209L15.233,22.4l6.839,4.874a1.086,1.086,0,0,0,.58.209.833.833,0,0,0,.516-.226.919.919,0,0,0,.319-1.043L20.8,18.4l6.949-4.985.168-.145a.972.972,0,0,0,.3-.62A.982.982,0,0,0,27.231,11.721Zm-7.373,5.361a1.628,1.628,0,0,0-.591,1.843l1.745,5.083a.233.233,0,0,1-.354.267l-4.486-3.2a1.619,1.619,0,0,0-.945-.3,1.589,1.589,0,0,0-.939.3L9.8,24.27A.232.232,0,0,1,9.449,24l1.745-5.083a1.633,1.633,0,0,0-.6-1.855L5.9,13.756a.233.233,0,0,1,.133-.423h5.721a1.621,1.621,0,0,0,1.536-1.107l1.716-5.112a.233.233,0,0,1,.44,0l1.716,5.112A1.621,1.621,0,0,0,18.7,13.333h5.639a.229.229,0,0,1,.133.417Z" transform="translate(-1.75 -2.875)" fill="none" stroke="#009780" stroke-width="1"/>
</svg>
