<svg xmlns="http://www.w3.org/2000/svg" width="22.097" height="29.129" viewBox="0 0 22.097 29.129">
  <path id="Icon_awesome-file-alt" data-name="Icon awesome-file-alt" d="M12.306,7.472V0H1.319A1.315,1.315,0,0,0,0,1.319V26.81a1.315,1.315,0,0,0,1.319,1.319h18.46A1.315,1.315,0,0,0,21.1,26.81V8.79H13.625A1.322,1.322,0,0,1,12.306,7.472Zm3.516,12.966a.661.661,0,0,1-.659.659H5.933a.661.661,0,0,1-.659-.659V20a.661.661,0,0,1,.659-.659h9.23a.661.661,0,0,1,.659.659Zm0-3.516a.661.661,0,0,1-.659.659H5.933a.661.661,0,0,1-.659-.659v-.44a.661.661,0,0,1,.659-.659h9.23a.661.661,0,0,1,.659.659Zm0-3.956v.44a.661.661,0,0,1-.659.659H5.933a.661.661,0,0,1-.659-.659v-.44a.661.661,0,0,1,.659-.659h9.23A.661.661,0,0,1,15.823,12.966ZM21.1,6.7v.335H14.064V0H14.4a1.318,1.318,0,0,1,.934.385l5.379,5.384A1.314,1.314,0,0,1,21.1,6.7Z" transform="translate(0.5 0.5)" fill="none" stroke="#009780" stroke-width="1"/>
</svg>
