<svg xmlns="http://www.w3.org/2000/svg" width="21.212" height="24.749" viewBox="0 0 21.212 24.749">
  <path id="Icon_ionic-ios-refresh" data-name="Icon ionic-ios-refresh" d="M24.885,16.437a.824.824,0,0,0-.823.751,8.969,8.969,0,1,1-9.171-9.662.216.216,0,0,1,.227.221v2.779a.886.886,0,0,0,1.359.746l5.315-3.718a.883.883,0,0,0,0-1.5L16.483,2.388a.886.886,0,0,0-1.359.746V5.659a.217.217,0,0,1-.215.221,10.562,10.562,0,1,0,10.8,11.447.821.821,0,0,0-.823-.889Z" transform="translate(-4.5 -2.251)" fill="#fff"/>
</svg>
