<svg xmlns="http://www.w3.org/2000/svg" width="49.017" height="65.646" viewBox="0 0 49.017 65.646">
  <g id="Group_18075" data-name="Group 18075" transform="translate(-838.151 -137)">
    <path id="Path_83295" data-name="Path 83295" d="M40.691-484.71c-.459.258-.5.4-.5,1.938v1.45l-2.971.057c-2.928.043-3,.057-3.8.445a5.668,5.668,0,0,0-2.512,2.512l-.4.818v54.4l.388.818a5.528,5.528,0,0,0,2.6,2.641l.89.416H75.569l.818-.388a5.443,5.443,0,0,0,2.6-2.541l.459-.947.072-5.038-.072-9.09c.113-.027.057-14.292.043-23.506l-.043-16.765-.316-.675a6.783,6.783,0,0,0-2.067-2.354c-1.048-.66-1.823-.775-5.11-.775H68.895v-1.478c0-1.564-.043-1.694-.531-1.952a.587.587,0,0,0-.646,0c-.5.258-.545.388-.545,1.952v1.478h-7.32v-1.478c0-1.564-.043-1.694-.531-1.952a.587.587,0,0,0-.646,0c-.5.258-.545.388-.545,1.952v1.478H50.953v-1.478c0-1.564-.043-1.694-.531-1.952a.587.587,0,0,0-.646,0c-.5.258-.545.388-.545,1.952v1.478h-7.32v-1.478c0-1.564-.043-1.694-.531-1.952C41.007-484.911,41.05-484.911,40.691-484.71Zm-.5,6.2c0,.976-.029,1.062-.316,1.148a3.384,3.384,0,0,0-1.708,1.608,3.176,3.176,0,0,0,1.981,4.45,3.2,3.2,0,0,0,3.33-5.167,3.427,3.427,0,0,0-1.062-.833l-.5-.172v-2.1h7.32v1.062c0,1.019-.014,1.062-.373,1.148a3.532,3.532,0,0,0-.99.675,3.15,3.15,0,0,0,.459,5.009,3.231,3.231,0,0,0,4.694-1.392,3.67,3.67,0,0,0-.072-2.727,3.4,3.4,0,0,0-1.665-1.564c-.3-.086-.33-.172-.33-1.148v-1.062H58.13v1.033l-.014,1.048-.6.3a3.233,3.233,0,0,0-1.191,4.593,3.219,3.219,0,0,0,5.77-.89,2.5,2.5,0,0,0,.072-1.579,3.512,3.512,0,0,0-1.809-2.239l-.5-.172v-2.1h7.32v2.1l-.474.172a3.182,3.182,0,0,0-1.765,2.009,3.01,3.01,0,0,0,.373,2.655A3.218,3.218,0,0,0,70.919-473a3.577,3.577,0,0,0-.029-2.8,3.4,3.4,0,0,0-1.665-1.564c-.3-.086-.33-.172-.33-1.148v-1.062h2.957a20.017,20.017,0,0,1,3.56.172,4.264,4.264,0,0,1,2.225,2.2c.115.4.158,5.741.158,17.525,0-.2-.166,31.732-.029,32.022-.043,4.062-.057,4.306-.359,4.851a3.86,3.86,0,0,1-1.622,1.593c-.488.258-1.306.273-20.64.316l-20.138.029-.7-.3a3.762,3.762,0,0,1-1.923-2.009c-.215-.588-.23-2.713-.2-27.329l.043-26.7.4-.675a3.694,3.694,0,0,1,.832-.99c.861-.6,1.364-.689,4.119-.7h2.612Zm1.837,3.029a1.432,1.432,0,0,1-.344,2.454,1.425,1.425,0,0,1-2.067-1.335A1.437,1.437,0,0,1,42.026-475.481Zm9.086.057a1.488,1.488,0,0,1-1.88,2.282,1.454,1.454,0,0,1,.818-2.7A1.24,1.24,0,0,1,51.111-475.424Zm8.856-.057a1.34,1.34,0,0,1,.4,1.694,1.46,1.46,0,0,1-2.813-.574A1.437,1.437,0,0,1,59.967-475.481Zm9.086.057a1.5,1.5,0,0,1-1.722,2.4,1.474,1.474,0,0,1,.675-2.813A1.229,1.229,0,0,1,69.053-475.424Z" transform="translate(807.651 621.863)" fill="#bf0000"/>
    <g id="Group_17334" data-name="Group 17334" transform="translate(855.569 159.958)">
      <rect id="Rectangle_2185" data-name="Rectangle 2185" width="12.717" height="0.779" transform="translate(0.063 0)" fill="#bf0000"/>
      <rect id="Rectangle_2186" data-name="Rectangle 2186" width="19.171" height="0.779" transform="translate(0.063 3.432)" fill="#bf0000"/>
      <rect id="Rectangle_2189" data-name="Rectangle 2189" width="25.562" height="0.779" transform="translate(0 28.912)" fill="#bf0000"/>
      <rect id="Rectangle_2191" data-name="Rectangle 2191" width="25.562" height="0.779" transform="translate(0 14.406)" fill="#bf0000"/>
      <rect id="Rectangle_2190" data-name="Rectangle 2190" width="19.171" height="0.779" transform="translate(0 32.344)" fill="#bf0000"/>
      <rect id="Rectangle_2192" data-name="Rectangle 2192" width="19.171" height="0.779" transform="translate(0 17.838)" fill="#bf0000"/>
    </g>
    <g id="Group_17333" data-name="Group 17333" transform="translate(844.188 157.895)">
      <g id="Icon_ionic-md-close-circle-outline" data-name="Icon ionic-md-close-circle-outline" transform="translate(0 0)">
        <path id="Path_83263" data-name="Path 83263" d="M7.933,4.3A3.636,3.636,0,1,1,5.361,5.361,3.623,3.623,0,0,1,7.933,4.3m0-.92a4.558,4.558,0,1,0,4.558,4.558A4.558,4.558,0,0,0,7.933,3.375Z" transform="translate(-3.375 -3.375)" fill="#bf0000"/>
        <path id="Path_83264" data-name="Path 83264" d="M15.246,14.608l-.638.638L12.967,13.6l-1.641,1.641-.638-.638,1.641-1.641-1.641-1.641.638-.638,1.641,1.641,1.641-1.641.638.638L13.6,12.967Z" transform="translate(-8.408 -8.408)" fill="#bf0000"/>
      </g>
      <g id="Icon_ionic-md-close-circle-outline-2" data-name="Icon ionic-md-close-circle-outline" transform="translate(0 13.538)">
        <path id="Path_83263-2" data-name="Path 83263" d="M7.933,4.3A3.636,3.636,0,1,1,5.361,5.361,3.623,3.623,0,0,1,7.933,4.3m0-.92a4.558,4.558,0,1,0,4.558,4.558A4.558,4.558,0,0,0,7.933,3.375Z" transform="translate(-3.375 -3.375)" fill="#bf0000"/>
        <path id="Path_83264-2" data-name="Path 83264" d="M15.246,14.608l-.638.638L12.967,13.6l-1.641,1.641-.638-.638,1.641-1.641-1.641-1.641.638-.638,1.641,1.641,1.641-1.641.638.638L13.6,12.967Z" transform="translate(-8.408 -8.408)" fill="#bf0000"/>
      </g>
      <g id="Icon_ionic-md-close-circle-outline-3" data-name="Icon ionic-md-close-circle-outline" transform="translate(0 28.044)">
        <path id="Path_83263-3" data-name="Path 83263" d="M7.933,4.3A3.636,3.636,0,1,1,5.361,5.361,3.623,3.623,0,0,1,7.933,4.3m0-.92a4.558,4.558,0,1,0,4.558,4.558A4.558,4.558,0,0,0,7.933,3.375Z" transform="translate(-3.375 -3.375)" fill="#bf0000"/>
        <path id="Path_83264-3" data-name="Path 83264" d="M15.246,14.608l-.638.638L12.967,13.6l-1.641,1.641-.638-.638,1.641-1.641-1.641-1.641.638-.638,1.641,1.641,1.641-1.641.638.638L13.6,12.967Z" transform="translate(-8.408 -8.408)" fill="#bf0000"/>
      </g>
    </g>
  </g>
</svg>
