<svg xmlns="http://www.w3.org/2000/svg" width="22.269" height="22.269" viewBox="0 0 22.269 22.269">
  <path id="Icon_awesome-rss" data-name="Icon awesome-rss" d="M6.366,21.335a3.183,3.183,0,1,1-3.183-3.183,3.183,3.183,0,0,1,3.183,3.183ZM15.1,23.684A15.114,15.114,0,0,0,.835,9.421a.8.8,0,0,0-.835.8V12.6a.8.8,0,0,0,.74.8A11.138,11.138,0,0,1,11.117,23.778a.8.8,0,0,0,.8.74H14.3a.8.8,0,0,0,.8-.835Zm7.17.014A22.284,22.284,0,0,0,.82,2.25a.8.8,0,0,0-.82.8V5.435a.8.8,0,0,0,.768.8,18.3,18.3,0,0,1,17.52,17.52.8.8,0,0,0,.8.768h2.389a.8.8,0,0,0,.8-.82Z" transform="translate(0 -2.25)" fill="#fff"/>
</svg>
