<svg id="search" xmlns="http://www.w3.org/2000/svg" width="77.13" height="77.022" viewBox="0 0 77.13 77.022">
  <path id="Path_83524" data-name="Path 83524" d="M9.029-511.506a5.965,5.965,0,0,0-2.892,2.154c-.979,1.431-.949,1.1-.949,13.453v11.178l-.753.166A5.941,5.941,0,0,0,.412-481.3l-.422.9-.045,9.31L-.1-461.792l.377.377a.981.981,0,0,0,1.522,0l.377-.362v-8.858c0-6.011.06-9.054.166-9.461a4.027,4.027,0,0,1,2.169-2.169c.422-.105,4.158-.166,12.1-.166,10,0,11.555.03,12.037.226,1.145.482,1.476,1.039,2.079,3.54.678,2.832,1.446,3.962,3.239,4.806l.829.392,6.523.045c3.585.015,6.508.09,6.478.166-.03.06-.467.859-.994,1.763l-.949,1.642-.708.015a3.43,3.43,0,0,0-2.245.994c-.377.422-9.084,15.457-9.717,16.8a6.127,6.127,0,0,0,3,8.06,6.405,6.405,0,0,0,4.58.286,6.542,6.542,0,0,0,2.923-2.049c.256-.346,2.561-4.233,5.122-8.662l4.655-8.06.06-1.009a2.853,2.853,0,0,0-.271-1.7l-.331-.678.377-.648c.2-.346.648-1.115.979-1.717l.633-1.07.783.211c.437.105,1.491.286,2.35.392l1.537.181v14.3c0,10.832-.045,14.462-.181,14.929a4.027,4.027,0,0,1-2.169,2.169c-.829.241-51.808.271-52.682.015a4.082,4.082,0,0,1-2.2-2.169c-.105-.407-.166-3.465-.166-9.28,0-8.271-.015-8.708-.286-9.039a1.17,1.17,0,0,0-1.7.015c-.271.331-.286.678-.241,9.476l.045,9.129.422.9a6.442,6.442,0,0,0,2.877,2.892l.919.422H57.538l.979-.467a5.764,5.764,0,0,0,2.772-2.772l.467-.979.045-14.869.03-14.854,1.024-.181a17.561,17.561,0,0,0,9.506-5.212A17.227,17.227,0,0,0,67.029-501.5a14.783,14.783,0,0,0-6.734-1.522L57.93-503.1l-.045-2.29c-.045-2.23-.06-2.3-.542-3.284A5.727,5.727,0,0,0,54.45-511.4l-.829-.331-21.844-.03C10.551-511.793,9.9-511.778,9.029-511.506Zm44.833,2.38a3.552,3.552,0,0,1,1.265,1.07c.452.633.452.648.5,3.028l.045,2.38-1.07.316a20.818,20.818,0,0,0-5.3,2.772,17.539,17.539,0,0,0-4.881,5.86c-.362.753-.392.889-.226,1.3a1.17,1.17,0,0,0,1.446.633,1.815,1.815,0,0,0,.693-.783,15.857,15.857,0,0,1,5.152-5.755,14.525,14.525,0,0,1,4.309-2,10,10,0,0,1,3.932-.407,11.961,11.961,0,0,1,6.056,1.115,15.149,15.149,0,0,1,8.964,14.523,15.065,15.065,0,0,1-11.781,13.89,16.958,16.958,0,0,1-6.854-.121,15.131,15.131,0,0,1-9.958-8.331,12.743,12.743,0,0,1-1.3-6.131c-.075-2.23-.105-2.546-.362-2.772a1.171,1.171,0,0,0-1.537.075c-.316.3-.331.452-.331,2.772a13.675,13.675,0,0,0,.919,5.71,15.539,15.539,0,0,0,1.763,3.54l.542.8H40.62c-5,0-5.227-.015-5.875-.316-.934-.452-1.281-1.115-1.9-3.51a17.454,17.454,0,0,0-.9-2.727,5.816,5.816,0,0,0-2.335-2.094c-.678-.316-.829-.316-11.419-.362l-10.741-.045v-22.371l.5-.813a2.708,2.708,0,0,1,1.3-1.235l.8-.422H53.064ZM52.009-470.47c.346.151.633.346.633.422a22.859,22.859,0,0,1-1.446,2.636c-.2.316-.211.316-1.7-.527a9.579,9.579,0,0,1-1.522-.979,16.136,16.136,0,0,1,.829-1.537l.844-1.416.859.557A13.63,13.63,0,0,0,52.009-470.47Zm-3.9,4.324c1.461.829,2.772,1.642,2.938,1.793a1.062,1.062,0,0,1,.286.648c0,.392-8.738,15.682-9.521,16.677a3.944,3.944,0,0,1-2.832,1.356,5.7,5.7,0,0,1-1.431-.181,4.7,4.7,0,0,1-2.245-1.958,4.154,4.154,0,0,1-.286-2.772c.105-.316,2.29-4.233,4.866-8.692,4.4-7.638,4.851-8.346,5.438-8.376A27.635,27.635,0,0,1,48.107-466.146Z" transform="translate(0.1 511.774)" fill="#fff"/>
  <path id="Path_83525" data-name="Path 83525" d="M88.307-466.684a1.017,1.017,0,0,0,0,1.627c.407.316.437.316,17.114.316h16.707l.362-.377a1.241,1.241,0,0,0,.377-.753,1.241,1.241,0,0,0-.377-.753l-.362-.377H105.42C88.744-467,88.714-467,88.307-466.684Z" transform="translate(-74.643 473.745)" fill="#fff"/>
  <path id="Path_83526" data-name="Path 83526" d="M88.307-421.684a1.017,1.017,0,0,0,0,1.627c.407.316.482.316,13.724.316h13.317l.362-.377a1.241,1.241,0,0,0,.377-.753,1.241,1.241,0,0,0-.377-.753l-.362-.377H102.031C88.789-422,88.714-422,88.307-421.684Z" transform="translate(-74.643 435.524)" fill="#fff"/>
  <path id="Path_83527" data-name="Path 83527" d="M332.366-412.714a11.255,11.255,0,0,0-7.789,7.321,9.877,9.877,0,0,0-.467,2.968,9.71,9.71,0,0,0,1.1,5.363,10.674,10.674,0,0,0,4.971,5A10.9,10.9,0,0,0,342.806-394a11.079,11.079,0,0,0-4.941-18.7A13.014,13.014,0,0,0,332.366-412.714Zm5.634,2.4a8.853,8.853,0,0,1,5.936,7.939,8.521,8.521,0,0,1-2.591,6.629,8.764,8.764,0,0,1-7.864,2.471,9.143,9.143,0,0,1-6.915-6.538,10.6,10.6,0,0,1,.015-4.354,9.164,9.164,0,0,1,6.252-6.342A11.947,11.947,0,0,1,338-410.319Z" transform="translate(-275.255 427.881)" fill="#fff"/>
  <path id="Path_83528" data-name="Path 83528" d="M88.307-376.684a1.017,1.017,0,0,0,0,1.627c.407.316.482.316,12.594.316h12.187l.362-.377a1.241,1.241,0,0,0,.377-.753,1.241,1.241,0,0,0-.377-.753l-.362-.377H100.9C88.789-377,88.714-377,88.307-376.684Z" transform="translate(-74.643 397.303)" fill="#fff"/>
</svg>
