<svg xmlns="http://www.w3.org/2000/svg" width="24.269" height="24.269" viewBox="0 0 24.269 24.269">
  <g id="Group_18096" data-name="Group 18096" transform="translate(-364.55 -51.569)">
    <path id="Path_83411" data-name="Path 83411" d="M21.327,17.414A3.914,3.914,0,1,1,17.414,13.5,3.914,3.914,0,0,1,21.327,17.414Z" transform="translate(359.271 46.29)" fill="none" stroke="#136e35" stroke-linecap="round" stroke-linejoin="round" stroke-width="2"/>
    <path id="Path_83412" data-name="Path 83412" d="M20.125,15.671a1.67,1.67,0,0,0,.334,1.842l.061.061a2.026,2.026,0,1,1-2.865,2.865l-.061-.061a1.684,1.684,0,0,0-2.854,1.194v.172a2.024,2.024,0,0,1-4.049,0v-.091A1.67,1.67,0,0,0,9.6,20.125a1.67,1.67,0,0,0-1.842.334l-.061.061A2.026,2.026,0,1,1,4.83,17.655l.061-.061A1.684,1.684,0,0,0,3.7,14.74H3.524a2.024,2.024,0,0,1,0-4.049h.091A1.67,1.67,0,0,0,5.144,9.6,1.67,1.67,0,0,0,4.81,7.756l-.061-.061A2.026,2.026,0,1,1,7.614,4.83l.061.061a1.67,1.67,0,0,0,1.842.334H9.6A1.67,1.67,0,0,0,10.61,3.7V3.524a2.024,2.024,0,0,1,4.049,0v.091A1.684,1.684,0,0,0,17.513,4.81l.061-.061a2.026,2.026,0,1,1,2.865,2.865l-.061.061a1.67,1.67,0,0,0-.334,1.842V9.6a1.67,1.67,0,0,0,1.528,1.012h.172a2.024,2.024,0,0,1,0,4.049h-.091a1.67,1.67,0,0,0-1.528,1.012Z" transform="translate(364.05 51.069)" fill="none" stroke="#136e35" stroke-linecap="round" stroke-linejoin="round" stroke-width="2"/>
  </g>
</svg>
