<svg xmlns="http://www.w3.org/2000/svg" width="30.7" height="30.7" viewBox="0 0 30.7 30.7">
  <g id="Icon_feather-settings" data-name="Icon feather-settings" transform="translate(-0.5 -0.5)">
    <path id="Path_83411" data-name="Path 83411" d="M21.327,17.414A3.914,3.914,0,1,1,17.414,13.5,3.914,3.914,0,0,1,21.327,17.414Z" transform="translate(-1.564 -1.564)" fill="none" stroke="#fff" stroke-linecap="round" stroke-linejoin="round" stroke-width="2"/>
    <path id="Path_83412" data-name="Path 83412" d="M25.5,19.764a2.152,2.152,0,0,0,.43,2.374l.078.078a2.611,2.611,0,1,1-3.692,3.692l-.078-.078a2.17,2.17,0,0,0-3.679,1.539v.222a2.609,2.609,0,0,1-5.218,0v-.117a2.152,2.152,0,0,0-1.409-1.97,2.152,2.152,0,0,0-2.374.431l-.078.078a2.611,2.611,0,1,1-3.692-3.692l.078-.078a2.17,2.17,0,0,0-1.539-3.679H4.109a2.609,2.609,0,0,1,0-5.218h.117A2.152,2.152,0,0,0,6.2,11.936a2.152,2.152,0,0,0-.431-2.374l-.078-.078A2.611,2.611,0,1,1,9.379,5.792l.078.078a2.152,2.152,0,0,0,2.374.43h.1a2.152,2.152,0,0,0,1.3-1.97V4.109a2.609,2.609,0,0,1,5.218,0v.117a2.17,2.17,0,0,0,3.679,1.539l.078-.078a2.611,2.611,0,1,1,3.692,3.692l-.078.078a2.152,2.152,0,0,0-.431,2.374v.1a2.152,2.152,0,0,0,1.97,1.3h.222a2.609,2.609,0,0,1,0,5.218h-.117a2.152,2.152,0,0,0-1.97,1.3Z" fill="none" stroke="#fff" stroke-linecap="round" stroke-linejoin="round" stroke-width="2"/>
  </g>
</svg>
