<svg xmlns="http://www.w3.org/2000/svg" width="23.982" height="22.269" viewBox="0 0 23.982 22.269">
  <path id="Icon_ionic-ios-star" data-name="Icon ionic-ios-star" d="M25.322,11.083H17.447L15.055,3.942a.867.867,0,0,0-1.627,0l-2.393,7.141H3.106a.859.859,0,0,0-.856.856.629.629,0,0,0,.016.145.823.823,0,0,0,.359.6L9.1,17.25,6.613,24.471a.859.859,0,0,0,.294.964.828.828,0,0,0,.482.209,1.049,1.049,0,0,0,.535-.193l6.317-4.5,6.317,4.5a1,1,0,0,0,.535.193.769.769,0,0,0,.476-.209.848.848,0,0,0,.294-.964L19.38,17.25l6.418-4.6.155-.134a.9.9,0,0,0,.278-.573A.907.907,0,0,0,25.322,11.083Z" transform="translate(-2.25 -3.375)" fill="#fff"/>
</svg>
