<svg xmlns="http://www.w3.org/2000/svg" width="27.418" height="22.269" viewBox="0 0 27.418 22.269">
  <path id="Icon_awesome-twitter" data-name="Icon awesome-twitter" d="M24.6,8.931c.017.244.017.487.017.731,0,7.429-5.654,15.988-15.988,15.988A15.88,15.88,0,0,1,0,23.127a11.625,11.625,0,0,0,1.357.07,11.254,11.254,0,0,0,6.976-2.4,5.629,5.629,0,0,1-5.254-3.9,7.086,7.086,0,0,0,1.061.087,5.943,5.943,0,0,0,1.479-.191,5.62,5.62,0,0,1-4.506-5.515v-.07a5.659,5.659,0,0,0,2.54.713,5.628,5.628,0,0,1-1.74-7.516A15.973,15.973,0,0,0,13.5,10.288,6.344,6.344,0,0,1,13.361,9a5.625,5.625,0,0,1,9.725-3.845A11.063,11.063,0,0,0,26.653,3.8a5.6,5.6,0,0,1-2.47,3.1,11.265,11.265,0,0,0,3.236-.87A12.079,12.079,0,0,1,24.6,8.931Z" transform="translate(0 -3.381)" fill="#fff"/>
</svg>
