<svg xmlns="http://www.w3.org/2000/svg" width="31.671" height="22.269" viewBox="0 0 31.671 22.269">
  <path id="Icon_awesome-youtube" data-name="Icon awesome-youtube" d="M32.059,7.984a3.979,3.979,0,0,0-2.8-2.818C26.789,4.5,16.885,4.5,16.885,4.5s-9.9,0-12.374.666a3.98,3.98,0,0,0-2.8,2.818,41.746,41.746,0,0,0-.662,7.673,41.746,41.746,0,0,0,.662,7.673,3.92,3.92,0,0,0,2.8,2.773c2.47.666,12.374.666,12.374.666s9.9,0,12.374-.666a3.92,3.92,0,0,0,2.8-2.773,41.746,41.746,0,0,0,.662-7.673,41.746,41.746,0,0,0-.662-7.673ZM13.646,20.366V10.948l8.278,4.709-8.278,4.709Z" transform="translate(-1.05 -4.5)" fill="#fff"/>
</svg>
