<svg id="Component_5_2" data-name="Component 5 – 2" xmlns="http://www.w3.org/2000/svg" width="378" height="248" viewBox="0 0 378 248">
  <path id="Path_83533" data-name="Path 83533" d="M0,0H378V248H0Z" fill="#004e59"/>
  <path id="Icon_awesome-file-invoice" data-name="Icon awesome-file-invoice" d="M43.339,38.523H14.446v9.631H43.339ZM56.732,15.8,42,1.053A3.609,3.609,0,0,0,39.441,0h-.918V19.262H57.785v-.918A3.6,3.6,0,0,0,56.732,15.8ZM33.708,20.466V0H3.612A3.6,3.6,0,0,0,0,3.612V73.435a3.6,3.6,0,0,0,3.612,3.612H54.174a3.6,3.6,0,0,0,3.612-3.612V24.077H37.32A3.622,3.622,0,0,1,33.708,20.466ZM9.631,10.835a1.2,1.2,0,0,1,1.2-1.2H22.873a1.2,1.2,0,0,1,1.2,1.2v2.408a1.2,1.2,0,0,1-1.2,1.2H10.835a1.2,1.2,0,0,1-1.2-1.2Zm0,9.631a1.2,1.2,0,0,1,1.2-1.2H22.873a1.2,1.2,0,0,1,1.2,1.2v2.408a1.2,1.2,0,0,1-1.2,1.2H10.835a1.2,1.2,0,0,1-1.2-1.2ZM48.154,66.212a1.2,1.2,0,0,1-1.2,1.2H34.912a1.2,1.2,0,0,1-1.2-1.2V63.8a1.2,1.2,0,0,1,1.2-1.2H46.95a1.2,1.2,0,0,1,1.2,1.2Zm0-30.1V50.562a2.407,2.407,0,0,1-2.408,2.408H12.039a2.407,2.407,0,0,1-2.408-2.408V36.116a2.407,2.407,0,0,1,2.408-2.408H45.747A2.407,2.407,0,0,1,48.154,36.116Z" transform="translate(160.107 30.953)" fill="none" stroke="#fff" stroke-width="1.5"/>
  <text id="المجلس_الإلكتروني" data-name="المجلس الإلكتروني" transform="translate(327 170.387)" fill="#fff" font-size="22" font-family="Almarai-Bold, Almarai" font-weight="700"><tspan x="-176.33" y="0">المجلس الإلكتروني</tspan></text>
  <text id="تقديم_شكوي_أو_مقترح_أو_متابعة_طلب_لسمو_أمير_منطقة_الرياض" data-name="تقديم شكوي أو مقترح أو متابعة طلب لسمو أمير منطقة الرياض" transform="translate(72 191.387)" fill="#fff" font-size="14" font-family="Almarai-Regular, Almarai"><tspan x="6.402" y="13">تقديم شكوي أو مقترح أو متابعة طلب لسمو</tspan><tspan y="13"> </tspan><tspan x="146.472" y="36">أمير منطقة الرياض</tspan></text>
  <line id="Line_258" data-name="Line 258" y2="86" transform="translate(347 146.387)" fill="none" stroke="#ffba00" stroke-width="6"/>
</svg>
