<svg xmlns="http://www.w3.org/2000/svg" xmlns:xlink="http://www.w3.org/1999/xlink" width="1782" height="345" viewBox="0 0 1782 345">
  <defs>
    <filter id="Rectangle_2522" x="1330" y="60" width="406" height="285" filterUnits="userSpaceOnUse">
      <feOffset dy="3" input="SourceAlpha"/>
      <feGaussianBlur stdDeviation="3" result="blur"/>
      <feFlood flood-opacity="0.161"/>
      <feComposite operator="in" in2="blur"/>
      <feComposite in="SourceGraphic"/>
    </filter>
    <filter id="Rectangle_2523" x="901" y="60" width="406" height="285" filterUnits="userSpaceOnUse">
      <feOffset dy="3" input="SourceAlpha"/>
      <feGaussianBlur stdDeviation="3" result="blur-2"/>
      <feFlood flood-opacity="0.161"/>
      <feComposite operator="in" in2="blur-2"/>
      <feComposite in="SourceGraphic"/>
    </filter>
    <filter id="Rectangle_2524" x="471" y="60" width="406" height="285" filterUnits="userSpaceOnUse">
      <feOffset dy="3" input="SourceAlpha"/>
      <feGaussianBlur stdDeviation="3" result="blur-3"/>
      <feFlood flood-opacity="0.161"/>
      <feComposite operator="in" in2="blur-3"/>
      <feComposite in="SourceGraphic"/>
    </filter>
    <filter id="Rectangle_2525" x="42" y="60" width="406" height="285" filterUnits="userSpaceOnUse">
      <feOffset dy="3" input="SourceAlpha"/>
      <feGaussianBlur stdDeviation="3" result="blur-4"/>
      <feFlood flood-opacity="0.161"/>
      <feComposite operator="in" in2="blur-4"/>
      <feComposite in="SourceGraphic"/>
    </filter>
  </defs>
  <g id="Group_18091" data-name="Group 18091" transform="translate(-70 -1196)">
    <g id="Group_17962" data-name="Group 17962" transform="translate(5 66)">
      <line id="Line_243" data-name="Line 243" y2="40" transform="translate(1792 1130)" fill="none" stroke="#009780" stroke-width="6"/>
      <text id="الخدمات_الإلكترونية" data-name="الخدمات الإلكترونية" transform="translate(1778 1157)" fill="#555253" font-size="22" font-family="Almarai-Bold, Almarai" font-weight="700"><tspan x="-179.564" y="0">الخدمات الإلكترونية</tspan></text>
    </g>
    <g id="Group_17963" data-name="Group 17963" transform="translate(-43 -88)">
      <circle id="Ellipse_8" data-name="Ellipse 8" cx="18" cy="18" r="18" transform="translate(1859 1466)" fill="#009780"/>
      <g id="Group_26" data-name="Group 26" transform="translate(1 952.333)">
        <path id="Path_7916" data-name="Path 7916" d="M466.838,60.073l6.778,7.322-6.778,7.322" transform="translate(1406.162 464.594)" fill="none" stroke="#fff" stroke-width="2"/>
      </g>
    </g>
    <g id="Group_17964" data-name="Group 17964" transform="translate(70 1378)">
      <circle id="Ellipse_8-2" data-name="Ellipse 8" cx="18" cy="18" r="18" fill="#009780"/>
      <g id="Group_26-2" data-name="Group 26" transform="translate(14.222 11)">
        <path id="Path_7916-2" data-name="Path 7916" d="M473.615,60.073l-6.778,7.322,6.778,7.322" transform="translate(-466.838 -60.073)" fill="none" stroke="#fff" stroke-width="2"/>
      </g>
    </g>
    <g id="Group_17965" data-name="Group 17965" transform="translate(-14 73)">
      <text id="تصفح_جميع_الخدمات" data-name="تصفح جميع الخدمات" transform="translate(273 1147)" fill="#565656" font-size="14" font-family="Almarai-Regular, Almarai"><tspan x="-117.18" y="0">تصفح جميع الخدمات</tspan></text>
      <g id="Icon_feather-arrow-left" data-name="Icon feather-arrow-left" transform="translate(126.5 1130.5)">
        <path id="Path_83537" data-name="Path 83537" d="M22.876,18H7.5" transform="translate(0 -5.149)" fill="none" stroke="#009780" stroke-linecap="round" stroke-linejoin="round" stroke-width="1"/>
        <path id="Path_83538" data-name="Path 83538" d="M12.851,18.2,7.5,12.851,12.851,7.5" fill="none" stroke="#009780" stroke-linecap="round" stroke-linejoin="round" stroke-width="1"/>
      </g>
    </g>
    <g id="Group_18083" data-name="Group 18083">
      <g transform="matrix(1, 0, 0, 1, 70, 1196)" filter="url(#Rectangle_2522)">
        <g id="Rectangle_2522-2" data-name="Rectangle 2522" transform="translate(1339 66)" fill="#fff" stroke="#ededed" stroke-width="1">
          <rect width="388" height="267" rx="12" stroke="none"/>
          <rect x="0.5" y="0.5" width="387" height="266" rx="11.5" fill="none"/>
        </g>
      </g>
      <text id="خروج_مؤقت_لسجين_للعلاج_والتنويم" data-name="خروج مؤقت لسجين للعلاج والتنويم" transform="translate(1603 1412)" fill="#009780" font-size="20" font-family="Almarai-Regular, Almarai"><tspan x="-142.53" y="0">خروج مؤقت لسجين للعلاج والتنويم</tspan></text>
      <text id="تٌتيح_لك_الخدمات_الإلكترونية_إمكانية_التقدم_بطلب_لإمارة_منطقة_الرياض_وذلك_في_الزمان_والمكان_المناسب_دون_الحاجة_إلى_تكبد_عناء_السفر_من_مكان_إقامتك" data-name="تٌتيح لك الخدمات الإلكترونية إمكانية التقدم بطلب لإمارة منطقة الرياض وذلك في الزمان والمكان المناسب دون الحاجة إلى تكبد عناء السفر من مكان
إقامتك" transform="translate(1465 1449)" fill="#565656" font-size="16" font-family="Almarai-Regular, Almarai"><tspan x="9.92" y="14">تٌتيح لك الخدمات الإلكترونية إمكانية التقدم</tspan><tspan y="14"> </tspan><tspan x="32.176" y="37">بطلب لإمارة منطقة الرياض وذلك في</tspan><tspan y="37"> </tspan></text>
      <g id="prisoner" transform="translate(1576 1810)">
        <path id="Path_83539" data-name="Path 83539" d="M.263-511.737,0-511.485v52.8l.263.252a.773.773,0,0,0,1.157,0l.263-.252v-52.8l-.263-.252A.819.819,0,0,0,.841-512,.819.819,0,0,0,.263-511.737Z" transform="translate(0 0)" fill="#007889"/>
        <path id="Path_83540" data-name="Path 83540" d="M124.263-511.737l-.263.252v52.8l.263.252a.773.773,0,0,0,1.157,0l.263-.252v-52.8l-.263-.252a.819.819,0,0,0-.578-.263A.819.819,0,0,0,124.263-511.737Z" transform="translate(-110.963 0)" fill="#007889"/>
        <path id="Path_83541" data-name="Path 83541" d="M248.263-511.737l-.263.252v52.8l.263.252a.773.773,0,0,0,1.157,0l.263-.252v-52.8l-.263-.252a.819.819,0,0,0-.578-.263A.819.819,0,0,0,248.263-511.737Z" transform="translate(-221.925 0)" fill="#007889"/>
        <path id="Path_83542" data-name="Path 83542" d="M372.263-511.737l-.263.252v52.8l.263.252a.773.773,0,0,0,1.157,0l.263-.252v-52.8l-.263-.252a.819.819,0,0,0-.578-.263A.819.819,0,0,0,372.263-511.737Z" transform="translate(-332.888 0)" fill="#007889"/>
        <path id="Path_83543" data-name="Path 83543" d="M496.263-511.737l-.263.252v52.8l.263.252a.773.773,0,0,0,1.157,0l.263-.252v-52.8l-.263-.252a.82.82,0,0,0-.578-.263A.82.82,0,0,0,496.263-511.737Z" transform="translate(-443.851 0)" fill="#007889"/>
        <path id="Path_83544" data-name="Path 83544" d="M155.579-481.194a9.988,9.988,0,0,0-3.123,1.556c-2.082,1.64-3.2,4.679-2.986,8.075a17.967,17.967,0,0,0,3.028,8.979l.5.757v2.4l-.81.736a12.548,12.548,0,0,1-2.87,1.808,18.319,18.319,0,0,0-2.176,1.251.936.936,0,0,0,.074,1.072c.347.347.789.263,2.176-.463,1.125-.589,1.283-.641,1.241-.442-.368,1.609-1,4.8-1,5.078a.735.735,0,0,0,.715.768,12.331,12.331,0,0,0,1.451-.273l1.157-.284,1.367,1.125c1.4,1.157,1.64,1.293,2.092,1.178a.865.865,0,0,0,.494-1.051,23.42,23.42,0,0,0-3.554-2.965,3.351,3.351,0,0,0-.988.116,3.459,3.459,0,0,1-.778.147c-.021-.021.2-1.188.5-2.586l.536-2.544.421-.431c.284-.294.431-.379.484-.294s.484,1.22.978,2.555.967,2.481,1.041,2.544a1.193,1.193,0,0,0,.463.2c.284.053.389.011.662-.252a1.2,1.2,0,0,0,.315-.484c0-.095-.526-1.577-1.157-3.291a16.313,16.313,0,0,1-1.135-3.512l.032-.4.631.421a2.935,2.935,0,0,0,.81.41.922.922,0,0,0,.82-.536c.21-.5.063-.778-.726-1.293a10.325,10.325,0,0,1-3.47-4.258,19,19,0,0,1-1.451-4.321,15.565,15.565,0,0,1,.063-5.2,6.231,6.231,0,0,1,1.5-2.849,5.873,5.873,0,0,1,2.723-1.682c1.041-.336,1.356-.578,1.356-1.041a.946.946,0,0,0-.631-.81A2.366,2.366,0,0,0,155.579-481.194Z" transform="translate(-131.555 -27.473)" fill="#007889"/>
        <path id="Path_83545" data-name="Path 83545" d="M269.494-480.7a.758.758,0,0,0,.01,1.093,4.469,4.469,0,0,0,1.115.494,5.873,5.873,0,0,1,2.723,1.682,6.23,6.23,0,0,1,1.5,2.849,15.573,15.573,0,0,1,.053,5.2,18.009,18.009,0,0,1-1.524,4.479,10,10,0,0,1-3.386,4.1c-.789.515-.936.789-.726,1.293a.863.863,0,0,0,.967.484,5.349,5.349,0,0,0,.8-.431l.547-.357v.421a22.881,22.881,0,0,1-1.157,3.512c-.631,1.7-1.157,3.175-1.157,3.27a1.156,1.156,0,0,0,.315.494c.273.263.378.3.662.252a1.194,1.194,0,0,0,.463-.2,26.269,26.269,0,0,0,1.062-2.628,26.565,26.565,0,0,1,1.009-2.5,2.031,2.031,0,0,1,.463.336l.379.336.547,2.586c.294,1.419.526,2.607.5,2.629a3.256,3.256,0,0,1-.715-.137,5.807,5.807,0,0,0-.915-.168,19.775,19.775,0,0,0-3.291,2.544c-.463.452-.5.526-.442.841a.82.82,0,0,0,1.325.536c.147-.095.8-.631,1.461-1.178l1.2-.988,1.167.273a11.006,11.006,0,0,0,1.451.284.782.782,0,0,0,.715-.746c0-.231-.725-3.922-1-5.11-.053-.2.095-.147,1.241.452,1.4.725,1.819.82,2.176.463a.917.917,0,0,0,.021-1.136,24.462,24.462,0,0,0-2.176-1.22,11.6,11.6,0,0,1-2.807-1.777l-.82-.736v-2.4l.5-.757c2.6-3.869,3.69-9.063,2.681-12.848a10.6,10.6,0,0,0-1.556-3.123,8.205,8.205,0,0,0-3.7-2.492C270.3-481.019,269.789-481.009,269.494-480.7Z" transform="translate(-240.875 -27.795)" fill="#007889"/>
        <path id="Path_83546" data-name="Path 83546" d="M64-215.406a4.806,4.806,0,0,0-2.25,2.113,4.98,4.98,0,0,0-.421,1.125C61.23-211.558,60-198.226,60-197.8a.87.87,0,0,0,.736.873c.368.074.368.063.168,1.808-.158,1.293-.116,1.567.273,1.84a.73.73,0,0,0,.978-.063c.242-.221.284-.368.442-1.808l.179-1.556.484.063c.263.042.883.095,1.4.137.862.063.936.053,1.178-.179a.8.8,0,0,0-.273-1.346,19.355,19.355,0,0,0-2.008-.284l-1.766-.189v-.326c0-.736,1.167-12.869,1.272-13.258a3.119,3.119,0,0,1,.831-1.283,8.2,8.2,0,0,1,.841-.515c.957-.536,1.051-.641,1.051-1.1a.646.646,0,0,0-.273-.61C65.12-215.9,64.9-215.869,64-215.406Z" transform="translate(-53.692 -265.063)" fill="#007889"/>
        <path id="Path_83547" data-name="Path 83547" d="M394.619-215.779a.646.646,0,0,0-.273.61c0,.473.116.589,1.072,1.114a3.174,3.174,0,0,1,1.588,1.64c.116.3.368,2.544.757,6.771.315,3.47.578,6.466.578,6.655,0,.252-.042.336-.179.336-.105,0-.967.095-1.9.2-1.482.179-1.756.242-1.977.442a.805.805,0,0,0,.61,1.377c.189,0,.81-.053,1.377-.126a8.125,8.125,0,0,1,1.062-.084c.021.021.105.715.2,1.556.158,1.409.189,1.546.442,1.756a.72.72,0,0,0,.978.074c.379-.263.421-.536.273-1.777-.21-1.756-.2-1.8.168-1.871a.874.874,0,0,0,.736-.852c0-.6-1.251-13.857-1.367-14.446a4.492,4.492,0,0,0-1.262-2.271A7.3,7.3,0,0,0,395.1-216,.972.972,0,0,0,394.619-215.779Z" transform="translate(-352.605 -264.879)" fill="#007889"/>
        <path id="Path_83548" data-name="Path 83548" d="M279.231-144.758c-.221.231-.231.326-.231,2.565,0,2.124.021,2.345.2,2.565l.2.252,3.7.032,3.69.032.3-.315.315-.3v-2.176c0-2.25-.074-2.671-.473-2.828-.095-.032-1.819-.063-3.827-.063h-3.659Zm6.5,2.6V-141h-5.047v-2.313h5.047Z" transform="translate(-249.666 -328.414)" fill="#007889"/>
      </g>
    </g>
    <g id="Group_18084" data-name="Group 18084">
      <g transform="matrix(1, 0, 0, 1, 70, 1196)" filter="url(#Rectangle_2523)">
        <g id="Rectangle_2523-2" data-name="Rectangle 2523" transform="translate(910 66)" fill="#fff" stroke="#ededed" stroke-width="1">
          <rect width="388" height="267" rx="12" stroke="none"/>
          <rect x="0.5" y="0.5" width="387" height="266" rx="11.5" fill="none"/>
        </g>
      </g>
      <text id="زواج_السعودي_بغير_سعودية_مقيمة_خارج_المملكة" data-name="زواج السعودي بغير سعودية مقيمة خارج المملكة" transform="translate(1047 1379)" fill="#009780" font-size="20" font-family="Almarai-Regular, Almarai"><tspan x="12.17" y="18">زواج السعودي بغير سعودية</tspan><tspan y="18"> </tspan><tspan x="47.69" y="45">مقيمة خارج المملكة</tspan></text>
      <text id="تٌتيح_لك_الخدمات_الإلكترونية_إمكانية_التقدم_بطلب_لإمارة_منطقة_الرياض_وذلك_في_الزمان_والمكان_المناسب_دون_الحاجة_إلى_تكبد_عناء_السفر_من_مكان_إقامتك-2" data-name="تٌتيح لك الخدمات الإلكترونية إمكانية التقدم بطلب لإمارة منطقة الرياض وذلك في الزمان والمكان المناسب دون الحاجة إلى تكبد عناء السفر من مكان
إقامتك" transform="translate(1036 1449)" fill="#565656" font-size="16" font-family="Almarai-Regular, Almarai"><tspan x="9.92" y="14">تٌتيح لك الخدمات الإلكترونية إمكانية التقدم</tspan><tspan y="14"> </tspan><tspan x="32.176" y="37">بطلب لإمارة منطقة الرياض وذلك في</tspan><tspan y="37"> </tspan></text>
      <g id="couple" transform="translate(1126.895 1802.914)">
        <path id="Path_83549" data-name="Path 83549" d="M80.073-511.647a5.552,5.552,0,0,0-2.2,9.291,5.711,5.711,0,0,0,4.719,1.506,5.616,5.616,0,0,0,4.639-6.3A5.542,5.542,0,0,0,80.073-511.647Z" transform="translate(-52.932)" fill="none" stroke="#007889" stroke-width="2"/>
        <path id="Path_83550" data-name="Path 83550" d="M331.406-497.532a6.428,6.428,0,0,0-2.6,1.626,6.852,6.852,0,0,0-.893,1.4,3.8,3.8,0,0,0-.413,2.266,3.823,3.823,0,0,0,.427,2.293,5.567,5.567,0,0,0,2.679,2.679,3.846,3.846,0,0,0,2.306.427,3.7,3.7,0,0,0,2.413-.507,5.126,5.126,0,0,0,2.559-2.626,3.8,3.8,0,0,0,.413-2.266,3.823,3.823,0,0,0-.427-2.293,5.658,5.658,0,0,0-2.653-2.666,4.33,4.33,0,0,0-2.026-.453A6.83,6.83,0,0,0,331.406-497.532Z" transform="translate(-270.753 -12.355)" fill="none" stroke="#007889" stroke-width="2"/>
        <path id="Path_83551" data-name="Path 83551" d="M20.063-414.794A6.624,6.624,0,0,0,16-411.768c-.92,1.56-.92,1.453-.88,13.183.04,10.317.04,10.477.32,11a2.529,2.529,0,0,0,2.226,1.36,2.45,2.45,0,0,0,2.279-1.066l.413-.52.067-10.477c.053-7.945.107-10.557.227-10.77a1.128,1.128,0,0,1,.573-.427l.4-.147.027,23.82.04,23.82.293.547a3.969,3.969,0,0,0,.746.946,3.21,3.21,0,0,0,5.292-1.813c.08-.453.133-5.572.133-13.756v-13.05h1.333l.027,13.556.04,13.57.293.547a3.266,3.266,0,0,0,3.186,1.746,3.222,3.222,0,0,0,2.839-2.506c.107-.453.147-7.9.147-23.98,0-22.5.013-23.327.24-23.327a.931.931,0,0,1,.533.307c.293.307.293.373.307,5.172a37.423,37.423,0,0,0,.16,5.265c.093.227.853,1.56,1.693,2.959l1.52,2.559.213-.786c.28-1.013.507-1.36,1.919-2.879l1.173-1.266-.613-1.053-.613-1.04V-404.4c0-2.266-.067-4.545-.133-5.052a6.505,6.505,0,0,0-5.185-5.4C36.139-415.047,20.943-415.007,20.063-414.794Z" transform="translate(0 -84.016)" fill="none" stroke="#007889" stroke-width="2"/>
        <path id="Path_83552" data-name="Path 83552" d="M234.343-402.691a6.115,6.115,0,0,0-4.559,3.612c-.293.613-1.146,2.813-1.879,4.892a38.984,38.984,0,0,1-1.573,4.066c-.12.147-1.506,1.613-3.079,3.266a36,36,0,0,0-3.026,3.426,2.8,2.8,0,0,0,.92,3.172,2.621,2.621,0,0,0,2.719.187,38,38,0,0,0,3.812-3.719,33.022,33.022,0,0,0,3.879-4.465c.347-.573.6-.906.56-.72-.347,1.573-2.879,16.129-2.879,16.542a1.228,1.228,0,0,0,.387.946c.387.44.413.44,1.733.48l1.346.053.027,9.744.04,9.757.293.56a3.274,3.274,0,0,0,3.452,1.653,3.345,3.345,0,0,0,2.146-1.573l.373-.64.04-9.771.04-9.757h1.306l.04,9.757.04,9.771.373.64a3.345,3.345,0,0,0,2.146,1.573,3.227,3.227,0,0,0,3.452-1.666c.293-.547.293-.547.333-10.3l.027-9.744,1.346-.053c1.32-.04,1.346-.04,1.733-.48a1.248,1.248,0,0,0,.387-.973c0-.293-.6-4.079-1.333-8.4s-1.333-7.931-1.306-8.011a11.917,11.917,0,0,1,.76,1.853c1.733,4.772,3.532,9.344,3.839,9.757a2.658,2.658,0,0,0,4.652-1.386c.067-.613-.08-1.093-1.879-6.065-1.08-2.973-2.586-7.171-3.346-9.331-1.693-4.812-2.2-5.865-3.292-6.985a5.2,5.2,0,0,0-3.292-1.68C243.914-402.851,235.53-402.851,234.343-402.691Z" transform="translate(-177.623 -94.559)" fill="none" stroke="#007889" stroke-width="2"/>
      </g>
    </g>
    <g id="Group_18085" data-name="Group 18085">
      <g transform="matrix(1, 0, 0, 1, 70, 1196)" filter="url(#Rectangle_2524)">
        <g id="Rectangle_2524-2" data-name="Rectangle 2524" transform="translate(480 66)" fill="#fff" stroke="#ededed" stroke-width="1">
          <rect width="388" height="267" rx="12" stroke="none"/>
          <rect x="0.5" y="0.5" width="387" height="266" rx="11.5" fill="none"/>
        </g>
      </g>
      <text id="بلاغ_عن_التعديات_على_الأراضي_الحكومية" data-name="بلاغ عن التعديات على
 الأراضي الحكومية" transform="translate(744 1398)" fill="#009780" font-size="20" font-family="Almarai-Regular, Almarai"><tspan x="-85.31" y="0">بلاغ عن التعديات على</tspan><tspan y="0"></tspan><tspan x="-70.75" y="27"> </tspan><tspan y="27">الأراضي الحكومية</tspan></text>
      <text id="تٌتيح_لك_الخدمات_الإلكترونية_إمكانية_التقدم_بطلب_لإمارة_منطقة_الرياض_وذلك_في_الزمان_والمكان_المناسب_دون_الحاجة_إلى_تكبد_عناء_السفر_من_مكان_إقامتك-3" data-name="تٌتيح لك الخدمات الإلكترونية إمكانية التقدم بطلب لإمارة منطقة الرياض وذلك في الزمان والمكان المناسب دون الحاجة إلى تكبد عناء السفر من مكان
إقامتك" transform="translate(606 1449)" fill="#565656" font-size="16" font-family="Almarai-Regular, Almarai"><tspan x="9.92" y="14">تٌتيح لك الخدمات الإلكترونية إمكانية التقدم</tspan><tspan y="14"> </tspan><tspan x="32.176" y="37">بطلب لإمارة منطقة الرياض وذلك في</tspan><tspan y="37"> </tspan></text>
      <g id="magnifying-glass" transform="translate(702 1794.861)">
        <path id="Path_83553" data-name="Path 83553" d="M32.429-503.661a28.057,28.057,0,0,0-2.988.606A28.467,28.467,0,0,0,8.826-482.469,26.778,26.778,0,0,0,8-475.446a27.055,27.055,0,0,0,2.878,12.531,26.958,26.958,0,0,0,5.508,7.643,28.4,28.4,0,0,0,15.657,7.945,38.376,38.376,0,0,0,8.8,0A28.633,28.633,0,0,0,49.1-450a28.691,28.691,0,0,0,4.379-2.7l.537-.413,2.052,2.052c1.418,1.418,2.052,2.148,2.052,2.355a5.434,5.434,0,0,0,.289,1.1c.275.744.661,1.171,5.481,6,5.949,5.976,5.908,5.949,7.863,5.949a3.378,3.378,0,0,0,1.942-.386,5.085,5.085,0,0,0,2.231-2.272,3.8,3.8,0,0,0,.3-1.749c0-2,.124-1.831-5.563-7.56-2.768-2.782-5.315-5.247-5.646-5.467a4.589,4.589,0,0,0-1.391-.551c-.771-.151-.84-.207-2.823-2.19l-2.038-2.038.413-.537a29.331,29.331,0,0,0,4.778-9.887,23.371,23.371,0,0,0,.826-7.161,21.222,21.222,0,0,0-.317-4.82,28.43,28.43,0,0,0-24.222-23.4A38.067,38.067,0,0,0,32.429-503.661Zm7.436,2.327a26.188,26.188,0,0,1,22.473,22.1,33.048,33.048,0,0,1,0,7.56,26.78,26.78,0,0,1-4.723,11.622,37.052,37.052,0,0,1-5.784,5.784,26.78,26.78,0,0,1-11.622,4.723,33.047,33.047,0,0,1-7.56,0,26.221,26.221,0,0,1-21.468-19.265,26.152,26.152,0,0,1,11.058-28.546,27.2,27.2,0,0,1,11.14-4.035A34.04,34.04,0,0,1,39.865-501.334ZM59.777-452.78a3.261,3.261,0,0,0-.771.812l-.248.413-1.487-1.474-1.487-1.487.785-.785.8-.8,1.473,1.473,1.473,1.46Zm3.993,1.57c.193.1,2.52,2.369,5.191,5.054,5.233,5.247,5.15,5.15,4.944,6.417a2.226,2.226,0,0,1-3.195,1.57c-.3-.165-2.575-2.327-5.315-5.081-4.159-4.186-4.792-4.861-4.93-5.384A2.291,2.291,0,0,1,63.77-451.21Z" fill="#007889"/>
        <path id="Path_83554" data-name="Path 83554" d="M62.86-470.459A24.012,24.012,0,0,0,42.4-453.907a23.848,23.848,0,0,0,5.109,23.313,24.691,24.691,0,0,0,12.751,7.285,26.7,26.7,0,0,0,8.992.165,23.949,23.949,0,0,0,19.76-23.423,22.992,22.992,0,0,0-1.239-7.656,23.924,23.924,0,0,0-18.521-15.96A29.018,29.018,0,0,0,62.86-470.459Zm6.624,2.6a25.068,25.068,0,0,1,5.343,1.873,22.5,22.5,0,0,1,9.736,9.846,21.663,21.663,0,0,1-7.67,27.582,21.738,21.738,0,0,1-18.741,2.3A22.15,22.15,0,0,1,45.839-437a20.824,20.824,0,0,1-2.231-8.758A21.109,21.109,0,0,1,49.764-461.8a21.564,21.564,0,0,1,12.214-6.252A28.587,28.587,0,0,1,69.483-467.856Z" transform="translate(-28.682 -28.741)" fill="#007889"/>
        <path id="Path_83555" data-name="Path 83555" d="M114.007-420.655a4.136,4.136,0,0,0-2.176,1.721c-.606.936-11.443,20.325-11.9,21.3a3.438,3.438,0,0,0-.344,1.859,3.274,3.274,0,0,0,.4,1.9,4.606,4.606,0,0,0,2.424,2.231c.73.262,1.088.275,13.137.275h12.393l.771-.358a4.445,4.445,0,0,0,2.575-3.773,6.1,6.1,0,0,0-.1-1.515c-.22-.84-12.063-21.936-12.655-22.556A4.391,4.391,0,0,0,114.007-420.655Zm2.231,2.217a2.715,2.715,0,0,1,.716.441c.441.537,12.035,21.44,12.1,21.84a2.317,2.317,0,0,1-1.363,2.368c-.262.11-4.2.151-12.311.151-13.151,0-12.5.041-13.151-.868a2.589,2.589,0,0,1-.179-2.313C103.1-398.87,113.8-417.8,114.076-418.08A1.79,1.79,0,0,1,116.238-418.438Z" transform="translate(-78.976 -71.549)" fill="#007889"/>
        <path id="Path_83556" data-name="Path 83556" d="M206.8-371.3c-.716.3-.757.633-.7,6.431l.041,5.178.33.358a1.073,1.073,0,0,0,1.6.014l.344-.331v-11.016l-.3-.344A1,1,0,0,0,206.8-371.3Z" transform="translate(-170.801 -114.198)" fill="#007889"/>
        <path id="Path_83557" data-name="Path 83557" d="M207.107-263.624a1.1,1.1,0,0,0,.785,1.859,1.151,1.151,0,0,0,1.143-1.1A1.126,1.126,0,0,0,207.107-263.624Z" transform="translate(-171.429 -206.864)" fill="#007889"/>
        <path id="Path_83558" data-name="Path 83558" d="M79.89-400.009a19.207,19.207,0,0,0-5.247,12.435c-.028,1.294-.014,1.336.358,1.666a.943.943,0,0,0,1.46-.055c.358-.344.386-.482.468-1.887a16.717,16.717,0,0,1,4.641-10.6c1.06-1.143,1.184-1.542.675-2.19A.878.878,0,0,0,81.4-401C80.9-401,80.771-400.917,79.89-400.009Z" transform="translate(-57.458 -88.698)" fill="#007889"/>
      </g>
    </g>
    <g id="Group_18086" data-name="Group 18086">
      <g transform="matrix(1, 0, 0, 1, 70, 1196)" filter="url(#Rectangle_2525)">
        <g id="Rectangle_2525-2" data-name="Rectangle 2525" transform="translate(51 66)" fill="#fff" stroke="#ededed" stroke-width="1">
          <rect width="388" height="267" rx="12" stroke="none"/>
          <rect x="0.5" y="0.5" width="387" height="266" rx="11.5" fill="none"/>
        </g>
      </g>
      <text id="طلب_علاج_إدمان" data-name="طلب علاج إدمان" transform="translate(315 1412)" fill="#009780" font-size="20" font-family="Almarai-Regular, Almarai"><tspan x="-67.82" y="0">طلب علاج إدمان</tspan></text>
      <text id="تٌتيح_لك_الخدمات_الإلكترونية_إمكانية_التقدم_بطلب_لإمارة_منطقة_الرياض_وذلك_في_الزمان_والمكان_المناسب_دون_الحاجة_إلى_تكبد_عناء_السفر_من_مكان_إقامتك-4" data-name="تٌتيح لك الخدمات الإلكترونية إمكانية التقدم بطلب لإمارة منطقة الرياض وذلك في الزمان والمكان المناسب دون الحاجة إلى تكبد عناء السفر من مكان
إقامتك" transform="translate(177 1449)" fill="#565656" font-size="16" font-family="Almarai-Regular, Almarai"><tspan x="9.92" y="14">تٌتيح لك الخدمات الإلكترونية إمكانية التقدم</tspan><tspan y="14"> </tspan><tspan x="32.176" y="37">بطلب لإمارة منطقة الرياض وذلك في</tspan><tspan y="37"> </tspan></text>
      <g id="contract" transform="translate(265 1786.988)">
        <path id="Path_83559" data-name="Path 83559" d="M29.641-495.8a4.53,4.53,0,0,0-2.1,2.174c-.128.44-.171,3.623-.171,12.76v12.163h-4.76l-3.055,1.222a19.741,19.741,0,0,0-3.3,1.506c-.242.27-.256.9-.256,8.6,0,4.959.057,8.4.128,8.554a15.98,15.98,0,0,0,2.117,1.549l1.975,1.307h7.147v7.616a74.829,74.829,0,0,0,.171,8.213,4.22,4.22,0,0,0,2.188,2.188c.853.242,37.626.242,38.479,0a4.22,4.22,0,0,0,2.188-2.188c.256-.853.256-62.634,0-63.487a4.22,4.22,0,0,0-2.188-2.188C67.409-496.046,30.394-496.046,29.641-495.8Zm38.294,2.444.355.341v62.265l-.355.341-.341.355H30.337L30-430.414l-.355-.341V-459.6l4.021-.043,4.007-.043.9-.483a4.135,4.135,0,0,0,1.989-2.06,3.373,3.373,0,0,0,.369-1.932,3.144,3.144,0,0,0-.469-2.1,4.359,4.359,0,0,0-2.146-2.046c-.611-.313-.824-.327-4.646-.369l-4.021-.043v-24.3l.355-.341.341-.355H67.594Zm-30.252,27.3a2.006,2.006,0,0,1,.98,1.9,2.006,2.006,0,0,1-.98,1.9c-.369.284-.611.3-6.224.369l-5.826.071-.27.341a1.468,1.468,0,0,0-.27.753,3.669,3.669,0,0,1-3.183,3.382c-.185,0-.227.185-.227,1.151v1.165l.753-.1a6.093,6.093,0,0,0,3.95-2.458,8.646,8.646,0,0,0,.639-1.307l.341-.8v11.438H20.916l-1.321-.867-1.321-.881V-464.53l2.316-.938,2.3-.938,7.2.014C37.129-466.363,37.3-466.363,37.683-466.065Z" transform="translate(0 0)" fill="#007889"/>
        <path id="Path_83560" data-name="Path 83560" d="M173.813-461.556A60.447,60.447,0,0,0,168.3-458.9c-.242.27-.256.611-.213,5.059.057,5.328.1,5.613,1.208,7.7.739,1.421,1.393,2.117,5.726,5.968,3.325,2.956,4.05,3.538,4.4,3.538.455,0,.384.057,5.542-4.533,3.1-2.757,3.893-3.609,4.6-4.973,1.094-2.089,1.137-2.387,1.194-7.7.043-4.447.028-4.774-.213-5.059-.3-.355-10.728-5.016-11.183-5C179.213-463.9,176.712-462.835,173.813-461.556Zm10.216,2.06,4.49,2.018v3.638c0,4.76-.213,5.741-1.662,7.716-.469.639-7.176,6.721-7.417,6.721s-7.147-6.238-7.531-6.806c-1.393-2.032-1.577-2.9-1.577-7.559v-3.723l4.447-1.989c2.43-1.094,4.5-2,4.59-2S181.557-460.59,184.03-459.5Z" transform="translate(-130.46 -27.528)" fill="#007889"/>
        <path id="Path_83561" data-name="Path 83561" d="M226.349-408.187l-2.8,2.8-1.208-1.208-1.208-1.208-.824.824-.81.81,1.79,1.776c1.577,1.577,1.833,1.776,2.259,1.776s.8-.3,3.865-3.382l3.382-3.368-.81-.81-.824-.824Z" transform="translate(-174.584 -72.912)" fill="#007889"/>
        <path id="Path_83562" data-name="Path 83562" d="M144-206.863v1.137h4.547V-208H144Z" transform="translate(-109.812 -247.067)" fill="#007889"/>
        <path id="Path_83563" data-name="Path 83563" d="M192-206.863v1.137h22.735V-208H192Z" transform="translate(-150.992 -247.067)" fill="#007889"/>
        <path id="Path_83564" data-name="Path 83564" d="M144-158.863v1.137h4.547V-160H144Z" transform="translate(-109.812 -288.246)" fill="#007889"/>
        <path id="Path_83565" data-name="Path 83565" d="M192-158.863v1.137h22.735V-160H192Z" transform="translate(-150.992 -288.246)" fill="#007889"/>
        <path id="Path_83566" data-name="Path 83566" d="M144-110.863v1.137h4.547V-112H144Z" transform="translate(-109.812 -329.426)" fill="#007889"/>
        <path id="Path_83567" data-name="Path 83567" d="M192-110.863v1.137h22.735V-112H192Z" transform="translate(-150.992 -329.426)" fill="#007889"/>
        <path id="Path_83568" data-name="Path 83568" d="M144-62.863v1.137h4.547V-64H144Z" transform="translate(-109.812 -370.605)" fill="#007889"/>
        <path id="Path_83569" data-name="Path 83569" d="M192-62.863v1.137h22.735V-64H192Z" transform="translate(-150.992 -370.605)" fill="#007889"/>
        <path id="Path_83570" data-name="Path 83570" d="M418.273-383.767a4.53,4.53,0,0,0-2.1,2.174c-.128.455-.171,5.215-.171,20.248l.014,19.666,1.194,4.76c1.279,5.087,1.35,5.257,2.2,5.257s.924-.171,2.2-5.257l1.194-4.76.014-16.6v-16.582h2.273v10.231h2.273v-11.808l-.355-.341c-.327-.341-.412-.355-2.273-.355H422.82v-1.932c0-2.316-.142-2.842-.952-3.751A3.336,3.336,0,0,0,418.273-383.767Zm1.918,2.444c.341.327.355.412.355,2.274v1.918h-2.273v-1.918c0-1.861.014-1.947.355-2.274a1.108,1.108,0,0,1,.781-.355A1.108,1.108,0,0,1,420.192-381.323Zm.355,22.38v15.914h-2.273v-31.829h2.273Zm-.682,19.68a8.819,8.819,0,0,1-.455,1.492,8.828,8.828,0,0,1-.455-1.492l-.355-1.492h1.62Z" transform="translate(-343.163 -96.123)" fill="#007889"/>
      </g>
    </g>
  </g>
</svg>
